<svg width="1500" height="1216" viewBox="0 0 1500 1216" fill="none" xmlns="http://www.w3.org/2000/svg">
<g clip-path="url(#clip0_94_332)">
<rect width="1500" height="1216" fill="white"/>
<rect x="1267.5" y="390.5" width="435" height="1035" transform="rotate(90 1267.5 390.5)" fill="white"/>
<rect x="1267.5" y="390.5" width="435" height="1035" transform="rotate(90 1267.5 390.5)" stroke="black" stroke-width="15"/>
<rect x="944" y="511" width="194" height="194" stroke="black" stroke-width="6"/>
<path d="M1039.14 551.636L1044.18 553.76L1031.01 585.116H1057.47V589.94H1024.6V585.548L1039.14 551.636ZM1051.06 571.04V602H1045.23L1045.19 586.268L1046.02 571.04H1051.06Z" fill="black"/>
<rect x="750" y="511" width="194" height="194" stroke="black" stroke-width="6"/>
<path d="M844.746 551.636C847.866 551.636 850.554 552.2 852.81 553.328C855.09 554.432 856.854 555.932 858.102 557.828C859.35 559.7 859.974 561.764 859.974 564.02C859.974 566.012 859.53 567.824 858.642 569.456C857.754 571.088 856.578 572.432 855.114 573.488C853.65 574.544 852.042 575.24 850.29 575.576C852.234 575.72 854.058 576.272 855.762 577.232C857.466 578.168 858.858 579.512 859.938 581.264C861.018 582.992 861.558 585.14 861.558 587.708C861.558 590.564 860.838 593.144 859.398 595.448C857.958 597.728 855.942 599.528 853.35 600.848C850.782 602.168 847.782 602.828 844.35 602.828C841.59 602.828 838.83 602.3 836.07 601.244C833.334 600.188 831.018 598.508 829.122 596.204L833.19 592.892C834.606 594.548 836.286 595.784 838.23 596.6C840.198 597.416 842.19 597.824 844.206 597.824C847.662 597.824 850.362 596.924 852.306 595.124C854.25 593.3 855.222 590.828 855.222 587.708C855.222 585.356 854.766 583.496 853.854 582.128C852.966 580.76 851.754 579.788 850.218 579.212C848.682 578.612 846.93 578.312 844.962 578.312H840.786L841.542 573.524H844.458C846.066 573.524 847.578 573.224 848.994 572.624C850.434 572 851.61 571.04 852.522 569.744C853.434 568.448 853.89 566.828 853.89 564.884C853.89 562.148 852.978 560.06 851.154 558.62C849.33 557.18 847.122 556.46 844.53 556.46C842.37 556.46 840.486 556.844 838.878 557.612C837.27 558.356 835.65 559.496 834.018 561.032L830.67 557.324C832.782 555.332 835.026 553.892 837.402 553.004C839.778 552.092 842.226 551.636 844.746 551.636Z" fill="black"/>
<rect x="556" y="511" width="194" height="194" stroke="black" stroke-width="6"/>
<path d="M650.818 551.636C653.938 551.636 656.602 552.236 658.81 553.436C661.042 554.636 662.758 556.28 663.958 558.368C665.158 560.456 665.758 562.82 665.758 565.46C665.758 567.74 665.362 569.972 664.57 572.156C663.778 574.316 662.506 576.596 660.754 578.996C659.026 581.372 656.746 584.012 653.914 586.916C651.106 589.82 647.65 593.132 643.546 596.852H666.91L666.154 602H636.67V597.068C640.414 593.492 643.594 590.36 646.21 587.672C648.85 584.984 651.022 582.632 652.726 580.616C654.454 578.576 655.798 576.728 656.758 575.072C657.742 573.416 658.426 571.844 658.81 570.356C659.194 568.844 659.386 567.284 659.386 565.676C659.386 562.892 658.594 560.696 657.01 559.088C655.45 557.48 653.29 556.676 650.53 556.676C648.082 556.676 646.078 557.096 644.518 557.936C642.958 558.776 641.398 560.12 639.838 561.968L635.662 558.728C637.63 556.328 639.814 554.552 642.214 553.4C644.614 552.224 647.482 551.636 650.818 551.636Z" fill="black"/>
<rect x="556" y="705" width="194" height="194" transform="rotate(180 556 705)" stroke="black" stroke-width="6"/>
<path d="M464.306 552.428V600.56H458.258V558.98L446.882 565.892L444.254 561.572L459.014 552.428H464.306ZM474.674 597.068V602H446.054V597.068H474.674Z" fill="black"/>
<path d="M647.432 261.14V302H635.624V261.14H621.62V252.104H662.012L660.788 261.14H647.432ZM668.572 302V294.368H673.612V271.328H668.572V263.768H682.288L684.376 272.372C685.744 269.084 687.484 266.636 689.596 265.028C691.732 263.42 694.336 262.616 697.408 262.616C698.704 262.616 699.856 262.724 700.864 262.94C701.872 263.132 702.82 263.408 703.708 263.768L700.252 273.164C699.556 272.972 698.86 272.828 698.164 272.732C697.468 272.636 696.7 272.588 695.86 272.588C693.364 272.588 691.168 273.608 689.272 275.648C687.4 277.688 685.972 280.28 684.988 283.424V294.368H692.548V302H668.572ZM694.456 279.752V268.592L696.148 263.768H703.708L701.584 279.752H694.456ZM734.748 263.768V294.224H744.468V302H712.536V294.224H723.372V271.544H712.896V263.768H734.748ZM727.872 243.752C729.84 243.752 731.448 244.364 732.696 245.588C733.944 246.812 734.568 248.336 734.568 250.16C734.568 251.984 733.944 253.52 732.696 254.768C731.448 255.992 729.84 256.604 727.872 256.604C725.88 256.604 724.248 255.992 722.976 254.768C721.728 253.52 721.104 251.984 721.104 250.16C721.104 248.336 721.728 246.812 722.976 245.588C724.248 244.364 725.88 243.752 727.872 243.752ZM782.816 262.508C784.64 262.508 786.14 262.892 787.316 263.66C788.492 264.428 789.368 265.64 789.944 267.296C790.52 268.928 790.808 271.064 790.808 273.704V302H781.052V275C781.052 273.656 780.92 272.708 780.656 272.156C780.416 271.604 779.912 271.328 779.144 271.328C778.544 271.328 777.92 271.508 777.272 271.868C776.648 272.204 775.952 272.852 775.184 273.812V302H767.192V275C767.192 273.656 767.06 272.708 766.796 272.156C766.556 271.604 766.052 271.328 765.284 271.328C764.684 271.328 764.06 271.508 763.412 271.868C762.788 272.204 762.092 272.852 761.324 273.812V302H751.424V263.768H759.776L760.532 267.476C761.732 265.844 762.944 264.608 764.168 263.768C765.392 262.928 766.844 262.508 768.524 262.508C769.964 262.508 771.188 262.88 772.196 263.624C773.228 264.344 773.96 265.484 774.392 267.044C775.544 265.7 776.816 264.608 778.208 263.768C779.6 262.928 781.136 262.508 782.816 262.508ZM855.731 250.844C859.523 250.844 862.691 251.504 865.235 252.824C867.803 254.144 869.723 255.896 870.995 258.08C872.291 260.24 872.939 262.592 872.939 265.136C872.939 267.152 872.591 269.132 871.895 271.076C871.223 272.996 870.107 275.036 868.547 277.196C866.987 279.332 864.911 281.708 862.319 284.324C859.751 286.94 856.571 289.94 852.779 293.324H874.091L872.867 302H839.711V293.936C842.999 290.768 845.855 287.96 848.279 285.512C850.703 283.064 852.743 280.892 854.399 278.996C856.079 277.1 857.423 275.408 858.431 273.92C859.463 272.432 860.207 271.064 860.663 269.816C861.119 268.544 861.347 267.32 861.347 266.144C861.347 264.128 860.759 262.532 859.583 261.356C858.431 260.18 856.787 259.592 854.651 259.592C852.755 259.592 851.111 259.988 849.719 260.78C848.327 261.572 846.983 262.856 845.687 264.632L838.703 259.376C840.575 256.784 842.879 254.72 845.615 253.184C848.351 251.624 851.723 250.844 855.731 250.844Z" fill="black"/>
<path d="M364.303 613.303C367.232 610.374 367.232 605.626 364.303 602.697L316.574 554.967C313.645 552.038 308.896 552.038 305.967 554.967C303.038 557.896 303.038 562.645 305.967 565.574L348.393 608L305.967 650.426C303.038 653.355 303.038 658.104 305.967 661.033C308.896 663.962 313.645 663.962 316.574 661.033L364.303 613.303ZM359 608V600.5L-42 600.5V608V615.5L359 615.5V608Z" fill="#041BB0"/>
<path d="M1305.3 1205.3C1302.37 1208.23 1297.63 1208.23 1294.7 1205.3L1246.97 1157.57C1244.04 1154.64 1244.04 1149.9 1246.97 1146.97C1249.9 1144.04 1254.64 1144.04 1257.57 1146.97L1300 1189.39L1342.43 1146.97C1345.36 1144.04 1350.1 1144.04 1353.03 1146.97C1355.96 1149.9 1355.96 1154.64 1353.03 1157.57L1305.3 1205.3ZM1300 608V600.5H1307.5V608H1300ZM1300 1200H1292.5V608H1300H1307.5V1200H1300ZM1300 608V615.5H1141V608V600.5H1300V608Z" fill="#041BB0"/>
<path d="M883.536 1022.54C885.488 1020.58 885.488 1017.42 883.536 1015.46L851.716 983.645C849.763 981.692 846.597 981.692 844.645 983.645C842.692 985.597 842.692 988.763 844.645 990.716L872.929 1019L844.645 1047.28C842.692 1049.24 842.692 1052.4 844.645 1054.36C846.597 1056.31 849.763 1056.31 851.716 1054.36L883.536 1022.54ZM241.014 1024C243.776 1024 246.014 1021.76 246.014 1019C246.014 1016.24 243.776 1014 241.014 1014V1024ZM262.367 1014C259.605 1014 257.367 1016.24 257.367 1019C257.367 1021.76 259.605 1024 262.367 1024V1014ZM294.395 1024C297.157 1024 299.395 1021.76 299.395 1019C299.395 1016.24 297.157 1014 294.395 1014V1024ZM315.748 1014C312.986 1014 310.748 1016.24 310.748 1019C310.748 1021.76 312.986 1024 315.748 1024V1014ZM347.776 1024C350.538 1024 352.776 1021.76 352.776 1019C352.776 1016.24 350.538 1014 347.776 1014V1024ZM369.129 1014C366.367 1014 364.129 1016.24 364.129 1019C364.129 1021.76 366.367 1024 369.129 1024V1014ZM401.157 1024C403.919 1024 406.157 1021.76 406.157 1019C406.157 1016.24 403.919 1014 401.157 1014V1024ZM422.51 1014C419.748 1014 417.51 1016.24 417.51 1019C417.51 1021.76 419.748 1024 422.51 1024V1014ZM453.24 1024C456.002 1024 458.24 1021.76 458.24 1019C458.24 1016.24 456.002 1014 453.24 1014V1024ZM472.861 1014C470.1 1014 467.861 1016.24 467.861 1019C467.861 1021.76 470.1 1024 472.861 1024V1014ZM502.293 1024C505.054 1024 507.293 1021.76 507.293 1019C507.293 1016.24 505.054 1014 502.293 1014V1024ZM521.914 1014C519.153 1014 516.914 1016.24 516.914 1019C516.914 1021.76 519.153 1024 521.914 1024V1014ZM551.346 1024C554.107 1024 556.346 1021.76 556.346 1019C556.346 1016.24 554.107 1014 551.346 1014V1024ZM570.967 1014C568.206 1014 565.967 1016.24 565.967 1019C565.967 1021.76 568.206 1024 570.967 1024V1014ZM600.399 1024C603.16 1024 605.399 1021.76 605.399 1019C605.399 1016.24 603.16 1014 600.399 1014V1024ZM620.02 1014C617.258 1014 615.02 1016.24 615.02 1019C615.02 1021.76 617.258 1024 620.02 1024V1014ZM649.452 1024C652.213 1024 654.452 1021.76 654.452 1019C654.452 1016.24 652.213 1014 649.452 1014V1024ZM669.073 1014C666.311 1014 664.073 1016.24 664.073 1019C664.073 1021.76 666.311 1024 669.073 1024V1014ZM698.504 1024C701.266 1024 703.504 1021.76 703.504 1019C703.504 1016.24 701.266 1014 698.504 1014V1024ZM718.126 1014C715.364 1014 713.126 1016.24 713.126 1019C713.126 1021.76 715.364 1024 718.126 1024V1014ZM747.557 1024C750.319 1024 752.557 1021.76 752.557 1019C752.557 1016.24 750.319 1014 747.557 1014V1024ZM767.178 1014C764.417 1014 762.178 1016.24 762.178 1019C762.178 1021.76 764.417 1024 767.178 1024V1014ZM796.61 1024C799.372 1024 801.61 1021.76 801.61 1019C801.61 1016.24 799.372 1014 796.61 1014V1024ZM816.231 1014C813.47 1014 811.231 1016.24 811.231 1019C811.231 1021.76 813.47 1024 816.231 1024V1014ZM845.663 1024C848.424 1024 850.663 1021.76 850.663 1019C850.663 1016.24 848.424 1014 845.663 1014V1024ZM865.284 1014C862.523 1014 860.284 1016.24 860.284 1019C860.284 1021.76 862.523 1024 865.284 1024V1014ZM225 1019V1024H241.014V1019V1014H225V1019ZM262.367 1019V1024H294.395V1019V1014H262.367V1019ZM315.748 1019V1024H347.776V1019V1014H315.748V1019ZM369.129 1019V1024H401.157V1019V1014H369.129V1019ZM422.51 1019V1024H438.524V1019V1014H422.51V1019ZM438.524 1019V1024H453.24V1019V1014H438.524V1019ZM472.861 1019V1024H502.293V1019V1014H472.861V1019ZM521.914 1019V1024H551.346V1019V1014H521.914V1019ZM570.967 1019V1024H600.399V1019V1014H570.967V1019ZM620.02 1019V1024H649.452V1019V1014H620.02V1019ZM669.073 1019V1024H698.504V1019V1014H669.073V1019ZM718.126 1019V1024H747.557V1019V1014H718.126V1019ZM767.178 1019V1024H796.61V1019V1014H767.178V1019ZM816.231 1019V1024H845.663V1019V1014H816.231V1019ZM865.284 1019V1024H880V1019V1014H865.284V1019Z" fill="#041BB0"/>
<path d="M239.67 972.188C239.67 971.3 239.502 970.568 239.166 969.992C238.842 969.404 238.344 968.972 237.672 968.696C237.012 968.408 236.178 968.264 235.17 968.264H233.154V976.418H235.476C236.352 976.418 237.102 976.268 237.726 975.968C238.35 975.668 238.83 975.206 239.166 974.582C239.502 973.958 239.67 973.16 239.67 972.188ZM245.754 972.17C245.754 974.102 245.34 975.698 244.512 976.958C243.684 978.218 242.526 979.16 241.038 979.784C239.55 980.396 237.822 980.702 235.854 980.702H233.154V989H227.25V964.052H235.098C238.482 964.052 241.104 964.724 242.964 966.068C244.824 967.412 245.754 969.446 245.754 972.17ZM266.8 971.63C266.8 972.818 266.578 973.856 266.134 974.744C265.69 975.632 265.09 976.382 264.334 976.994C263.578 977.606 262.732 978.098 261.796 978.47L268.33 989H261.652L256.252 979.46H254.578V989H248.674V964.052H256.522C259.918 964.052 262.48 964.67 264.208 965.906C265.936 967.142 266.8 969.05 266.8 971.63ZM260.716 971.63C260.716 970.43 260.362 969.56 259.654 969.02C258.958 968.468 257.92 968.192 256.54 968.192H254.578V975.41H256.774C258.058 975.41 259.036 975.11 259.708 974.51C260.38 973.91 260.716 972.95 260.716 971.63ZM288.962 976.508C288.962 979.148 288.584 981.452 287.828 983.42C287.072 985.376 285.95 986.9 284.462 987.992C282.986 989.072 281.156 989.612 278.972 989.612C276.8 989.612 274.97 989.084 273.482 988.028C271.994 986.96 270.872 985.448 270.116 983.492C269.36 981.536 268.982 979.208 268.982 976.508C268.982 973.868 269.36 971.57 270.116 969.614C270.872 967.658 271.994 966.14 273.482 965.06C274.97 963.968 276.8 963.422 278.972 963.422C281.156 963.422 282.986 963.95 284.462 965.006C285.95 966.062 287.072 967.568 287.828 969.524C288.584 971.48 288.962 973.808 288.962 976.508ZM282.914 976.508C282.914 973.436 282.608 971.204 281.996 969.812C281.384 968.42 280.376 967.724 278.972 967.724C277.568 967.724 276.56 968.426 275.948 969.83C275.336 971.222 275.03 973.448 275.03 976.508C275.03 979.58 275.342 981.812 275.966 983.204C276.59 984.596 277.592 985.292 278.972 985.292C280.412 985.292 281.426 984.59 282.014 983.186C282.614 981.77 282.914 979.544 282.914 976.508ZM304.32 976.4C304.32 974.72 304.176 973.352 303.888 972.296C303.612 971.24 303.222 970.424 302.718 969.848C302.226 969.272 301.644 968.876 300.972 968.66C300.3 968.444 299.574 968.336 298.794 968.336H297.534V984.734H298.794C299.61 984.734 300.354 984.608 301.026 984.356C301.71 984.092 302.298 983.654 302.79 983.042C303.282 982.418 303.66 981.566 303.924 980.486C304.188 979.406 304.32 978.044 304.32 976.4ZM310.44 976.4C310.44 978.428 310.224 980.168 309.792 981.62C309.36 983.06 308.754 984.26 307.974 985.22C307.206 986.18 306.312 986.936 305.292 987.488C304.272 988.04 303.174 988.43 301.998 988.658C300.822 988.886 299.61 989 298.362 989H291.63V964.052H297.93C299.526 964.052 301.068 964.22 302.556 964.556C304.056 964.88 305.394 965.486 306.57 966.374C307.758 967.25 308.7 968.498 309.396 970.118C310.092 971.726 310.44 973.82 310.44 976.4ZM331.432 964.052V980.648C331.432 982.352 331.084 983.882 330.388 985.238C329.704 986.582 328.672 987.65 327.292 988.442C325.924 989.222 324.208 989.612 322.144 989.612C320.068 989.612 318.34 989.234 316.96 988.478C315.592 987.722 314.566 986.672 313.882 985.328C313.198 983.984 312.856 982.424 312.856 980.648V964.052H318.778V978.452C318.778 980.696 318.982 982.388 319.39 983.528C319.798 984.656 320.716 985.22 322.144 985.22C323.572 985.22 324.49 984.656 324.898 983.528C325.306 982.388 325.51 980.696 325.51 978.452V964.052H331.432ZM345.818 963.422C347.606 963.422 349.124 963.662 350.372 964.142C351.632 964.61 352.784 965.276 353.828 966.14L350.93 969.632C350.246 969.068 349.49 968.624 348.662 968.3C347.834 967.964 346.934 967.796 345.962 967.796C344.918 967.796 343.964 968.096 343.1 968.696C342.236 969.284 341.546 970.22 341.03 971.504C340.514 972.776 340.256 974.432 340.256 976.472C340.256 978.476 340.502 980.114 340.994 981.386C341.498 982.646 342.188 983.576 343.064 984.176C343.94 984.764 344.942 985.058 346.07 985.058C347.318 985.058 348.356 984.824 349.184 984.356C350.012 983.888 350.774 983.378 351.47 982.826L354.152 986.246C353.216 987.17 352.064 987.962 350.696 988.622C349.328 989.282 347.678 989.612 345.746 989.612C343.49 989.612 341.486 989.114 339.734 988.118C337.994 987.11 336.626 985.634 335.63 983.69C334.646 981.734 334.154 979.328 334.154 976.472C334.154 973.688 334.664 971.324 335.684 969.38C336.716 967.436 338.114 965.96 339.878 964.952C341.642 963.932 343.622 963.422 345.818 963.422ZM368.232 968.57V989H362.328V968.57H355.326V964.052H375.522L374.91 968.57H368.232ZM395.002 964.052V968.372H389.854V984.662H395.002V989H378.802V984.662H383.95V968.372H378.802V964.052H395.002ZM418.478 976.508C418.478 979.148 418.1 981.452 417.344 983.42C416.588 985.376 415.466 986.9 413.978 987.992C412.502 989.072 410.672 989.612 408.488 989.612C406.316 989.612 404.486 989.084 402.998 988.028C401.51 986.96 400.388 985.448 399.632 983.492C398.876 981.536 398.498 979.208 398.498 976.508C398.498 973.868 398.876 971.57 399.632 969.614C400.388 967.658 401.51 966.14 402.998 965.06C404.486 963.968 406.316 963.422 408.488 963.422C410.672 963.422 412.502 963.95 413.978 965.006C415.466 966.062 416.588 967.568 417.344 969.524C418.1 971.48 418.478 973.808 418.478 976.508ZM412.43 976.508C412.43 973.436 412.124 971.204 411.512 969.812C410.9 968.42 409.892 967.724 408.488 967.724C407.084 967.724 406.076 968.426 405.464 969.83C404.852 971.222 404.546 973.448 404.546 976.508C404.546 979.58 404.858 981.812 405.482 983.204C406.106 984.596 407.108 985.292 408.488 985.292C409.928 985.292 410.942 984.59 411.53 983.186C412.13 981.77 412.43 979.544 412.43 976.508ZM431.837 989L425.267 968.93C425.351 969.47 425.441 970.124 425.537 970.892C425.645 971.648 425.747 972.494 425.843 973.43C425.939 974.354 426.017 975.338 426.077 976.382C426.137 977.426 426.167 978.494 426.167 979.586V989H421.145V964.052H428.507L434.879 984.014C434.747 983.258 434.609 982.358 434.465 981.314C434.333 980.258 434.219 979.082 434.123 977.786C434.027 976.49 433.979 975.098 433.979 973.61V964.052H439.001V989H431.837ZM472.255 968.264V974.87H481.003V979.1H472.255V989H466.333V964.052H482.731L482.119 968.264H472.255ZM487.379 989V964.052H493.283V984.338H504.101L503.489 989H487.379ZM526.407 976.508C526.407 979.148 526.029 981.452 525.273 983.42C524.517 985.376 523.395 986.9 521.907 987.992C520.431 989.072 518.601 989.612 516.417 989.612C514.245 989.612 512.415 989.084 510.927 988.028C509.439 986.96 508.317 985.448 507.561 983.492C506.805 981.536 506.427 979.208 506.427 976.508C506.427 973.868 506.805 971.57 507.561 969.614C508.317 967.658 509.439 966.14 510.927 965.06C512.415 963.968 514.245 963.422 516.417 963.422C518.601 963.422 520.431 963.95 521.907 965.006C523.395 966.062 524.517 967.568 525.273 969.524C526.029 971.48 526.407 973.808 526.407 976.508ZM520.359 976.508C520.359 973.436 520.053 971.204 519.441 969.812C518.829 968.42 517.821 967.724 516.417 967.724C515.013 967.724 514.005 968.426 513.393 969.83C512.781 971.222 512.475 973.448 512.475 976.508C512.475 979.58 512.787 981.812 513.411 983.204C514.035 984.596 515.037 985.292 516.417 985.292C517.857 985.292 518.871 984.59 519.459 983.186C520.059 981.77 520.359 979.544 520.359 976.508ZM548.911 964.052L545.995 989H539.857L538.039 971.162L536.041 989H529.795L527.095 964.052H532.621L533.467 983.96L535.537 966.932H540.613L542.539 983.96L543.781 964.052H548.911ZM584.937 976.4C584.937 974.72 584.793 973.352 584.505 972.296C584.229 971.24 583.839 970.424 583.335 969.848C582.843 969.272 582.261 968.876 581.589 968.66C580.917 968.444 580.191 968.336 579.411 968.336H578.151V984.734H579.411C580.227 984.734 580.971 984.608 581.643 984.356C582.327 984.092 582.915 983.654 583.407 983.042C583.899 982.418 584.277 981.566 584.541 980.486C584.805 979.406 584.937 978.044 584.937 976.4ZM591.057 976.4C591.057 978.428 590.841 980.168 590.409 981.62C589.977 983.06 589.371 984.26 588.591 985.22C587.823 986.18 586.929 986.936 585.909 987.488C584.889 988.04 583.791 988.43 582.615 988.658C581.439 988.886 580.227 989 578.979 989H572.247V964.052H578.547C580.143 964.052 581.685 964.22 583.173 964.556C584.673 964.88 586.011 965.486 587.187 966.374C588.375 967.25 589.317 968.498 590.013 970.118C590.709 971.726 591.057 973.82 591.057 976.4ZM610.861 964.052V968.372H605.713V984.662H610.861V989H594.661V984.662H599.809V968.372H594.661V964.052H610.861ZM633.761 971.63C633.761 972.818 633.539 973.856 633.095 974.744C632.651 975.632 632.051 976.382 631.295 976.994C630.539 977.606 629.693 978.098 628.757 978.47L635.291 989H628.613L623.213 979.46H621.539V989H615.635V964.052H623.483C626.879 964.052 629.441 964.67 631.169 965.906C632.897 967.142 633.761 969.05 633.761 971.63ZM627.677 971.63C627.677 970.43 627.323 969.56 626.615 969.02C625.919 968.468 624.881 968.192 623.501 968.192H621.539V975.41H623.735C625.019 975.41 625.997 975.11 626.669 974.51C627.341 973.91 627.677 972.95 627.677 971.63ZM644.385 968.264V974.258H653.025V978.398H644.385V984.77H654.807V989H638.481V964.052H654.789L654.195 968.264H644.385ZM669.607 963.422C671.395 963.422 672.913 963.662 674.161 964.142C675.421 964.61 676.573 965.276 677.617 966.14L674.719 969.632C674.035 969.068 673.279 968.624 672.451 968.3C671.623 967.964 670.723 967.796 669.751 967.796C668.707 967.796 667.753 968.096 666.889 968.696C666.025 969.284 665.335 970.22 664.819 971.504C664.303 972.776 664.045 974.432 664.045 976.472C664.045 978.476 664.291 980.114 664.783 981.386C665.287 982.646 665.977 983.576 666.853 984.176C667.729 984.764 668.731 985.058 669.859 985.058C671.107 985.058 672.145 984.824 672.973 984.356C673.801 983.888 674.563 983.378 675.259 982.826L677.941 986.246C677.005 987.17 675.853 987.962 674.485 988.622C673.117 989.282 671.467 989.612 669.535 989.612C667.279 989.612 665.275 989.114 663.523 988.118C661.783 987.11 660.415 985.634 659.419 983.69C658.435 981.734 657.943 979.328 657.943 976.472C657.943 973.688 658.453 971.324 659.473 969.38C660.505 967.436 661.903 965.96 663.667 964.952C665.431 963.932 667.411 963.422 669.607 963.422ZM692.021 968.57V989H686.117V968.57H679.115V964.052H699.311L698.699 968.57H692.021ZM718.791 964.052V968.372H713.643V984.662H718.791V989H702.591V984.662H707.739V968.372H702.591V964.052H718.791ZM742.267 976.508C742.267 979.148 741.889 981.452 741.133 983.42C740.377 985.376 739.255 986.9 737.767 987.992C736.291 989.072 734.461 989.612 732.277 989.612C730.105 989.612 728.275 989.084 726.787 988.028C725.299 986.96 724.177 985.448 723.421 983.492C722.665 981.536 722.287 979.208 722.287 976.508C722.287 973.868 722.665 971.57 723.421 969.614C724.177 967.658 725.299 966.14 726.787 965.06C728.275 963.968 730.105 963.422 732.277 963.422C734.461 963.422 736.291 963.95 737.767 965.006C739.255 966.062 740.377 967.568 741.133 969.524C741.889 971.48 742.267 973.808 742.267 976.508ZM736.219 976.508C736.219 973.436 735.913 971.204 735.301 969.812C734.689 968.42 733.681 967.724 732.277 967.724C730.873 967.724 729.865 968.426 729.253 969.83C728.641 971.222 728.335 973.448 728.335 976.508C728.335 979.58 728.647 981.812 729.271 983.204C729.895 984.596 730.897 985.292 732.277 985.292C733.717 985.292 734.731 984.59 735.319 983.186C735.919 981.77 736.219 979.544 736.219 976.508ZM755.627 989L749.057 968.93C749.141 969.47 749.231 970.124 749.327 970.892C749.435 971.648 749.537 972.494 749.633 973.43C749.729 974.354 749.807 975.338 749.867 976.382C749.927 977.426 749.957 978.494 749.957 979.586V989H744.935V964.052H752.297L758.669 984.014C758.537 983.258 758.399 982.358 758.255 981.314C758.123 980.258 758.009 979.082 757.913 977.786C757.817 976.49 757.769 975.098 757.769 973.61V964.052H762.791V989H755.627Z" fill="#041BB0"/>
<path d="M883.536 1022.54C885.488 1020.58 885.488 1017.42 883.536 1015.46L851.716 983.645C849.763 981.692 846.597 981.692 844.645 983.645C842.692 985.597 842.692 988.763 844.645 990.716L872.929 1019L844.645 1047.28C842.692 1049.24 842.692 1052.4 844.645 1054.36C846.597 1056.31 849.763 1056.31 851.716 1054.36L883.536 1022.54ZM241.014 1024C243.776 1024 246.014 1021.76 246.014 1019C246.014 1016.24 243.776 1014 241.014 1014V1024ZM262.367 1014C259.605 1014 257.367 1016.24 257.367 1019C257.367 1021.76 259.605 1024 262.367 1024V1014ZM294.395 1024C297.157 1024 299.395 1021.76 299.395 1019C299.395 1016.24 297.157 1014 294.395 1014V1024ZM315.748 1014C312.986 1014 310.748 1016.24 310.748 1019C310.748 1021.76 312.986 1024 315.748 1024V1014ZM347.776 1024C350.538 1024 352.776 1021.76 352.776 1019C352.776 1016.24 350.538 1014 347.776 1014V1024ZM369.129 1014C366.367 1014 364.129 1016.24 364.129 1019C364.129 1021.76 366.367 1024 369.129 1024V1014ZM401.157 1024C403.919 1024 406.157 1021.76 406.157 1019C406.157 1016.24 403.919 1014 401.157 1014V1024ZM422.51 1014C419.748 1014 417.51 1016.24 417.51 1019C417.51 1021.76 419.748 1024 422.51 1024V1014ZM453.24 1024C456.002 1024 458.24 1021.76 458.24 1019C458.24 1016.24 456.002 1014 453.24 1014V1024ZM472.861 1014C470.1 1014 467.861 1016.24 467.861 1019C467.861 1021.76 470.1 1024 472.861 1024V1014ZM502.293 1024C505.054 1024 507.293 1021.76 507.293 1019C507.293 1016.24 505.054 1014 502.293 1014V1024ZM521.914 1014C519.153 1014 516.914 1016.24 516.914 1019C516.914 1021.76 519.153 1024 521.914 1024V1014ZM551.346 1024C554.107 1024 556.346 1021.76 556.346 1019C556.346 1016.24 554.107 1014 551.346 1014V1024ZM570.967 1014C568.206 1014 565.967 1016.24 565.967 1019C565.967 1021.76 568.206 1024 570.967 1024V1014ZM600.399 1024C603.16 1024 605.399 1021.76 605.399 1019C605.399 1016.24 603.16 1014 600.399 1014V1024ZM620.02 1014C617.258 1014 615.02 1016.24 615.02 1019C615.02 1021.76 617.258 1024 620.02 1024V1014ZM649.452 1024C652.213 1024 654.452 1021.76 654.452 1019C654.452 1016.24 652.213 1014 649.452 1014V1024ZM669.073 1014C666.311 1014 664.073 1016.24 664.073 1019C664.073 1021.76 666.311 1024 669.073 1024V1014ZM698.504 1024C701.266 1024 703.504 1021.76 703.504 1019C703.504 1016.24 701.266 1014 698.504 1014V1024ZM718.126 1014C715.364 1014 713.126 1016.24 713.126 1019C713.126 1021.76 715.364 1024 718.126 1024V1014ZM747.557 1024C750.319 1024 752.557 1021.76 752.557 1019C752.557 1016.24 750.319 1014 747.557 1014V1024ZM767.178 1014C764.417 1014 762.178 1016.24 762.178 1019C762.178 1021.76 764.417 1024 767.178 1024V1014ZM796.61 1024C799.372 1024 801.61 1021.76 801.61 1019C801.61 1016.24 799.372 1014 796.61 1014V1024ZM816.231 1014C813.47 1014 811.231 1016.24 811.231 1019C811.231 1021.76 813.47 1024 816.231 1024V1014ZM845.663 1024C848.424 1024 850.663 1021.76 850.663 1019C850.663 1016.24 848.424 1014 845.663 1014V1024ZM865.284 1014C862.523 1014 860.284 1016.24 860.284 1019C860.284 1021.76 862.523 1024 865.284 1024V1014ZM225 1019V1024H241.014V1019V1014H225V1019ZM262.367 1019V1024H294.395V1019V1014H262.367V1019ZM315.748 1019V1024H347.776V1019V1014H315.748V1019ZM369.129 1019V1024H401.157V1019V1014H369.129V1019ZM422.51 1019V1024H438.524V1019V1014H422.51V1019ZM438.524 1019V1024H453.24V1019V1014H438.524V1019ZM472.861 1019V1024H502.293V1019V1014H472.861V1019ZM521.914 1019V1024H551.346V1019V1014H521.914V1019ZM570.967 1019V1024H600.399V1019V1014H570.967V1019ZM620.02 1019V1024H649.452V1019V1014H620.02V1019ZM669.073 1019V1024H698.504V1019V1014H669.073V1019ZM718.126 1019V1024H747.557V1019V1014H718.126V1019ZM767.178 1019V1024H796.61V1019V1014H767.178V1019ZM816.231 1019V1024H845.663V1019V1014H816.231V1019ZM865.284 1019V1024H880V1019V1014H865.284V1019Z" fill="#041BB0"/>
<path d="M239.67 972.188C239.67 971.3 239.502 970.568 239.166 969.992C238.842 969.404 238.344 968.972 237.672 968.696C237.012 968.408 236.178 968.264 235.17 968.264H233.154V976.418H235.476C236.352 976.418 237.102 976.268 237.726 975.968C238.35 975.668 238.83 975.206 239.166 974.582C239.502 973.958 239.67 973.16 239.67 972.188ZM245.754 972.17C245.754 974.102 245.34 975.698 244.512 976.958C243.684 978.218 242.526 979.16 241.038 979.784C239.55 980.396 237.822 980.702 235.854 980.702H233.154V989H227.25V964.052H235.098C238.482 964.052 241.104 964.724 242.964 966.068C244.824 967.412 245.754 969.446 245.754 972.17ZM266.8 971.63C266.8 972.818 266.578 973.856 266.134 974.744C265.69 975.632 265.09 976.382 264.334 976.994C263.578 977.606 262.732 978.098 261.796 978.47L268.33 989H261.652L256.252 979.46H254.578V989H248.674V964.052H256.522C259.918 964.052 262.48 964.67 264.208 965.906C265.936 967.142 266.8 969.05 266.8 971.63ZM260.716 971.63C260.716 970.43 260.362 969.56 259.654 969.02C258.958 968.468 257.92 968.192 256.54 968.192H254.578V975.41H256.774C258.058 975.41 259.036 975.11 259.708 974.51C260.38 973.91 260.716 972.95 260.716 971.63ZM288.962 976.508C288.962 979.148 288.584 981.452 287.828 983.42C287.072 985.376 285.95 986.9 284.462 987.992C282.986 989.072 281.156 989.612 278.972 989.612C276.8 989.612 274.97 989.084 273.482 988.028C271.994 986.96 270.872 985.448 270.116 983.492C269.36 981.536 268.982 979.208 268.982 976.508C268.982 973.868 269.36 971.57 270.116 969.614C270.872 967.658 271.994 966.14 273.482 965.06C274.97 963.968 276.8 963.422 278.972 963.422C281.156 963.422 282.986 963.95 284.462 965.006C285.95 966.062 287.072 967.568 287.828 969.524C288.584 971.48 288.962 973.808 288.962 976.508ZM282.914 976.508C282.914 973.436 282.608 971.204 281.996 969.812C281.384 968.42 280.376 967.724 278.972 967.724C277.568 967.724 276.56 968.426 275.948 969.83C275.336 971.222 275.03 973.448 275.03 976.508C275.03 979.58 275.342 981.812 275.966 983.204C276.59 984.596 277.592 985.292 278.972 985.292C280.412 985.292 281.426 984.59 282.014 983.186C282.614 981.77 282.914 979.544 282.914 976.508ZM304.32 976.4C304.32 974.72 304.176 973.352 303.888 972.296C303.612 971.24 303.222 970.424 302.718 969.848C302.226 969.272 301.644 968.876 300.972 968.66C300.3 968.444 299.574 968.336 298.794 968.336H297.534V984.734H298.794C299.61 984.734 300.354 984.608 301.026 984.356C301.71 984.092 302.298 983.654 302.79 983.042C303.282 982.418 303.66 981.566 303.924 980.486C304.188 979.406 304.32 978.044 304.32 976.4ZM310.44 976.4C310.44 978.428 310.224 980.168 309.792 981.62C309.36 983.06 308.754 984.26 307.974 985.22C307.206 986.18 306.312 986.936 305.292 987.488C304.272 988.04 303.174 988.43 301.998 988.658C300.822 988.886 299.61 989 298.362 989H291.63V964.052H297.93C299.526 964.052 301.068 964.22 302.556 964.556C304.056 964.88 305.394 965.486 306.57 966.374C307.758 967.25 308.7 968.498 309.396 970.118C310.092 971.726 310.44 973.82 310.44 976.4ZM331.432 964.052V980.648C331.432 982.352 331.084 983.882 330.388 985.238C329.704 986.582 328.672 987.65 327.292 988.442C325.924 989.222 324.208 989.612 322.144 989.612C320.068 989.612 318.34 989.234 316.96 988.478C315.592 987.722 314.566 986.672 313.882 985.328C313.198 983.984 312.856 982.424 312.856 980.648V964.052H318.778V978.452C318.778 980.696 318.982 982.388 319.39 983.528C319.798 984.656 320.716 985.22 322.144 985.22C323.572 985.22 324.49 984.656 324.898 983.528C325.306 982.388 325.51 980.696 325.51 978.452V964.052H331.432ZM345.818 963.422C347.606 963.422 349.124 963.662 350.372 964.142C351.632 964.61 352.784 965.276 353.828 966.14L350.93 969.632C350.246 969.068 349.49 968.624 348.662 968.3C347.834 967.964 346.934 967.796 345.962 967.796C344.918 967.796 343.964 968.096 343.1 968.696C342.236 969.284 341.546 970.22 341.03 971.504C340.514 972.776 340.256 974.432 340.256 976.472C340.256 978.476 340.502 980.114 340.994 981.386C341.498 982.646 342.188 983.576 343.064 984.176C343.94 984.764 344.942 985.058 346.07 985.058C347.318 985.058 348.356 984.824 349.184 984.356C350.012 983.888 350.774 983.378 351.47 982.826L354.152 986.246C353.216 987.17 352.064 987.962 350.696 988.622C349.328 989.282 347.678 989.612 345.746 989.612C343.49 989.612 341.486 989.114 339.734 988.118C337.994 987.11 336.626 985.634 335.63 983.69C334.646 981.734 334.154 979.328 334.154 976.472C334.154 973.688 334.664 971.324 335.684 969.38C336.716 967.436 338.114 965.96 339.878 964.952C341.642 963.932 343.622 963.422 345.818 963.422ZM368.232 968.57V989H362.328V968.57H355.326V964.052H375.522L374.91 968.57H368.232ZM395.002 964.052V968.372H389.854V984.662H395.002V989H378.802V984.662H383.95V968.372H378.802V964.052H395.002ZM418.478 976.508C418.478 979.148 418.1 981.452 417.344 983.42C416.588 985.376 415.466 986.9 413.978 987.992C412.502 989.072 410.672 989.612 408.488 989.612C406.316 989.612 404.486 989.084 402.998 988.028C401.51 986.96 400.388 985.448 399.632 983.492C398.876 981.536 398.498 979.208 398.498 976.508C398.498 973.868 398.876 971.57 399.632 969.614C400.388 967.658 401.51 966.14 402.998 965.06C404.486 963.968 406.316 963.422 408.488 963.422C410.672 963.422 412.502 963.95 413.978 965.006C415.466 966.062 416.588 967.568 417.344 969.524C418.1 971.48 418.478 973.808 418.478 976.508ZM412.43 976.508C412.43 973.436 412.124 971.204 411.512 969.812C410.9 968.42 409.892 967.724 408.488 967.724C407.084 967.724 406.076 968.426 405.464 969.83C404.852 971.222 404.546 973.448 404.546 976.508C404.546 979.58 404.858 981.812 405.482 983.204C406.106 984.596 407.108 985.292 408.488 985.292C409.928 985.292 410.942 984.59 411.53 983.186C412.13 981.77 412.43 979.544 412.43 976.508ZM431.837 989L425.267 968.93C425.351 969.47 425.441 970.124 425.537 970.892C425.645 971.648 425.747 972.494 425.843 973.43C425.939 974.354 426.017 975.338 426.077 976.382C426.137 977.426 426.167 978.494 426.167 979.586V989H421.145V964.052H428.507L434.879 984.014C434.747 983.258 434.609 982.358 434.465 981.314C434.333 980.258 434.219 979.082 434.123 977.786C434.027 976.49 433.979 975.098 433.979 973.61V964.052H439.001V989H431.837ZM472.255 968.264V974.87H481.003V979.1H472.255V989H466.333V964.052H482.731L482.119 968.264H472.255ZM487.379 989V964.052H493.283V984.338H504.101L503.489 989H487.379ZM526.407 976.508C526.407 979.148 526.029 981.452 525.273 983.42C524.517 985.376 523.395 986.9 521.907 987.992C520.431 989.072 518.601 989.612 516.417 989.612C514.245 989.612 512.415 989.084 510.927 988.028C509.439 986.96 508.317 985.448 507.561 983.492C506.805 981.536 506.427 979.208 506.427 976.508C506.427 973.868 506.805 971.57 507.561 969.614C508.317 967.658 509.439 966.14 510.927 965.06C512.415 963.968 514.245 963.422 516.417 963.422C518.601 963.422 520.431 963.95 521.907 965.006C523.395 966.062 524.517 967.568 525.273 969.524C526.029 971.48 526.407 973.808 526.407 976.508ZM520.359 976.508C520.359 973.436 520.053 971.204 519.441 969.812C518.829 968.42 517.821 967.724 516.417 967.724C515.013 967.724 514.005 968.426 513.393 969.83C512.781 971.222 512.475 973.448 512.475 976.508C512.475 979.58 512.787 981.812 513.411 983.204C514.035 984.596 515.037 985.292 516.417 985.292C517.857 985.292 518.871 984.59 519.459 983.186C520.059 981.77 520.359 979.544 520.359 976.508ZM548.911 964.052L545.995 989H539.857L538.039 971.162L536.041 989H529.795L527.095 964.052H532.621L533.467 983.96L535.537 966.932H540.613L542.539 983.96L543.781 964.052H548.911ZM584.937 976.4C584.937 974.72 584.793 973.352 584.505 972.296C584.229 971.24 583.839 970.424 583.335 969.848C582.843 969.272 582.261 968.876 581.589 968.66C580.917 968.444 580.191 968.336 579.411 968.336H578.151V984.734H579.411C580.227 984.734 580.971 984.608 581.643 984.356C582.327 984.092 582.915 983.654 583.407 983.042C583.899 982.418 584.277 981.566 584.541 980.486C584.805 979.406 584.937 978.044 584.937 976.4ZM591.057 976.4C591.057 978.428 590.841 980.168 590.409 981.62C589.977 983.06 589.371 984.26 588.591 985.22C587.823 986.18 586.929 986.936 585.909 987.488C584.889 988.04 583.791 988.43 582.615 988.658C581.439 988.886 580.227 989 578.979 989H572.247V964.052H578.547C580.143 964.052 581.685 964.22 583.173 964.556C584.673 964.88 586.011 965.486 587.187 966.374C588.375 967.25 589.317 968.498 590.013 970.118C590.709 971.726 591.057 973.82 591.057 976.4ZM610.861 964.052V968.372H605.713V984.662H610.861V989H594.661V984.662H599.809V968.372H594.661V964.052H610.861ZM633.761 971.63C633.761 972.818 633.539 973.856 633.095 974.744C632.651 975.632 632.051 976.382 631.295 976.994C630.539 977.606 629.693 978.098 628.757 978.47L635.291 989H628.613L623.213 979.46H621.539V989H615.635V964.052H623.483C626.879 964.052 629.441 964.67 631.169 965.906C632.897 967.142 633.761 969.05 633.761 971.63ZM627.677 971.63C627.677 970.43 627.323 969.56 626.615 969.02C625.919 968.468 624.881 968.192 623.501 968.192H621.539V975.41H623.735C625.019 975.41 625.997 975.11 626.669 974.51C627.341 973.91 627.677 972.95 627.677 971.63ZM644.385 968.264V974.258H653.025V978.398H644.385V984.77H654.807V989H638.481V964.052H654.789L654.195 968.264H644.385ZM669.607 963.422C671.395 963.422 672.913 963.662 674.161 964.142C675.421 964.61 676.573 965.276 677.617 966.14L674.719 969.632C674.035 969.068 673.279 968.624 672.451 968.3C671.623 967.964 670.723 967.796 669.751 967.796C668.707 967.796 667.753 968.096 666.889 968.696C666.025 969.284 665.335 970.22 664.819 971.504C664.303 972.776 664.045 974.432 664.045 976.472C664.045 978.476 664.291 980.114 664.783 981.386C665.287 982.646 665.977 983.576 666.853 984.176C667.729 984.764 668.731 985.058 669.859 985.058C671.107 985.058 672.145 984.824 672.973 984.356C673.801 983.888 674.563 983.378 675.259 982.826L677.941 986.246C677.005 987.17 675.853 987.962 674.485 988.622C673.117 989.282 671.467 989.612 669.535 989.612C667.279 989.612 665.275 989.114 663.523 988.118C661.783 987.11 660.415 985.634 659.419 983.69C658.435 981.734 657.943 979.328 657.943 976.472C657.943 973.688 658.453 971.324 659.473 969.38C660.505 967.436 661.903 965.96 663.667 964.952C665.431 963.932 667.411 963.422 669.607 963.422ZM692.021 968.57V989H686.117V968.57H679.115V964.052H699.311L698.699 968.57H692.021ZM718.791 964.052V968.372H713.643V984.662H718.791V989H702.591V984.662H707.739V968.372H702.591V964.052H718.791ZM742.267 976.508C742.267 979.148 741.889 981.452 741.133 983.42C740.377 985.376 739.255 986.9 737.767 987.992C736.291 989.072 734.461 989.612 732.277 989.612C730.105 989.612 728.275 989.084 726.787 988.028C725.299 986.96 724.177 985.448 723.421 983.492C722.665 981.536 722.287 979.208 722.287 976.508C722.287 973.868 722.665 971.57 723.421 969.614C724.177 967.658 725.299 966.14 726.787 965.06C728.275 963.968 730.105 963.422 732.277 963.422C734.461 963.422 736.291 963.95 737.767 965.006C739.255 966.062 740.377 967.568 741.133 969.524C741.889 971.48 742.267 973.808 742.267 976.508ZM736.219 976.508C736.219 973.436 735.913 971.204 735.301 969.812C734.689 968.42 733.681 967.724 732.277 967.724C730.873 967.724 729.865 968.426 729.253 969.83C728.641 971.222 728.335 973.448 728.335 976.508C728.335 979.58 728.647 981.812 729.271 983.204C729.895 984.596 730.897 985.292 732.277 985.292C733.717 985.292 734.731 984.59 735.319 983.186C735.919 981.77 736.219 979.544 736.219 976.508ZM755.627 989L749.057 968.93C749.141 969.47 749.231 970.124 749.327 970.892C749.435 971.648 749.537 972.494 749.633 973.43C749.729 974.354 749.807 975.338 749.867 976.382C749.927 977.426 749.957 978.494 749.957 979.586V989H744.935V964.052H752.297L758.669 984.014C758.537 983.258 758.399 982.358 758.255 981.314C758.123 980.258 758.009 979.082 757.913 977.786C757.817 976.49 757.769 975.098 757.769 973.61V964.052H762.791V989H755.627Z" fill="#041BB0"/>
<rect width="50" height="50" transform="matrix(0 1 -1 0 275 1060)" fill="#DBDFFF"/>
<rect x="274" y="1061" width="48" height="48" transform="rotate(90 274 1061)" stroke="black" stroke-width="2"/>
<path d="M255.506 1081.08L254.444 1089.06H257.36V1091.4H254.102L253.346 1097.5H250.754L251.564 1091.4H246.326L245.534 1097.5H242.942L243.752 1091.4H240.908V1089.06H244.058L245.156 1081.08H242.24V1078.73H245.462L246.254 1072.71H248.846L247.982 1078.73H253.274L254.066 1072.71H256.658L255.812 1078.73H258.692V1081.08H255.506ZM246.632 1089.06H251.87L252.968 1081.08H247.694L246.632 1089.06Z" fill="black"/>
<path d="M318.314 1091.14C318.314 1092.56 317.96 1093.82 317.252 1094.92C316.544 1096.01 315.518 1096.87 314.174 1097.5C312.83 1098.11 311.192 1098.41 309.26 1098.41C307.448 1098.41 305.804 1098.14 304.328 1097.59C302.864 1097.03 301.61 1096.25 300.566 1095.25L302.42 1093.16C303.284 1093.96 304.274 1094.6 305.39 1095.08C306.506 1095.55 307.814 1095.79 309.314 1095.79C310.322 1095.79 311.264 1095.62 312.14 1095.3C313.016 1094.96 313.724 1094.46 314.264 1093.79C314.804 1093.1 315.074 1092.24 315.074 1091.2C315.074 1090.39 314.918 1089.71 314.606 1089.14C314.294 1088.58 313.742 1088.08 312.95 1087.65C312.158 1087.21 311.054 1086.77 309.638 1086.35C308.006 1085.87 306.59 1085.33 305.39 1084.73C304.202 1084.12 303.278 1083.37 302.618 1082.48C301.97 1081.6 301.646 1080.5 301.646 1079.19C301.646 1077.95 301.988 1076.86 302.672 1075.9C303.356 1074.94 304.298 1074.19 305.498 1073.65C306.71 1073.09 308.102 1072.82 309.674 1072.82C311.39 1072.82 312.878 1073.06 314.138 1073.56C315.41 1074.04 316.562 1074.73 317.594 1075.64L315.758 1077.68C314.87 1076.89 313.916 1076.32 312.896 1075.97C311.876 1075.61 310.838 1075.43 309.782 1075.43C308.882 1075.43 308.054 1075.57 307.298 1075.84C306.554 1076.11 305.954 1076.51 305.498 1077.05C305.054 1077.58 304.832 1078.25 304.832 1079.08C304.832 1079.79 305.024 1080.4 305.408 1080.92C305.792 1081.43 306.44 1081.91 307.352 1082.34C308.264 1082.76 309.506 1083.2 311.078 1083.67C312.362 1084.04 313.55 1084.51 314.642 1085.08C315.746 1085.63 316.634 1086.38 317.306 1087.34C317.978 1088.29 318.314 1089.56 318.314 1091.14ZM339.252 1097.05C338.604 1097.48 337.818 1097.81 336.894 1098.05C335.97 1098.29 335.064 1098.41 334.176 1098.41C332.136 1098.41 330.564 1097.88 329.46 1096.81C328.356 1095.74 327.804 1094.37 327.804 1092.69V1081.39H323.448V1079.05H327.804V1074.74L330.828 1074.38V1079.05H337.38L337.02 1081.39H330.828V1092.65C330.828 1093.71 331.104 1094.51 331.656 1095.07C332.22 1095.62 333.15 1095.89 334.446 1095.89C335.154 1095.89 335.808 1095.81 336.408 1095.64C337.008 1095.47 337.566 1095.26 338.082 1094.99L339.252 1097.05ZM359.362 1093.86C359.362 1094.62 359.488 1095.17 359.74 1095.52C359.992 1095.86 360.382 1096.12 360.91 1096.29L360.172 1098.41C359.356 1098.31 358.642 1098.05 358.03 1097.64C357.418 1097.22 356.974 1096.59 356.698 1095.75C356.014 1096.63 355.162 1097.29 354.142 1097.75C353.122 1098.19 351.994 1098.41 350.758 1098.41C348.862 1098.41 347.368 1097.88 346.276 1096.81C345.184 1095.74 344.638 1094.33 344.638 1092.56C344.638 1090.61 345.4 1089.11 346.924 1088.06C348.448 1087.02 350.65 1086.5 353.53 1086.5H356.32V1084.91C356.32 1083.55 355.918 1082.58 355.114 1082.02C354.322 1081.44 353.218 1081.15 351.802 1081.15C351.178 1081.15 350.446 1081.23 349.606 1081.39C348.766 1081.53 347.854 1081.78 346.87 1082.12L346.078 1079.84C347.242 1079.41 348.334 1079.1 349.354 1078.92C350.374 1078.74 351.346 1078.65 352.27 1078.65C354.634 1078.65 356.404 1079.2 357.58 1080.31C358.768 1081.4 359.362 1082.89 359.362 1084.77V1093.86ZM351.532 1096.11C352.468 1096.11 353.362 1095.88 354.214 1095.41C355.066 1094.93 355.768 1094.27 356.32 1093.43V1088.55H353.584C351.496 1088.55 350.02 1088.91 349.156 1089.63C348.304 1090.35 347.878 1091.32 347.878 1092.53C347.878 1093.7 348.178 1094.6 348.778 1095.21C349.39 1095.81 350.308 1096.11 351.532 1096.11ZM382.424 1097.05C381.776 1097.48 380.99 1097.81 380.066 1098.05C379.142 1098.29 378.236 1098.41 377.348 1098.41C375.308 1098.41 373.736 1097.88 372.632 1096.81C371.528 1095.74 370.976 1094.37 370.976 1092.69V1081.39H366.62V1079.05H370.976V1074.74L374 1074.38V1079.05H380.552L380.192 1081.39H374V1092.65C374 1093.71 374.276 1094.51 374.828 1095.07C375.392 1095.62 376.322 1095.89 377.618 1095.89C378.326 1095.89 378.98 1095.81 379.58 1095.64C380.18 1095.47 380.738 1095.26 381.254 1094.99L382.424 1097.05ZM398.556 1079.05V1095.61H403.902V1098H389.682V1095.61H395.532V1081.44H389.862V1079.05H398.556ZM396.144 1070.17C396.816 1070.17 397.35 1070.38 397.746 1070.78C398.154 1071.19 398.358 1071.69 398.358 1072.28C398.358 1072.89 398.154 1073.41 397.746 1073.83C397.35 1074.23 396.816 1074.44 396.144 1074.44C395.508 1074.44 394.986 1074.23 394.578 1073.83C394.17 1073.41 393.966 1072.89 393.966 1072.28C393.966 1071.69 394.17 1071.19 394.578 1070.78C394.986 1070.38 395.508 1070.17 396.144 1070.17ZM417.766 1078.65C419.554 1078.65 421.048 1079.06 422.248 1079.87C423.46 1080.68 424.366 1081.82 424.966 1083.29C425.578 1084.77 425.884 1086.51 425.884 1088.51C425.884 1090.45 425.572 1092.16 424.948 1093.64C424.324 1095.13 423.406 1096.3 422.194 1097.15C420.994 1097.99 419.506 1098.41 417.73 1098.41C415.954 1098.41 414.46 1098.01 413.248 1097.19C412.036 1096.37 411.118 1095.23 410.494 1093.75C409.882 1092.26 409.576 1090.53 409.576 1088.55C409.576 1086.59 409.888 1084.87 410.512 1083.38C411.136 1081.9 412.054 1080.74 413.266 1079.91C414.49 1079.07 415.99 1078.65 417.766 1078.65ZM417.766 1081.12C416.134 1081.12 414.898 1081.72 414.058 1082.93C413.23 1084.13 412.816 1086.01 412.816 1088.55C412.816 1091.05 413.224 1092.9 414.04 1094.11C414.868 1095.32 416.098 1095.93 417.73 1095.93C419.362 1095.93 420.586 1095.32 421.402 1094.11C422.23 1092.9 422.644 1091.03 422.644 1088.51C422.644 1085.99 422.236 1084.13 421.42 1082.93C420.604 1081.72 419.386 1081.12 417.766 1081.12ZM432.134 1098V1079.05H434.708L434.942 1081.67C435.71 1080.7 436.67 1079.96 437.822 1079.44C438.986 1078.91 440.114 1078.65 441.206 1078.65C443.066 1078.65 444.416 1079.14 445.256 1080.13C446.108 1081.11 446.534 1082.48 446.534 1084.23V1098H443.51V1086.46C443.51 1085.17 443.438 1084.12 443.294 1083.33C443.15 1082.53 442.85 1081.94 442.394 1081.58C441.938 1081.21 441.23 1081.03 440.27 1081.03C439.526 1081.03 438.824 1081.19 438.164 1081.51C437.516 1081.84 436.934 1082.24 436.418 1082.74C435.914 1083.22 435.494 1083.7 435.158 1084.19V1098H432.134ZM485.908 1098L477.178 1076.2C477.19 1076.48 477.214 1076.94 477.25 1077.59C477.298 1078.22 477.346 1078.99 477.394 1079.87C477.454 1080.75 477.502 1081.68 477.538 1082.66C477.574 1083.65 477.592 1084.62 477.592 1085.58V1098H474.694V1073.21H478.924L487.798 1095.1C487.786 1094.75 487.744 1094.12 487.672 1093.19C487.6 1092.26 487.534 1091.13 487.474 1089.81C487.414 1088.49 487.384 1087.09 487.384 1085.62V1073.21H490.281V1098H485.908ZM499.915 1079.05V1092.47C499.915 1093.72 500.173 1094.62 500.689 1095.17C501.205 1095.73 502.009 1096 503.101 1096C504.145 1096 505.129 1095.71 506.053 1095.12C506.989 1094.52 507.715 1093.81 508.231 1093V1079.05H511.255V1098H508.681L508.429 1095.44C507.685 1096.4 506.767 1097.14 505.675 1097.66C504.583 1098.16 503.479 1098.41 502.363 1098.41C500.527 1098.41 499.153 1097.93 498.241 1096.96C497.341 1095.97 496.891 1094.6 496.891 1092.83V1079.05H499.915ZM530.969 1078.65C531.581 1078.65 532.163 1078.78 532.715 1079.05C533.279 1079.31 533.741 1079.82 534.101 1080.58C534.461 1081.33 534.641 1082.44 534.641 1083.89V1098H531.833V1084.37C531.833 1083.19 531.761 1082.33 531.617 1081.8C531.473 1081.27 531.059 1081.01 530.375 1081.01C529.811 1081.01 529.247 1081.19 528.683 1081.55C528.131 1081.9 527.591 1082.47 527.063 1083.28V1098H524.237V1084.37C524.237 1083.19 524.165 1082.33 524.021 1081.8C523.877 1081.27 523.463 1081.01 522.779 1081.01C522.191 1081.01 521.621 1081.19 521.069 1081.55C520.529 1081.9 519.995 1082.47 519.467 1083.28V1098H516.677V1079.05H519.053L519.233 1081.24C519.749 1080.51 520.325 1079.9 520.961 1079.41C521.609 1078.9 522.407 1078.65 523.355 1078.65C524.075 1078.65 524.753 1078.82 525.389 1079.17C526.025 1079.51 526.493 1080.17 526.793 1081.15C527.309 1080.41 527.891 1079.81 528.539 1079.35C529.187 1078.88 529.997 1078.65 530.969 1078.65ZM543.087 1081.51C543.783 1080.6 544.581 1079.9 545.481 1079.41C546.393 1078.9 547.395 1078.65 548.487 1078.65C550.179 1078.65 551.547 1079.06 552.591 1079.87C553.635 1080.69 554.397 1081.84 554.877 1083.33C555.357 1084.81 555.597 1086.53 555.597 1088.51C555.597 1090.42 555.309 1092.13 554.733 1093.63C554.157 1095.11 553.311 1096.28 552.195 1097.14C551.091 1097.99 549.723 1098.41 548.091 1098.41C545.895 1098.41 544.173 1097.62 542.925 1096.04L542.709 1098H540.063V1071.41L543.087 1071.04V1081.51ZM547.371 1095.97C548.955 1095.97 550.173 1095.35 551.025 1094.13C551.877 1092.91 552.303 1091.03 552.303 1088.5C552.303 1086.84 552.135 1085.47 551.799 1084.37C551.463 1083.27 550.959 1082.45 550.287 1081.91C549.627 1081.36 548.811 1081.08 547.839 1081.08C546.783 1081.08 545.853 1081.4 545.049 1082.03C544.257 1082.66 543.603 1083.35 543.087 1084.12V1093.52C543.579 1094.26 544.197 1094.86 544.941 1095.3C545.697 1095.74 546.507 1095.97 547.371 1095.97ZM564.025 1089.59C564.085 1091.06 564.367 1092.26 564.871 1093.19C565.375 1094.12 566.041 1094.8 566.869 1095.25C567.697 1095.68 568.597 1095.89 569.569 1095.89C570.541 1095.89 571.417 1095.75 572.197 1095.46C572.989 1095.17 573.799 1094.75 574.627 1094.18L576.049 1096.18C575.161 1096.88 574.147 1097.42 573.007 1097.82C571.879 1098.22 570.721 1098.41 569.533 1098.41C567.697 1098.41 566.131 1098 564.835 1097.17C563.539 1096.34 562.549 1095.19 561.865 1093.72C561.193 1092.23 560.857 1090.51 560.857 1088.55C560.857 1086.63 561.199 1084.93 561.883 1083.44C562.567 1081.95 563.527 1080.78 564.763 1079.93C565.999 1079.08 567.457 1078.65 569.137 1078.65C570.733 1078.65 572.107 1079.03 573.259 1079.78C574.411 1080.53 575.293 1081.6 575.905 1082.99C576.529 1084.37 576.841 1086.02 576.841 1087.94C576.841 1088.26 576.835 1088.57 576.823 1088.86C576.811 1089.13 576.793 1089.38 576.769 1089.59H564.025ZM569.173 1081.13C567.769 1081.13 566.593 1081.63 565.645 1082.63C564.709 1083.62 564.175 1085.17 564.043 1087.25H573.925C573.889 1085.23 573.445 1083.7 572.593 1082.68C571.741 1081.65 570.601 1081.13 569.173 1081.13ZM583.415 1098V1095.68H586.367V1081.37H583.415V1079.05H588.671L589.229 1083.53C589.961 1081.97 590.849 1080.76 591.893 1079.91C592.937 1079.06 594.317 1078.63 596.033 1078.63C596.561 1078.63 597.029 1078.67 597.437 1078.76C597.857 1078.83 598.283 1078.93 598.715 1079.05L597.833 1081.75C597.437 1081.64 597.077 1081.56 596.753 1081.51C596.429 1081.45 596.057 1081.42 595.637 1081.42C594.185 1081.42 592.937 1081.94 591.893 1082.97C590.849 1084 590.015 1085.56 589.391 1087.65V1095.68H593.243V1098H583.415ZM595.799 1085.45V1081.33L596.105 1079.05H598.715L598.283 1085.45H595.799Z" fill="black"/>
</g>
<defs>
<clipPath id="clip0_94_332">
<rect width="1500" height="1216" fill="white"/>
</clipPath>
</defs>
</svg>
