<svg width="1500" height="1216" viewBox="0 0 1500 1216" fill="none" xmlns="http://www.w3.org/2000/svg">
<rect width="1500" height="1216" fill="white"/>
<path d="M581.776 325.844C585.352 325.844 588.388 326.324 590.884 327.284C593.404 328.22 595.708 329.552 597.796 331.28L592 338.264C590.632 337.136 589.12 336.248 587.464 335.6C585.808 334.928 584.008 334.592 582.064 334.592C579.976 334.592 578.068 335.192 576.34 336.392C574.612 337.568 573.232 339.44 572.2 342.008C571.168 344.552 570.652 347.864 570.652 351.944C570.652 355.952 571.144 359.228 572.128 361.772C573.136 364.292 574.516 366.152 576.268 367.352C578.02 368.528 580.024 369.116 582.28 369.116C584.776 369.116 586.852 368.648 588.508 367.712C590.164 366.776 591.688 365.756 593.08 364.652L598.444 371.492C596.572 373.34 594.268 374.924 591.532 376.244C588.796 377.564 585.496 378.224 581.632 378.224C577.12 378.224 573.112 377.228 569.608 375.236C566.128 373.22 563.392 370.268 561.4 366.38C559.432 362.468 558.448 357.656 558.448 351.944C558.448 346.376 559.468 341.648 561.508 337.76C563.572 333.872 566.368 330.92 569.896 328.904C573.424 326.864 577.384 325.844 581.776 325.844ZM615.588 322.46V342.548C617.196 340.844 618.936 339.584 620.808 338.768C622.704 337.928 624.708 337.508 626.82 337.508C630.228 337.508 632.832 338.504 634.632 340.496C636.432 342.488 637.332 345.296 637.332 348.92V377H625.956V352.088C625.956 349.784 625.692 348.176 625.164 347.264C624.66 346.352 623.7 345.896 622.284 345.896C621.492 345.896 620.712 346.088 619.944 346.472C619.2 346.832 618.468 347.36 617.748 348.056C617.028 348.752 616.308 349.58 615.588 350.54V377H604.212V323.576L615.588 322.46ZM679.568 365.984C679.568 367.424 679.76 368.468 680.144 369.116C680.552 369.764 681.2 370.256 682.088 370.592L679.748 378.08C677.492 377.864 675.584 377.372 674.024 376.604C672.488 375.812 671.276 374.624 670.388 373.04C668.924 374.792 667.052 376.1 664.772 376.964C662.492 377.804 660.164 378.224 657.788 378.224C653.852 378.224 650.708 377.108 648.356 374.876C646.028 372.62 644.864 369.728 644.864 366.2C644.864 362.048 646.484 358.844 649.724 356.588C652.988 354.332 657.572 353.204 663.476 353.204H668.624V351.764C668.624 349.772 667.976 348.296 666.68 347.336C665.408 346.376 663.536 345.896 661.064 345.896C659.84 345.896 658.268 346.076 656.348 346.436C654.428 346.772 652.508 347.264 650.588 347.912L647.96 340.352C650.432 339.416 653 338.708 655.664 338.228C658.352 337.748 660.752 337.508 662.864 337.508C668.552 337.508 672.752 338.672 675.464 341C678.2 343.304 679.568 346.64 679.568 351.008V365.984ZM661.712 370.088C662.936 370.088 664.22 369.728 665.564 369.008C666.908 368.264 667.928 367.22 668.624 365.876V359.684H665.816C662.648 359.684 660.32 360.176 658.832 361.16C657.344 362.12 656.6 363.536 656.6 365.408C656.6 366.872 657.044 368.024 657.932 368.864C658.844 369.68 660.104 370.088 661.712 370.088ZM705.892 370.088C707.788 370.088 709.312 369.788 710.464 369.188C711.64 368.588 712.228 367.688 712.228 366.488C712.228 365.672 712 364.988 711.544 364.436C711.088 363.884 710.212 363.356 708.916 362.852C707.62 362.348 705.7 361.748 703.156 361.052C700.828 360.428 698.764 359.636 696.964 358.676C695.188 357.716 693.796 356.48 692.788 354.968C691.804 353.456 691.312 351.572 691.312 349.316C691.312 347.036 691.948 345.008 693.22 343.232C694.492 341.456 696.364 340.064 698.836 339.056C701.308 338.024 704.332 337.508 707.908 337.508C711.316 337.508 714.28 337.952 716.8 338.84C719.344 339.704 721.54 340.808 723.388 342.152L718.852 348.848C717.268 347.864 715.564 347.084 713.74 346.508C711.916 345.908 710.08 345.608 708.232 345.608C706.384 345.608 705.004 345.86 704.092 346.364C703.204 346.844 702.76 347.576 702.76 348.56C702.76 349.208 702.988 349.772 703.444 350.252C703.924 350.708 704.812 351.188 706.108 351.692C707.404 352.172 709.3 352.772 711.796 353.492C714.268 354.188 716.416 354.992 718.24 355.904C720.088 356.816 721.516 358.04 722.524 359.576C723.532 361.088 724.036 363.092 724.036 365.588C724.036 368.372 723.208 370.712 721.552 372.608C719.896 374.48 717.7 375.884 714.964 376.82C712.228 377.756 709.228 378.224 705.964 378.224C702.268 378.224 699.004 377.696 696.172 376.64C693.34 375.584 690.928 374.192 688.936 372.464L694.66 366.056C696.148 367.208 697.828 368.168 699.7 368.936C701.596 369.704 703.66 370.088 705.892 370.088ZM749.064 370.088C750.96 370.088 752.484 369.788 753.636 369.188C754.812 368.588 755.4 367.688 755.4 366.488C755.4 365.672 755.172 364.988 754.716 364.436C754.26 363.884 753.384 363.356 752.088 362.852C750.792 362.348 748.872 361.748 746.328 361.052C744 360.428 741.936 359.636 740.136 358.676C738.36 357.716 736.968 356.48 735.96 354.968C734.976 353.456 734.484 351.572 734.484 349.316C734.484 347.036 735.12 345.008 736.392 343.232C737.664 341.456 739.536 340.064 742.008 339.056C744.48 338.024 747.504 337.508 751.08 337.508C754.488 337.508 757.452 337.952 759.972 338.84C762.516 339.704 764.712 340.808 766.56 342.152L762.024 348.848C760.44 347.864 758.736 347.084 756.912 346.508C755.088 345.908 753.252 345.608 751.404 345.608C749.556 345.608 748.176 345.86 747.264 346.364C746.376 346.844 745.932 347.576 745.932 348.56C745.932 349.208 746.16 349.772 746.616 350.252C747.096 350.708 747.984 351.188 749.28 351.692C750.576 352.172 752.472 352.772 754.968 353.492C757.44 354.188 759.588 354.992 761.412 355.904C763.26 356.816 764.688 358.04 765.695 359.576C766.704 361.088 767.208 363.092 767.208 365.588C767.208 368.372 766.38 370.712 764.724 372.608C763.068 374.48 760.872 375.884 758.136 376.82C755.4 377.756 752.4 378.224 749.136 378.224C745.44 378.224 742.176 377.696 739.344 376.64C736.512 375.584 734.1 374.192 732.108 372.464L737.832 366.056C739.32 367.208 741 368.168 742.872 368.936C744.768 369.704 746.832 370.088 749.064 370.088ZM800.263 338.768V369.224H809.983V377H778.051V369.224H788.887V346.544H778.411V338.768H800.263ZM793.387 318.752C795.355 318.752 796.963 319.364 798.211 320.588C799.459 321.812 800.083 323.336 800.083 325.16C800.083 326.984 799.459 328.52 798.211 329.768C796.963 330.992 795.355 331.604 793.387 331.604C791.395 331.604 789.763 330.992 788.491 329.768C787.243 328.52 786.619 326.984 786.619 325.16C786.619 323.336 787.243 321.812 788.491 320.588C789.763 319.364 791.395 318.752 793.387 318.752ZM835.407 370.088C837.303 370.088 838.827 369.788 839.979 369.188C841.155 368.588 841.743 367.688 841.743 366.488C841.743 365.672 841.515 364.988 841.059 364.436C840.603 363.884 839.727 363.356 838.431 362.852C837.135 362.348 835.215 361.748 832.671 361.052C830.343 360.428 828.279 359.636 826.479 358.676C824.703 357.716 823.311 356.48 822.303 354.968C821.319 353.456 820.827 351.572 820.827 349.316C820.827 347.036 821.463 345.008 822.735 343.232C824.007 341.456 825.879 340.064 828.351 339.056C830.823 338.024 833.847 337.508 837.423 337.508C840.831 337.508 843.795 337.952 846.315 338.84C848.859 339.704 851.055 340.808 852.903 342.152L848.367 348.848C846.783 347.864 845.079 347.084 843.255 346.508C841.431 345.908 839.595 345.608 837.747 345.608C835.899 345.608 834.519 345.86 833.607 346.364C832.719 346.844 832.275 347.576 832.275 348.56C832.275 349.208 832.503 349.772 832.959 350.252C833.439 350.708 834.327 351.188 835.623 351.692C836.919 352.172 838.815 352.772 841.311 353.492C843.783 354.188 845.931 354.992 847.755 355.904C849.603 356.816 851.031 358.04 852.039 359.576C853.047 361.088 853.551 363.092 853.551 365.588C853.551 368.372 852.723 370.712 851.067 372.608C849.411 374.48 847.215 375.884 844.479 376.82C841.743 377.756 838.743 378.224 835.479 378.224C831.783 378.224 828.519 377.696 825.687 376.64C822.855 375.584 820.443 374.192 818.451 372.464L824.175 366.056C825.663 367.208 827.343 368.168 829.215 368.936C831.111 369.704 833.175 370.088 835.407 370.088ZM931.723 327.104V375.56H920.635V338.3L910.375 344.708L905.551 336.896L921.643 327.104H931.723ZM941.047 368.396V377H908.611V368.396H941.047Z" fill="black"/>
<rect x="1370.53" y="449.469" width="317.062" height="1241.06" transform="rotate(90 1370.53 449.469)" fill="white"/>
<rect x="1370.53" y="449.469" width="317.062" height="1241.06" transform="rotate(90 1370.53 449.469)" stroke="black" stroke-width="10.9375"/>
<rect x="1286.31" y="535.188" width="145.625" height="214.525" transform="rotate(90 1286.31 535.188)" stroke="black" stroke-width="4.375"/>
<path d="M1182.92 565.291V600.387H1178.51V570.069L1170.21 575.109L1168.3 571.959L1179.06 565.291H1182.92ZM1190.48 597.841V601.438H1169.61V597.841H1190.48Z" fill="black"/>
<rect x="1071.79" y="535.188" width="145.625" height="214.525" transform="rotate(90 1071.79 535.188)" stroke="black" stroke-width="4.375"/>
<path d="M962.933 564.714C965.208 564.714 967.151 565.151 968.761 566.026C970.388 566.901 971.64 568.1 972.515 569.622C973.39 571.145 973.827 572.869 973.827 574.794C973.827 576.456 973.538 578.084 972.961 579.676C972.383 581.251 971.456 582.914 970.178 584.664C968.918 586.396 967.256 588.321 965.191 590.439C963.143 592.556 960.623 594.971 957.631 597.684H974.667L974.116 601.438H952.617V597.841C955.347 595.234 957.666 592.95 959.573 590.99C961.498 589.03 963.082 587.315 964.325 585.845C965.585 584.357 966.565 583.01 967.265 581.802C967.982 580.595 968.481 579.449 968.761 578.364C969.041 577.261 969.181 576.124 969.181 574.951C969.181 572.921 968.603 571.32 967.448 570.147C966.311 568.975 964.736 568.389 962.723 568.389C960.938 568.389 959.477 568.695 958.34 569.307C957.202 569.92 956.065 570.9 954.927 572.247L951.882 569.885C953.317 568.135 954.91 566.84 956.66 566C958.41 565.142 960.501 564.714 962.933 564.714Z" fill="black"/>
<rect x="857.263" y="535.188" width="145.625" height="214.525" transform="rotate(90 857.263 535.188)" stroke="black" stroke-width="4.375"/>
<path d="M748.357 564.714C750.632 564.714 752.592 565.125 754.237 565.947C755.899 566.752 757.185 567.846 758.095 569.229C759.005 570.594 759.46 572.099 759.46 573.744C759.46 575.196 759.137 576.517 758.489 577.707C757.842 578.897 756.984 579.877 755.917 580.647C754.849 581.417 753.677 581.925 752.399 582.17C753.817 582.275 755.147 582.677 756.389 583.377C757.632 584.06 758.647 585.04 759.434 586.317C760.222 587.577 760.615 589.144 760.615 591.016C760.615 593.099 760.09 594.98 759.04 596.66C757.99 598.322 756.52 599.635 754.63 600.597C752.758 601.56 750.57 602.041 748.068 602.041C746.055 602.041 744.043 601.656 742.03 600.886C740.035 600.116 738.347 598.891 736.964 597.211L739.93 594.796C740.963 596.004 742.188 596.905 743.605 597.5C745.04 598.095 746.493 598.392 747.963 598.392C750.483 598.392 752.452 597.736 753.869 596.424C755.287 595.094 755.995 593.291 755.995 591.016C755.995 589.301 755.663 587.945 754.998 586.947C754.35 585.95 753.467 585.241 752.347 584.821C751.227 584.384 749.949 584.165 748.514 584.165H745.469L746.02 580.674H748.147C749.319 580.674 750.422 580.455 751.454 580.017C752.504 579.562 753.362 578.862 754.027 577.917C754.692 576.972 755.024 575.791 755.024 574.374C755.024 572.379 754.359 570.856 753.029 569.806C751.699 568.756 750.089 568.231 748.199 568.231C746.624 568.231 745.25 568.511 744.078 569.071C742.905 569.614 741.724 570.445 740.534 571.565L738.093 568.861C739.633 567.409 741.269 566.359 743.002 565.711C744.734 565.046 746.519 564.714 748.357 564.714Z" fill="black"/>
<rect x="642.737" y="535.188" width="145.625" height="214.525" transform="rotate(90 642.737 535.188)" stroke="black" stroke-width="4.375"/>
<path d="M534.12 564.714L537.795 566.262L528.187 589.126H547.481V592.644H523.515V589.441L534.12 564.714ZM542.809 578.862V601.438H538.556L538.53 589.966L539.134 578.862H542.809Z" fill="black"/>
<rect x="428.213" y="535.188" width="145.625" height="214.525" transform="rotate(90 428.213 535.188)" stroke="black" stroke-width="4.375"/>
<path d="M330.778 565.291L330.122 568.809H315.842V580.201C316.944 579.606 317.985 579.204 318.965 578.994C319.963 578.766 321.004 578.652 322.089 578.652C324.049 578.652 325.773 579.099 327.26 579.991C328.748 580.866 329.903 582.152 330.725 583.85C331.548 585.547 331.959 587.595 331.959 589.992C331.959 592.39 331.452 594.499 330.437 596.319C329.439 598.139 328.03 599.547 326.21 600.545C324.39 601.543 322.229 602.041 319.727 602.041C317.557 602.041 315.614 601.656 313.899 600.886C312.202 600.116 310.653 599.049 309.253 597.684L311.983 595.059C313.085 596.179 314.267 597.019 315.527 597.579C316.804 598.121 318.222 598.392 319.779 598.392C322.159 598.392 324.014 597.675 325.344 596.24C326.674 594.787 327.339 592.661 327.339 589.861C327.339 587.919 327.05 586.387 326.473 585.267C325.895 584.147 325.108 583.351 324.11 582.879C323.13 582.389 322.037 582.144 320.829 582.144C319.762 582.144 318.817 582.249 317.994 582.459C317.172 582.651 316.235 582.949 315.185 583.351H311.642V565.291H330.778Z" fill="black"/>
<path d="M691.464 1022.54C689.512 1020.58 689.512 1017.42 691.464 1015.46L723.284 983.645C725.237 981.692 728.403 981.692 730.355 983.645C732.308 985.597 732.308 988.763 730.355 990.716L702.071 1019L730.355 1047.28C732.308 1049.24 732.308 1052.4 730.355 1054.36C728.403 1056.31 725.237 1056.31 723.284 1054.36L691.464 1022.54ZM1333.99 1024C1331.22 1024 1328.99 1021.76 1328.99 1019C1328.99 1016.24 1331.22 1014 1333.99 1014V1024ZM1312.63 1014C1315.39 1014 1317.63 1016.24 1317.63 1019C1317.63 1021.76 1315.39 1024 1312.63 1024V1014ZM1280.6 1024C1277.84 1024 1275.6 1021.76 1275.6 1019C1275.6 1016.24 1277.84 1014 1280.6 1014V1024ZM1259.25 1014C1262.01 1014 1264.25 1016.24 1264.25 1019C1264.25 1021.76 1262.01 1024 1259.25 1024V1014ZM1227.22 1024C1224.46 1024 1222.22 1021.76 1222.22 1019C1222.22 1016.24 1224.46 1014 1227.22 1014V1024ZM1205.87 1014C1208.63 1014 1210.87 1016.24 1210.87 1019C1210.87 1021.76 1208.63 1024 1205.87 1024V1014ZM1173.84 1024C1171.08 1024 1168.84 1021.76 1168.84 1019C1168.84 1016.24 1171.08 1014 1173.84 1014V1024ZM1152.49 1014C1155.25 1014 1157.49 1016.24 1157.49 1019C1157.49 1021.76 1155.25 1024 1152.49 1024V1014ZM1121.76 1024C1119 1024 1116.76 1021.76 1116.76 1019C1116.76 1016.24 1119 1014 1121.76 1014V1024ZM1102.14 1014C1104.9 1014 1107.14 1016.24 1107.14 1019C1107.14 1021.76 1104.9 1024 1102.14 1024V1014ZM1072.71 1024C1069.95 1024 1067.71 1021.76 1067.71 1019C1067.71 1016.24 1069.95 1014 1072.71 1014V1024ZM1053.09 1014C1055.85 1014 1058.09 1016.24 1058.09 1019C1058.09 1021.76 1055.85 1024 1053.09 1024V1014ZM1023.65 1024C1020.89 1024 1018.65 1021.76 1018.65 1019C1018.65 1016.24 1020.89 1014 1023.65 1014V1024ZM1004.03 1014C1006.79 1014 1009.03 1016.24 1009.03 1019C1009.03 1021.76 1006.79 1024 1004.03 1024V1014ZM974.601 1024C971.84 1024 969.601 1021.76 969.601 1019C969.601 1016.24 971.84 1014 974.601 1014V1024ZM954.98 1014C957.742 1014 959.98 1016.24 959.98 1019C959.98 1021.76 957.742 1024 954.98 1024V1014ZM925.548 1024C922.787 1024 920.548 1021.76 920.548 1019C920.548 1016.24 922.787 1014 925.548 1014V1024ZM905.927 1014C908.689 1014 910.927 1016.24 910.927 1019C910.927 1021.76 908.689 1024 905.927 1024V1014ZM876.496 1024C873.734 1024 871.496 1021.76 871.496 1019C871.496 1016.24 873.734 1014 876.496 1014V1024ZM856.874 1014C859.636 1014 861.874 1016.24 861.874 1019C861.874 1021.76 859.636 1024 856.874 1024V1014ZM827.443 1024C824.681 1024 822.443 1021.76 822.443 1019C822.443 1016.24 824.681 1014 827.443 1014V1024ZM807.822 1014C810.583 1014 812.822 1016.24 812.822 1019C812.822 1021.76 810.583 1024 807.822 1024V1014ZM778.39 1024C775.628 1024 773.39 1021.76 773.39 1019C773.39 1016.24 775.628 1014 778.39 1014V1024ZM758.769 1014C761.53 1014 763.769 1016.24 763.769 1019C763.769 1021.76 761.53 1024 758.769 1024V1014ZM729.337 1024C726.576 1024 724.337 1021.76 724.337 1019C724.337 1016.24 726.576 1014 729.337 1014V1024ZM709.716 1014C712.477 1014 714.716 1016.24 714.716 1019C714.716 1021.76 712.477 1024 709.716 1024V1014ZM1350 1019V1024H1333.99V1019V1014H1350V1019ZM1312.63 1019V1024H1280.6V1019V1014H1312.63V1019ZM1259.25 1019V1024H1227.22V1019V1014H1259.25V1019ZM1205.87 1019V1024H1173.84V1019V1014H1205.87V1019ZM1152.49 1019V1024H1136.48V1019V1014H1152.49V1019ZM1136.48 1019V1024H1121.76V1019V1014H1136.48V1019ZM1102.14 1019V1024H1072.71V1019V1014H1102.14V1019ZM1053.09 1019V1024H1023.65V1019V1014H1053.09V1019ZM1004.03 1019V1024H974.601V1019V1014H1004.03V1019ZM954.98 1019V1024H925.548V1019V1014H954.98V1019ZM905.927 1019V1024H876.496V1019V1014H905.927V1019ZM856.874 1019V1024H827.443V1019V1014H856.874V1019ZM807.822 1019V1024H778.39V1019V1014H807.822V1019ZM758.769 1019V1024H729.337V1019V1014H758.769V1019ZM709.716 1019V1024H695V1019V1014H709.716V1019Z" fill="#041BB0"/>
<path d="M824.67 972.188C824.67 971.3 824.502 970.568 824.166 969.992C823.842 969.404 823.344 968.972 822.672 968.696C822.012 968.408 821.178 968.264 820.17 968.264H818.154V976.418H820.476C821.352 976.418 822.102 976.268 822.726 975.968C823.35 975.668 823.83 975.206 824.166 974.582C824.502 973.958 824.67 973.16 824.67 972.188ZM830.754 972.17C830.754 974.102 830.34 975.698 829.512 976.958C828.684 978.218 827.526 979.16 826.038 979.784C824.55 980.396 822.822 980.702 820.854 980.702H818.154V989H812.25V964.052H820.098C823.482 964.052 826.104 964.724 827.964 966.068C829.824 967.412 830.754 969.446 830.754 972.17ZM851.8 971.63C851.8 972.818 851.578 973.856 851.134 974.744C850.69 975.632 850.09 976.382 849.334 976.994C848.578 977.606 847.732 978.098 846.796 978.47L853.33 989H846.652L841.252 979.46H839.578V989H833.674V964.052H841.522C844.918 964.052 847.48 964.67 849.208 965.906C850.936 967.142 851.8 969.05 851.8 971.63ZM845.716 971.63C845.716 970.43 845.362 969.56 844.654 969.02C843.958 968.468 842.92 968.192 841.54 968.192H839.578V975.41H841.774C843.058 975.41 844.036 975.11 844.708 974.51C845.38 973.91 845.716 972.95 845.716 971.63ZM873.962 976.508C873.962 979.148 873.584 981.452 872.828 983.42C872.072 985.376 870.95 986.9 869.462 987.992C867.986 989.072 866.156 989.612 863.972 989.612C861.8 989.612 859.97 989.084 858.482 988.028C856.994 986.96 855.872 985.448 855.116 983.492C854.36 981.536 853.982 979.208 853.982 976.508C853.982 973.868 854.36 971.57 855.116 969.614C855.872 967.658 856.994 966.14 858.482 965.06C859.97 963.968 861.8 963.422 863.972 963.422C866.156 963.422 867.986 963.95 869.462 965.006C870.95 966.062 872.072 967.568 872.828 969.524C873.584 971.48 873.962 973.808 873.962 976.508ZM867.914 976.508C867.914 973.436 867.608 971.204 866.996 969.812C866.384 968.42 865.376 967.724 863.972 967.724C862.568 967.724 861.56 968.426 860.948 969.83C860.336 971.222 860.03 973.448 860.03 976.508C860.03 979.58 860.342 981.812 860.966 983.204C861.59 984.596 862.592 985.292 863.972 985.292C865.412 985.292 866.426 984.59 867.014 983.186C867.614 981.77 867.914 979.544 867.914 976.508ZM889.32 976.4C889.32 974.72 889.176 973.352 888.888 972.296C888.612 971.24 888.222 970.424 887.718 969.848C887.226 969.272 886.644 968.876 885.972 968.66C885.3 968.444 884.574 968.336 883.794 968.336H882.534V984.734H883.794C884.61 984.734 885.354 984.608 886.026 984.356C886.71 984.092 887.298 983.654 887.79 983.042C888.282 982.418 888.66 981.566 888.924 980.486C889.188 979.406 889.32 978.044 889.32 976.4ZM895.44 976.4C895.44 978.428 895.224 980.168 894.792 981.62C894.36 983.06 893.754 984.26 892.974 985.22C892.206 986.18 891.312 986.936 890.292 987.488C889.272 988.04 888.174 988.43 886.998 988.658C885.822 988.886 884.61 989 883.362 989H876.63V964.052H882.93C884.526 964.052 886.068 964.22 887.556 964.556C889.056 964.88 890.394 965.486 891.57 966.374C892.758 967.25 893.7 968.498 894.396 970.118C895.092 971.726 895.44 973.82 895.44 976.4ZM916.432 964.052V980.648C916.432 982.352 916.084 983.882 915.388 985.238C914.704 986.582 913.672 987.65 912.292 988.442C910.924 989.222 909.208 989.612 907.144 989.612C905.068 989.612 903.34 989.234 901.96 988.478C900.592 987.722 899.566 986.672 898.882 985.328C898.198 983.984 897.856 982.424 897.856 980.648V964.052H903.778V978.452C903.778 980.696 903.982 982.388 904.39 983.528C904.798 984.656 905.716 985.22 907.144 985.22C908.572 985.22 909.49 984.656 909.898 983.528C910.306 982.388 910.51 980.696 910.51 978.452V964.052H916.432ZM930.818 963.422C932.606 963.422 934.124 963.662 935.372 964.142C936.632 964.61 937.784 965.276 938.828 966.14L935.93 969.632C935.246 969.068 934.49 968.624 933.662 968.3C932.834 967.964 931.934 967.796 930.962 967.796C929.918 967.796 928.964 968.096 928.1 968.696C927.236 969.284 926.546 970.22 926.03 971.504C925.514 972.776 925.256 974.432 925.256 976.472C925.256 978.476 925.502 980.114 925.994 981.386C926.498 982.646 927.188 983.576 928.064 984.176C928.94 984.764 929.942 985.058 931.07 985.058C932.318 985.058 933.356 984.824 934.184 984.356C935.012 983.888 935.774 983.378 936.47 982.826L939.152 986.246C938.216 987.17 937.064 987.962 935.696 988.622C934.328 989.282 932.678 989.612 930.746 989.612C928.49 989.612 926.486 989.114 924.734 988.118C922.994 987.11 921.626 985.634 920.63 983.69C919.646 981.734 919.154 979.328 919.154 976.472C919.154 973.688 919.664 971.324 920.684 969.38C921.716 967.436 923.114 965.96 924.878 964.952C926.642 963.932 928.622 963.422 930.818 963.422ZM953.232 968.57V989H947.328V968.57H940.326V964.052H960.522L959.91 968.57H953.232ZM980.002 964.052V968.372H974.854V984.662H980.002V989H963.802V984.662H968.95V968.372H963.802V964.052H980.002ZM1003.48 976.508C1003.48 979.148 1003.1 981.452 1002.34 983.42C1001.59 985.376 1000.47 986.9 998.978 987.992C997.502 989.072 995.672 989.612 993.488 989.612C991.316 989.612 989.486 989.084 987.998 988.028C986.51 986.96 985.388 985.448 984.632 983.492C983.876 981.536 983.498 979.208 983.498 976.508C983.498 973.868 983.876 971.57 984.632 969.614C985.388 967.658 986.51 966.14 987.998 965.06C989.486 963.968 991.316 963.422 993.488 963.422C995.672 963.422 997.502 963.95 998.978 965.006C1000.47 966.062 1001.59 967.568 1002.34 969.524C1003.1 971.48 1003.48 973.808 1003.48 976.508ZM997.43 976.508C997.43 973.436 997.124 971.204 996.512 969.812C995.9 968.42 994.892 967.724 993.488 967.724C992.084 967.724 991.076 968.426 990.464 969.83C989.852 971.222 989.546 973.448 989.546 976.508C989.546 979.58 989.858 981.812 990.482 983.204C991.106 984.596 992.108 985.292 993.488 985.292C994.928 985.292 995.942 984.59 996.53 983.186C997.13 981.77 997.43 979.544 997.43 976.508ZM1016.84 989L1010.27 968.93C1010.35 969.47 1010.44 970.124 1010.54 970.892C1010.65 971.648 1010.75 972.494 1010.84 973.43C1010.94 974.354 1011.02 975.338 1011.08 976.382C1011.14 977.426 1011.17 978.494 1011.17 979.586V989H1006.15V964.052H1013.51L1019.88 984.014C1019.75 983.258 1019.61 982.358 1019.47 981.314C1019.33 980.258 1019.22 979.082 1019.12 977.786C1019.03 976.49 1018.98 975.098 1018.98 973.61V964.052H1024V989H1016.84ZM1057.26 968.264V974.87H1066V979.1H1057.26V989H1051.33V964.052H1067.73L1067.12 968.264H1057.26ZM1072.38 989V964.052H1078.28V984.338H1089.1L1088.49 989H1072.38ZM1111.41 976.508C1111.41 979.148 1111.03 981.452 1110.27 983.42C1109.52 985.376 1108.4 986.9 1106.91 987.992C1105.43 989.072 1103.6 989.612 1101.42 989.612C1099.25 989.612 1097.42 989.084 1095.93 988.028C1094.44 986.96 1093.32 985.448 1092.56 983.492C1091.81 981.536 1091.43 979.208 1091.43 976.508C1091.43 973.868 1091.81 971.57 1092.56 969.614C1093.32 967.658 1094.44 966.14 1095.93 965.06C1097.42 963.968 1099.25 963.422 1101.42 963.422C1103.6 963.422 1105.43 963.95 1106.91 965.006C1108.4 966.062 1109.52 967.568 1110.27 969.524C1111.03 971.48 1111.41 973.808 1111.41 976.508ZM1105.36 976.508C1105.36 973.436 1105.05 971.204 1104.44 969.812C1103.83 968.42 1102.82 967.724 1101.42 967.724C1100.01 967.724 1099.01 968.426 1098.39 969.83C1097.78 971.222 1097.48 973.448 1097.48 976.508C1097.48 979.58 1097.79 981.812 1098.41 983.204C1099.04 984.596 1100.04 985.292 1101.42 985.292C1102.86 985.292 1103.87 984.59 1104.46 983.186C1105.06 981.77 1105.36 979.544 1105.36 976.508ZM1133.91 964.052L1131 989H1124.86L1123.04 971.162L1121.04 989H1114.8L1112.1 964.052H1117.62L1118.47 983.96L1120.54 966.932H1125.61L1127.54 983.96L1128.78 964.052H1133.91ZM1169.94 976.4C1169.94 974.72 1169.79 973.352 1169.51 972.296C1169.23 971.24 1168.84 970.424 1168.34 969.848C1167.84 969.272 1167.26 968.876 1166.59 968.66C1165.92 968.444 1165.19 968.336 1164.41 968.336H1163.15V984.734H1164.41C1165.23 984.734 1165.97 984.608 1166.64 984.356C1167.33 984.092 1167.92 983.654 1168.41 983.042C1168.9 982.418 1169.28 981.566 1169.54 980.486C1169.81 979.406 1169.94 978.044 1169.94 976.4ZM1176.06 976.4C1176.06 978.428 1175.84 980.168 1175.41 981.62C1174.98 983.06 1174.37 984.26 1173.59 985.22C1172.82 986.18 1171.93 986.936 1170.91 987.488C1169.89 988.04 1168.79 988.43 1167.62 988.658C1166.44 988.886 1165.23 989 1163.98 989H1157.25V964.052H1163.55C1165.14 964.052 1166.69 964.22 1168.17 964.556C1169.67 964.88 1171.01 965.486 1172.19 966.374C1173.38 967.25 1174.32 968.498 1175.01 970.118C1175.71 971.726 1176.06 973.82 1176.06 976.4ZM1195.86 964.052V968.372H1190.71V984.662H1195.86V989H1179.66V984.662H1184.81V968.372H1179.66V964.052H1195.86ZM1218.76 971.63C1218.76 972.818 1218.54 973.856 1218.09 974.744C1217.65 975.632 1217.05 976.382 1216.29 976.994C1215.54 977.606 1214.69 978.098 1213.76 978.47L1220.29 989H1213.61L1208.21 979.46H1206.54V989H1200.63V964.052H1208.48C1211.88 964.052 1214.44 964.67 1216.17 965.906C1217.9 967.142 1218.76 969.05 1218.76 971.63ZM1212.68 971.63C1212.68 970.43 1212.32 969.56 1211.61 969.02C1210.92 968.468 1209.88 968.192 1208.5 968.192H1206.54V975.41H1208.73C1210.02 975.41 1211 975.11 1211.67 974.51C1212.34 973.91 1212.68 972.95 1212.68 971.63ZM1229.38 968.264V974.258H1238.02V978.398H1229.38V984.77H1239.81V989H1223.48V964.052H1239.79L1239.19 968.264H1229.38ZM1254.61 963.422C1256.39 963.422 1257.91 963.662 1259.16 964.142C1260.42 964.61 1261.57 965.276 1262.62 966.14L1259.72 969.632C1259.03 969.068 1258.28 968.624 1257.45 968.3C1256.62 967.964 1255.72 967.796 1254.75 967.796C1253.71 967.796 1252.75 968.096 1251.89 968.696C1251.02 969.284 1250.33 970.22 1249.82 971.504C1249.3 972.776 1249.04 974.432 1249.04 976.472C1249.04 978.476 1249.29 980.114 1249.78 981.386C1250.29 982.646 1250.98 983.576 1251.85 984.176C1252.73 984.764 1253.73 985.058 1254.86 985.058C1256.11 985.058 1257.14 984.824 1257.97 984.356C1258.8 983.888 1259.56 983.378 1260.26 982.826L1262.94 986.246C1262 987.17 1260.85 987.962 1259.48 988.622C1258.12 989.282 1256.47 989.612 1254.53 989.612C1252.28 989.612 1250.27 989.114 1248.52 988.118C1246.78 987.11 1245.41 985.634 1244.42 983.69C1243.43 981.734 1242.94 979.328 1242.94 976.472C1242.94 973.688 1243.45 971.324 1244.47 969.38C1245.5 967.436 1246.9 965.96 1248.67 964.952C1250.43 963.932 1252.41 963.422 1254.61 963.422ZM1277.02 968.57V989H1271.12V968.57H1264.11V964.052H1284.31L1283.7 968.57H1277.02ZM1303.79 964.052V968.372H1298.64V984.662H1303.79V989H1287.59V984.662H1292.74V968.372H1287.59V964.052H1303.79ZM1327.27 976.508C1327.27 979.148 1326.89 981.452 1326.13 983.42C1325.38 985.376 1324.25 986.9 1322.77 987.992C1321.29 989.072 1319.46 989.612 1317.28 989.612C1315.1 989.612 1313.27 989.084 1311.79 988.028C1310.3 986.96 1309.18 985.448 1308.42 983.492C1307.66 981.536 1307.29 979.208 1307.29 976.508C1307.29 973.868 1307.66 971.57 1308.42 969.614C1309.18 967.658 1310.3 966.14 1311.79 965.06C1313.27 963.968 1315.1 963.422 1317.28 963.422C1319.46 963.422 1321.29 963.95 1322.77 965.006C1324.25 966.062 1325.38 967.568 1326.13 969.524C1326.89 971.48 1327.27 973.808 1327.27 976.508ZM1321.22 976.508C1321.22 973.436 1320.91 971.204 1320.3 969.812C1319.69 968.42 1318.68 967.724 1317.28 967.724C1315.87 967.724 1314.86 968.426 1314.25 969.83C1313.64 971.222 1313.33 973.448 1313.33 976.508C1313.33 979.58 1313.65 981.812 1314.27 983.204C1314.89 984.596 1315.9 985.292 1317.28 985.292C1318.72 985.292 1319.73 984.59 1320.32 983.186C1320.92 981.77 1321.22 979.544 1321.22 976.508ZM1340.63 989L1334.06 968.93C1334.14 969.47 1334.23 970.124 1334.33 970.892C1334.43 971.648 1334.54 972.494 1334.63 973.43C1334.73 974.354 1334.81 975.338 1334.87 976.382C1334.93 977.426 1334.96 978.494 1334.96 979.586V989H1329.93V964.052H1337.3L1343.67 984.014C1343.54 983.258 1343.4 982.358 1343.25 981.314C1343.12 980.258 1343.01 979.082 1342.91 977.786C1342.82 976.49 1342.77 975.098 1342.77 973.61V964.052H1347.79V989H1340.63Z" fill="#041BB0"/>
<path d="M86.6967 1205.3C89.6256 1208.23 94.3744 1208.23 97.3033 1205.3L145.033 1157.57C147.962 1154.64 147.962 1149.9 145.033 1146.97C142.104 1144.04 137.355 1144.04 134.426 1146.97L92 1189.39L49.5736 1146.97C46.6447 1144.04 41.8959 1144.04 38.967 1146.97C36.0381 1149.9 36.0381 1154.64 38.967 1157.57L86.6967 1205.3ZM92 608V600.5H84.5V608H92ZM92 1200H99.5V608H92H84.5V1200H92ZM92 608V615.5H212V608V600.5H92V608Z" fill="#041BB0"/>
<rect width="50" height="50" transform="matrix(0 1 -1 0 1023 1060)" fill="#DBDFFF"/>
<rect width="50" height="50" transform="matrix(0 1 -1 0 1023 1060)" fill="#DBDFFF"/>
<rect x="1022" y="1061" width="48" height="48" transform="rotate(90 1022 1061)" stroke="black" stroke-width="2"/>
<path d="M1003.51 1081.08L1002.44 1089.06H1005.36V1091.4H1002.1L1001.35 1097.5H998.754L999.564 1091.4H994.326L993.534 1097.5H990.942L991.752 1091.4H988.908V1089.06H992.058L993.156 1081.08H990.24V1078.73H993.462L994.254 1072.71H996.846L995.982 1078.73H1001.27L1002.07 1072.71H1004.66L1003.81 1078.73H1006.69V1081.08H1003.51ZM994.632 1089.06H999.87L1000.97 1081.08H995.694L994.632 1089.06Z" fill="black"/>
<path d="M1066.31 1091.14C1066.31 1092.56 1065.96 1093.82 1065.25 1094.92C1064.54 1096.01 1063.52 1096.87 1062.17 1097.5C1060.83 1098.11 1059.19 1098.41 1057.26 1098.41C1055.45 1098.41 1053.8 1098.14 1052.33 1097.59C1050.86 1097.03 1049.61 1096.25 1048.57 1095.25L1050.42 1093.16C1051.28 1093.96 1052.27 1094.6 1053.39 1095.08C1054.51 1095.55 1055.81 1095.79 1057.31 1095.79C1058.32 1095.79 1059.26 1095.62 1060.14 1095.3C1061.02 1094.96 1061.72 1094.46 1062.26 1093.79C1062.8 1093.1 1063.07 1092.24 1063.07 1091.2C1063.07 1090.39 1062.92 1089.71 1062.61 1089.14C1062.29 1088.58 1061.74 1088.08 1060.95 1087.65C1060.16 1087.21 1059.05 1086.77 1057.64 1086.35C1056.01 1085.87 1054.59 1085.33 1053.39 1084.73C1052.2 1084.12 1051.28 1083.37 1050.62 1082.48C1049.97 1081.6 1049.65 1080.5 1049.65 1079.19C1049.65 1077.95 1049.99 1076.86 1050.67 1075.9C1051.36 1074.94 1052.3 1074.19 1053.5 1073.65C1054.71 1073.09 1056.1 1072.82 1057.67 1072.82C1059.39 1072.82 1060.88 1073.06 1062.14 1073.56C1063.41 1074.04 1064.56 1074.73 1065.59 1075.64L1063.76 1077.68C1062.87 1076.89 1061.92 1076.32 1060.9 1075.97C1059.88 1075.61 1058.84 1075.43 1057.78 1075.43C1056.88 1075.43 1056.05 1075.57 1055.3 1075.84C1054.55 1076.11 1053.95 1076.51 1053.5 1077.05C1053.05 1077.58 1052.83 1078.25 1052.83 1079.08C1052.83 1079.79 1053.02 1080.4 1053.41 1080.92C1053.79 1081.43 1054.44 1081.91 1055.35 1082.34C1056.26 1082.76 1057.51 1083.2 1059.08 1083.67C1060.36 1084.04 1061.55 1084.51 1062.64 1085.08C1063.75 1085.63 1064.63 1086.38 1065.31 1087.34C1065.98 1088.29 1066.31 1089.56 1066.31 1091.14ZM1087.25 1097.05C1086.6 1097.48 1085.82 1097.81 1084.89 1098.05C1083.97 1098.29 1083.06 1098.41 1082.18 1098.41C1080.14 1098.41 1078.56 1097.88 1077.46 1096.81C1076.36 1095.74 1075.8 1094.37 1075.8 1092.69V1081.39H1071.45V1079.05H1075.8V1074.74L1078.83 1074.38V1079.05H1085.38L1085.02 1081.39H1078.83V1092.65C1078.83 1093.71 1079.1 1094.51 1079.66 1095.07C1080.22 1095.62 1081.15 1095.89 1082.45 1095.89C1083.15 1095.89 1083.81 1095.81 1084.41 1095.64C1085.01 1095.47 1085.57 1095.26 1086.08 1094.99L1087.25 1097.05ZM1107.36 1093.86C1107.36 1094.62 1107.49 1095.17 1107.74 1095.52C1107.99 1095.86 1108.38 1096.12 1108.91 1096.29L1108.17 1098.41C1107.36 1098.31 1106.64 1098.05 1106.03 1097.64C1105.42 1097.22 1104.97 1096.59 1104.7 1095.75C1104.01 1096.63 1103.16 1097.29 1102.14 1097.75C1101.12 1098.19 1099.99 1098.41 1098.76 1098.41C1096.86 1098.41 1095.37 1097.88 1094.28 1096.81C1093.18 1095.74 1092.64 1094.33 1092.64 1092.56C1092.64 1090.61 1093.4 1089.11 1094.92 1088.06C1096.45 1087.02 1098.65 1086.5 1101.53 1086.5H1104.32V1084.91C1104.32 1083.55 1103.92 1082.58 1103.11 1082.02C1102.32 1081.44 1101.22 1081.15 1099.8 1081.15C1099.18 1081.15 1098.45 1081.23 1097.61 1081.39C1096.77 1081.53 1095.85 1081.78 1094.87 1082.12L1094.08 1079.84C1095.24 1079.41 1096.33 1079.1 1097.35 1078.92C1098.37 1078.74 1099.35 1078.65 1100.27 1078.65C1102.63 1078.65 1104.4 1079.2 1105.58 1080.31C1106.77 1081.4 1107.36 1082.89 1107.36 1084.77V1093.86ZM1099.53 1096.11C1100.47 1096.11 1101.36 1095.88 1102.21 1095.41C1103.07 1094.93 1103.77 1094.27 1104.32 1093.43V1088.55H1101.58C1099.5 1088.55 1098.02 1088.91 1097.16 1089.63C1096.3 1090.35 1095.88 1091.32 1095.88 1092.53C1095.88 1093.7 1096.18 1094.6 1096.78 1095.21C1097.39 1095.81 1098.31 1096.11 1099.53 1096.11ZM1130.42 1097.05C1129.78 1097.48 1128.99 1097.81 1128.07 1098.05C1127.14 1098.29 1126.24 1098.41 1125.35 1098.41C1123.31 1098.41 1121.74 1097.88 1120.63 1096.81C1119.53 1095.74 1118.98 1094.37 1118.98 1092.69V1081.39H1114.62V1079.05H1118.98V1074.74L1122 1074.38V1079.05H1128.55L1128.19 1081.39H1122V1092.65C1122 1093.71 1122.28 1094.51 1122.83 1095.07C1123.39 1095.62 1124.32 1095.89 1125.62 1095.89C1126.33 1095.89 1126.98 1095.81 1127.58 1095.64C1128.18 1095.47 1128.74 1095.26 1129.25 1094.99L1130.42 1097.05ZM1146.56 1079.05V1095.61H1151.9V1098H1137.68V1095.61H1143.53V1081.44H1137.86V1079.05H1146.56ZM1144.14 1070.17C1144.82 1070.17 1145.35 1070.38 1145.75 1070.78C1146.15 1071.19 1146.36 1071.69 1146.36 1072.28C1146.36 1072.89 1146.15 1073.41 1145.75 1073.83C1145.35 1074.23 1144.82 1074.44 1144.14 1074.44C1143.51 1074.44 1142.99 1074.23 1142.58 1073.83C1142.17 1073.41 1141.97 1072.89 1141.97 1072.28C1141.97 1071.69 1142.17 1071.19 1142.58 1070.78C1142.99 1070.38 1143.51 1070.17 1144.14 1070.17ZM1165.77 1078.65C1167.55 1078.65 1169.05 1079.06 1170.25 1079.87C1171.46 1080.68 1172.37 1081.82 1172.97 1083.29C1173.58 1084.77 1173.88 1086.51 1173.88 1088.51C1173.88 1090.45 1173.57 1092.16 1172.95 1093.64C1172.32 1095.13 1171.41 1096.3 1170.19 1097.15C1168.99 1097.99 1167.51 1098.41 1165.73 1098.41C1163.95 1098.41 1162.46 1098.01 1161.25 1097.19C1160.04 1096.37 1159.12 1095.23 1158.49 1093.75C1157.88 1092.26 1157.58 1090.53 1157.58 1088.55C1157.58 1086.59 1157.89 1084.87 1158.51 1083.38C1159.14 1081.9 1160.05 1080.74 1161.27 1079.91C1162.49 1079.07 1163.99 1078.65 1165.77 1078.65ZM1165.77 1081.12C1164.13 1081.12 1162.9 1081.72 1162.06 1082.93C1161.23 1084.13 1160.82 1086.01 1160.82 1088.55C1160.82 1091.05 1161.22 1092.9 1162.04 1094.11C1162.87 1095.32 1164.1 1095.93 1165.73 1095.93C1167.36 1095.93 1168.59 1095.32 1169.4 1094.11C1170.23 1092.9 1170.64 1091.03 1170.64 1088.51C1170.64 1085.99 1170.24 1084.13 1169.42 1082.93C1168.6 1081.72 1167.39 1081.12 1165.77 1081.12ZM1180.13 1098V1079.05H1182.71L1182.94 1081.67C1183.71 1080.7 1184.67 1079.96 1185.82 1079.44C1186.99 1078.91 1188.11 1078.65 1189.21 1078.65C1191.07 1078.65 1192.42 1079.14 1193.26 1080.13C1194.11 1081.11 1194.53 1082.48 1194.53 1084.23V1098H1191.51V1086.46C1191.51 1085.17 1191.44 1084.12 1191.29 1083.33C1191.15 1082.53 1190.85 1081.94 1190.39 1081.58C1189.94 1081.21 1189.23 1081.03 1188.27 1081.03C1187.53 1081.03 1186.82 1081.19 1186.16 1081.51C1185.52 1081.84 1184.93 1082.24 1184.42 1082.74C1183.91 1083.22 1183.49 1083.7 1183.16 1084.19V1098H1180.13ZM1233.91 1098L1225.18 1076.2C1225.19 1076.48 1225.21 1076.94 1225.25 1077.59C1225.3 1078.22 1225.35 1078.99 1225.39 1079.87C1225.45 1080.75 1225.5 1081.68 1225.54 1082.66C1225.57 1083.65 1225.59 1084.62 1225.59 1085.58V1098H1222.69V1073.21H1226.92L1235.8 1095.1C1235.79 1094.75 1235.74 1094.12 1235.67 1093.19C1235.6 1092.26 1235.53 1091.13 1235.47 1089.81C1235.41 1088.49 1235.38 1087.09 1235.38 1085.62V1073.21H1238.28V1098H1233.91ZM1247.92 1079.05V1092.47C1247.92 1093.72 1248.17 1094.62 1248.69 1095.17C1249.21 1095.73 1250.01 1096 1251.1 1096C1252.15 1096 1253.13 1095.71 1254.05 1095.12C1254.99 1094.52 1255.72 1093.81 1256.23 1093V1079.05H1259.26V1098H1256.68L1256.43 1095.44C1255.69 1096.4 1254.77 1097.14 1253.68 1097.66C1252.58 1098.16 1251.48 1098.41 1250.36 1098.41C1248.53 1098.41 1247.15 1097.93 1246.24 1096.96C1245.34 1095.97 1244.89 1094.6 1244.89 1092.83V1079.05H1247.92ZM1278.97 1078.65C1279.58 1078.65 1280.16 1078.78 1280.72 1079.05C1281.28 1079.31 1281.74 1079.82 1282.1 1080.58C1282.46 1081.33 1282.64 1082.44 1282.64 1083.89V1098H1279.83V1084.37C1279.83 1083.19 1279.76 1082.33 1279.62 1081.8C1279.47 1081.27 1279.06 1081.01 1278.38 1081.01C1277.81 1081.01 1277.25 1081.19 1276.68 1081.55C1276.13 1081.9 1275.59 1082.47 1275.06 1083.28V1098H1272.24V1084.37C1272.24 1083.19 1272.17 1082.33 1272.02 1081.8C1271.88 1081.27 1271.46 1081.01 1270.78 1081.01C1270.19 1081.01 1269.62 1081.19 1269.07 1081.55C1268.53 1081.9 1268 1082.47 1267.47 1083.28V1098H1264.68V1079.05H1267.05L1267.23 1081.24C1267.75 1080.51 1268.33 1079.9 1268.96 1079.41C1269.61 1078.9 1270.41 1078.65 1271.36 1078.65C1272.08 1078.65 1272.75 1078.82 1273.39 1079.17C1274.03 1079.51 1274.49 1080.17 1274.79 1081.15C1275.31 1080.41 1275.89 1079.81 1276.54 1079.35C1277.19 1078.88 1278 1078.65 1278.97 1078.65ZM1291.09 1081.51C1291.78 1080.6 1292.58 1079.9 1293.48 1079.41C1294.39 1078.9 1295.4 1078.65 1296.49 1078.65C1298.18 1078.65 1299.55 1079.06 1300.59 1079.87C1301.64 1080.69 1302.4 1081.84 1302.88 1083.33C1303.36 1084.81 1303.6 1086.53 1303.6 1088.51C1303.6 1090.42 1303.31 1092.13 1302.73 1093.63C1302.16 1095.11 1301.31 1096.28 1300.2 1097.14C1299.09 1097.99 1297.72 1098.41 1296.09 1098.41C1293.9 1098.41 1292.17 1097.62 1290.93 1096.04L1290.71 1098H1288.06V1071.41L1291.09 1071.04V1081.51ZM1295.37 1095.97C1296.96 1095.97 1298.17 1095.35 1299.03 1094.13C1299.88 1092.91 1300.3 1091.03 1300.3 1088.5C1300.3 1086.84 1300.14 1085.47 1299.8 1084.37C1299.46 1083.27 1298.96 1082.45 1298.29 1081.91C1297.63 1081.36 1296.81 1081.08 1295.84 1081.08C1294.78 1081.08 1293.85 1081.4 1293.05 1082.03C1292.26 1082.66 1291.6 1083.35 1291.09 1084.12V1093.52C1291.58 1094.26 1292.2 1094.86 1292.94 1095.3C1293.7 1095.74 1294.51 1095.97 1295.37 1095.97ZM1312.03 1089.59C1312.09 1091.06 1312.37 1092.26 1312.87 1093.19C1313.38 1094.12 1314.04 1094.8 1314.87 1095.25C1315.7 1095.68 1316.6 1095.89 1317.57 1095.89C1318.54 1095.89 1319.42 1095.75 1320.2 1095.46C1320.99 1095.17 1321.8 1094.75 1322.63 1094.18L1324.05 1096.18C1323.16 1096.88 1322.15 1097.42 1321.01 1097.82C1319.88 1098.22 1318.72 1098.41 1317.53 1098.41C1315.7 1098.41 1314.13 1098 1312.84 1097.17C1311.54 1096.34 1310.55 1095.19 1309.87 1093.72C1309.19 1092.23 1308.86 1090.51 1308.86 1088.55C1308.86 1086.63 1309.2 1084.93 1309.88 1083.44C1310.57 1081.95 1311.53 1080.78 1312.76 1079.93C1314 1079.08 1315.46 1078.65 1317.14 1078.65C1318.73 1078.65 1320.11 1079.03 1321.26 1079.78C1322.41 1080.53 1323.29 1081.6 1323.91 1082.99C1324.53 1084.37 1324.84 1086.02 1324.84 1087.94C1324.84 1088.26 1324.84 1088.57 1324.82 1088.86C1324.81 1089.13 1324.79 1089.38 1324.77 1089.59H1312.03ZM1317.17 1081.13C1315.77 1081.13 1314.59 1081.63 1313.65 1082.63C1312.71 1083.62 1312.18 1085.17 1312.04 1087.25H1321.93C1321.89 1085.23 1321.45 1083.7 1320.59 1082.68C1319.74 1081.65 1318.6 1081.13 1317.17 1081.13ZM1331.42 1098V1095.68H1334.37V1081.37H1331.42V1079.05H1336.67L1337.23 1083.53C1337.96 1081.97 1338.85 1080.76 1339.89 1079.91C1340.94 1079.06 1342.32 1078.63 1344.03 1078.63C1344.56 1078.63 1345.03 1078.67 1345.44 1078.76C1345.86 1078.83 1346.28 1078.93 1346.72 1079.05L1345.83 1081.75C1345.44 1081.64 1345.08 1081.56 1344.75 1081.51C1344.43 1081.45 1344.06 1081.42 1343.64 1081.42C1342.19 1081.42 1340.94 1081.94 1339.89 1082.97C1338.85 1084 1338.02 1085.56 1337.39 1087.65V1095.68H1341.24V1098H1331.42ZM1343.8 1085.45V1081.33L1344.11 1079.05H1346.72L1346.28 1085.45H1343.8Z" fill="black"/>
</svg>
