<svg width="1500" height="1216" viewBox="0 0 1500 1216" fill="none" xmlns="http://www.w3.org/2000/svg">
<g clip-path="url(#clip0_94_367)">
<rect width="1500" height="1216" fill="white"/>
<path d="M575.776 250.844C579.352 250.844 582.388 251.324 584.884 252.284C587.404 253.22 589.708 254.552 591.796 256.28L586 263.264C584.632 262.136 583.12 261.248 581.464 260.6C579.808 259.928 578.008 259.592 576.064 259.592C573.976 259.592 572.068 260.192 570.34 261.392C568.612 262.568 567.232 264.44 566.2 267.008C565.168 269.552 564.652 272.864 564.652 276.944C564.652 280.952 565.144 284.228 566.128 286.772C567.136 289.292 568.516 291.152 570.268 292.352C572.02 293.528 574.024 294.116 576.28 294.116C578.776 294.116 580.852 293.648 582.508 292.712C584.164 291.776 585.688 290.756 587.08 289.652L592.444 296.492C590.572 298.34 588.268 299.924 585.532 301.244C582.796 302.564 579.496 303.224 575.632 303.224C571.12 303.224 567.112 302.228 563.608 300.236C560.128 298.22 557.392 295.268 555.4 291.38C553.432 287.468 552.448 282.656 552.448 276.944C552.448 271.376 553.468 266.648 555.508 262.76C557.572 258.872 560.368 255.92 563.896 253.904C567.424 251.864 571.384 250.844 575.776 250.844ZM609.588 247.46V267.548C611.196 265.844 612.936 264.584 614.808 263.768C616.704 262.928 618.708 262.508 620.82 262.508C624.228 262.508 626.832 263.504 628.632 265.496C630.432 267.488 631.332 270.296 631.332 273.92V302H619.956V277.088C619.956 274.784 619.692 273.176 619.164 272.264C618.66 271.352 617.7 270.896 616.284 270.896C615.492 270.896 614.712 271.088 613.944 271.472C613.2 271.832 612.468 272.36 611.748 273.056C611.028 273.752 610.308 274.58 609.588 275.54V302H598.212V248.576L609.588 247.46ZM673.568 290.984C673.568 292.424 673.76 293.468 674.144 294.116C674.552 294.764 675.2 295.256 676.088 295.592L673.748 303.08C671.492 302.864 669.584 302.372 668.024 301.604C666.488 300.812 665.276 299.624 664.388 298.04C662.924 299.792 661.052 301.1 658.772 301.964C656.492 302.804 654.164 303.224 651.788 303.224C647.852 303.224 644.708 302.108 642.356 299.876C640.028 297.62 638.864 294.728 638.864 291.2C638.864 287.048 640.484 283.844 643.724 281.588C646.988 279.332 651.572 278.204 657.476 278.204H662.624V276.764C662.624 274.772 661.976 273.296 660.68 272.336C659.408 271.376 657.536 270.896 655.064 270.896C653.84 270.896 652.268 271.076 650.348 271.436C648.428 271.772 646.508 272.264 644.588 272.912L641.96 265.352C644.432 264.416 647 263.708 649.664 263.228C652.352 262.748 654.752 262.508 656.864 262.508C662.552 262.508 666.752 263.672 669.464 266C672.2 268.304 673.568 271.64 673.568 276.008V290.984ZM655.712 295.088C656.936 295.088 658.22 294.728 659.564 294.008C660.908 293.264 661.928 292.22 662.624 290.876V284.684H659.816C656.648 284.684 654.32 285.176 652.832 286.16C651.344 287.12 650.6 288.536 650.6 290.408C650.6 291.872 651.044 293.024 651.932 293.864C652.844 294.68 654.104 295.088 655.712 295.088ZM699.892 295.088C701.788 295.088 703.312 294.788 704.464 294.188C705.64 293.588 706.228 292.688 706.228 291.488C706.228 290.672 706 289.988 705.544 289.436C705.088 288.884 704.212 288.356 702.916 287.852C701.62 287.348 699.7 286.748 697.156 286.052C694.828 285.428 692.764 284.636 690.964 283.676C689.188 282.716 687.796 281.48 686.788 279.968C685.804 278.456 685.312 276.572 685.312 274.316C685.312 272.036 685.948 270.008 687.22 268.232C688.492 266.456 690.364 265.064 692.836 264.056C695.308 263.024 698.332 262.508 701.908 262.508C705.316 262.508 708.28 262.952 710.8 263.84C713.344 264.704 715.54 265.808 717.388 267.152L712.852 273.848C711.268 272.864 709.564 272.084 707.74 271.508C705.916 270.908 704.08 270.608 702.232 270.608C700.384 270.608 699.004 270.86 698.092 271.364C697.204 271.844 696.76 272.576 696.76 273.56C696.76 274.208 696.988 274.772 697.444 275.252C697.924 275.708 698.812 276.188 700.108 276.692C701.404 277.172 703.3 277.772 705.796 278.492C708.268 279.188 710.416 279.992 712.24 280.904C714.088 281.816 715.516 283.04 716.524 284.576C717.532 286.088 718.036 288.092 718.036 290.588C718.036 293.372 717.208 295.712 715.552 297.608C713.896 299.48 711.7 300.884 708.964 301.82C706.228 302.756 703.228 303.224 699.964 303.224C696.268 303.224 693.004 302.696 690.172 301.64C687.34 300.584 684.928 299.192 682.936 297.464L688.66 291.056C690.148 292.208 691.828 293.168 693.7 293.936C695.596 294.704 697.66 295.088 699.892 295.088ZM743.064 295.088C744.96 295.088 746.484 294.788 747.636 294.188C748.812 293.588 749.4 292.688 749.4 291.488C749.4 290.672 749.172 289.988 748.716 289.436C748.26 288.884 747.384 288.356 746.088 287.852C744.792 287.348 742.872 286.748 740.328 286.052C738 285.428 735.936 284.636 734.136 283.676C732.36 282.716 730.968 281.48 729.96 279.968C728.976 278.456 728.484 276.572 728.484 274.316C728.484 272.036 729.12 270.008 730.392 268.232C731.664 266.456 733.536 265.064 736.008 264.056C738.48 263.024 741.504 262.508 745.08 262.508C748.488 262.508 751.452 262.952 753.972 263.84C756.516 264.704 758.712 265.808 760.56 267.152L756.024 273.848C754.44 272.864 752.736 272.084 750.912 271.508C749.088 270.908 747.252 270.608 745.404 270.608C743.556 270.608 742.176 270.86 741.264 271.364C740.376 271.844 739.932 272.576 739.932 273.56C739.932 274.208 740.16 274.772 740.616 275.252C741.096 275.708 741.984 276.188 743.28 276.692C744.576 277.172 746.472 277.772 748.968 278.492C751.44 279.188 753.588 279.992 755.412 280.904C757.26 281.816 758.688 283.04 759.695 284.576C760.704 286.088 761.208 288.092 761.208 290.588C761.208 293.372 760.38 295.712 758.724 297.608C757.068 299.48 754.872 300.884 752.136 301.82C749.4 302.756 746.4 303.224 743.136 303.224C739.44 303.224 736.176 302.696 733.344 301.64C730.512 300.584 728.1 299.192 726.108 297.464L731.832 291.056C733.32 292.208 735 293.168 736.872 293.936C738.768 294.704 740.832 295.088 743.064 295.088ZM794.263 263.768V294.224H803.983V302H772.051V294.224H782.887V271.544H772.411V263.768H794.263ZM787.387 243.752C789.355 243.752 790.963 244.364 792.211 245.588C793.459 246.812 794.083 248.336 794.083 250.16C794.083 251.984 793.459 253.52 792.211 254.768C790.963 255.992 789.355 256.604 787.387 256.604C785.395 256.604 783.763 255.992 782.491 254.768C781.243 253.52 780.619 251.984 780.619 250.16C780.619 248.336 781.243 246.812 782.491 245.588C783.763 244.364 785.395 243.752 787.387 243.752ZM829.407 295.088C831.303 295.088 832.827 294.788 833.979 294.188C835.155 293.588 835.743 292.688 835.743 291.488C835.743 290.672 835.515 289.988 835.059 289.436C834.603 288.884 833.727 288.356 832.431 287.852C831.135 287.348 829.215 286.748 826.671 286.052C824.343 285.428 822.279 284.636 820.479 283.676C818.703 282.716 817.311 281.48 816.303 279.968C815.319 278.456 814.827 276.572 814.827 274.316C814.827 272.036 815.463 270.008 816.735 268.232C818.007 266.456 819.879 265.064 822.351 264.056C824.823 263.024 827.847 262.508 831.423 262.508C834.831 262.508 837.795 262.952 840.315 263.84C842.859 264.704 845.055 265.808 846.903 267.152L842.367 273.848C840.783 272.864 839.079 272.084 837.255 271.508C835.431 270.908 833.595 270.608 831.747 270.608C829.899 270.608 828.519 270.86 827.607 271.364C826.719 271.844 826.275 272.576 826.275 273.56C826.275 274.208 826.503 274.772 826.959 275.252C827.439 275.708 828.327 276.188 829.623 276.692C830.919 277.172 832.815 277.772 835.311 278.492C837.783 279.188 839.931 279.992 841.755 280.904C843.603 281.816 845.031 283.04 846.039 284.576C847.047 286.088 847.551 288.092 847.551 290.588C847.551 293.372 846.723 295.712 845.067 297.608C843.411 299.48 841.215 300.884 838.479 301.82C835.743 302.756 832.743 303.224 829.479 303.224C825.783 303.224 822.519 302.696 819.687 301.64C816.855 300.584 814.443 299.192 812.451 297.464L818.175 291.056C819.663 292.208 821.343 293.168 823.215 293.936C825.111 294.704 827.175 295.088 829.407 295.088ZM915.247 250.844C919.039 250.844 922.207 251.504 924.751 252.824C927.319 254.144 929.239 255.896 930.511 258.08C931.807 260.24 932.455 262.592 932.455 265.136C932.455 267.152 932.107 269.132 931.411 271.076C930.739 272.996 929.623 275.036 928.063 277.196C926.503 279.332 924.427 281.708 921.835 284.324C919.267 286.94 916.087 289.94 912.295 293.324H933.607L932.383 302H899.227V293.936C902.515 290.768 905.371 287.96 907.795 285.512C910.219 283.064 912.259 280.892 913.915 278.996C915.595 277.1 916.939 275.408 917.947 273.92C918.979 272.432 919.723 271.064 920.179 269.816C920.635 268.544 920.863 267.32 920.863 266.144C920.863 264.128 920.275 262.532 919.099 261.356C917.947 260.18 916.303 259.592 914.167 259.592C912.271 259.592 910.627 259.988 909.235 260.78C907.843 261.572 906.499 262.856 905.203 264.632L898.219 259.376C900.091 256.784 902.395 254.72 905.131 253.184C907.867 251.624 911.239 250.844 915.247 250.844Z" fill="black"/>
<rect x="1268.5" y="390.5" width="435" height="1035" transform="rotate(90 1268.5 390.5)" fill="white"/>
<rect x="1268.5" y="390.5" width="435" height="1035" transform="rotate(90 1268.5 390.5)" stroke="black" stroke-width="15"/>
<rect x="1045" y="511" width="194" height="294" transform="rotate(90 1045 511)" stroke="black" stroke-width="6"/>
<path d="M895.818 556.636C898.938 556.636 901.602 557.236 903.81 558.436C906.042 559.636 907.758 561.28 908.958 563.368C910.158 565.456 910.758 567.82 910.758 570.46C910.758 572.74 910.362 574.972 909.57 577.156C908.778 579.316 907.506 581.596 905.754 583.996C904.026 586.372 901.746 589.012 898.914 591.916C896.106 594.82 892.65 598.132 888.546 601.852H911.91L911.154 607H881.67V602.068C885.414 598.492 888.594 595.36 891.21 592.672C893.85 589.984 896.022 587.632 897.726 585.616C899.454 583.576 900.798 581.728 901.758 580.072C902.742 578.416 903.426 576.844 903.81 575.356C904.194 573.844 904.386 572.284 904.386 570.676C904.386 567.892 903.594 565.696 902.01 564.088C900.45 562.48 898.29 561.676 895.53 561.676C893.082 561.676 891.078 562.096 889.518 562.936C887.958 563.776 886.398 565.12 884.838 566.968L880.662 563.728C882.63 561.328 884.814 559.552 887.214 558.4C889.614 557.224 892.482 556.636 895.818 556.636Z" fill="black"/>
<rect x="751" y="511" width="194" height="294" transform="rotate(90 751 511)" stroke="black" stroke-width="6"/>
<path d="M609.306 557.428V605.56H603.258V563.98L591.882 570.892L589.254 566.572L604.014 557.428H609.306ZM619.674 602.068V607H591.054V602.068H619.674Z" fill="black"/>
<path d="M459.303 613.303C462.232 610.374 462.232 605.626 459.303 602.697L411.574 554.967C408.645 552.038 403.896 552.038 400.967 554.967C398.038 557.896 398.038 562.645 400.967 565.574L443.393 608L400.967 650.426C398.038 653.355 398.038 658.104 400.967 661.033C403.896 663.962 408.645 663.962 411.574 661.033L459.303 613.303ZM100 608H92.5V615.5H100V608ZM454 608V600.5H100V608V615.5H454V608ZM100 608H107.5V0H100H92.5V608H100Z" fill="#041BB0"/>
<path d="M1355.3 613.303C1358.23 610.374 1358.23 605.626 1355.3 602.697L1307.57 554.967C1304.64 552.038 1299.9 552.038 1296.97 554.967C1294.04 557.896 1294.04 562.645 1296.97 565.574L1339.39 608L1296.97 650.426C1294.04 653.355 1294.04 658.104 1296.97 661.033C1299.9 663.962 1304.64 663.962 1307.57 661.033L1355.3 613.303ZM1350 608V600.5H1048V608V615.5H1350V608Z" fill="#041BB0"/>
<path d="M883.536 1022.54C885.488 1020.58 885.488 1017.42 883.536 1015.46L851.716 983.645C849.763 981.692 846.597 981.692 844.645 983.645C842.692 985.597 842.692 988.763 844.645 990.716L872.929 1019L844.645 1047.28C842.692 1049.24 842.692 1052.4 844.645 1054.36C846.597 1056.31 849.763 1056.31 851.716 1054.36L883.536 1022.54ZM241.014 1024C243.776 1024 246.014 1021.76 246.014 1019C246.014 1016.24 243.776 1014 241.014 1014V1024ZM262.367 1014C259.605 1014 257.367 1016.24 257.367 1019C257.367 1021.76 259.605 1024 262.367 1024V1014ZM294.395 1024C297.157 1024 299.395 1021.76 299.395 1019C299.395 1016.24 297.157 1014 294.395 1014V1024ZM315.748 1014C312.986 1014 310.748 1016.24 310.748 1019C310.748 1021.76 312.986 1024 315.748 1024V1014ZM347.776 1024C350.538 1024 352.776 1021.76 352.776 1019C352.776 1016.24 350.538 1014 347.776 1014V1024ZM369.129 1014C366.367 1014 364.129 1016.24 364.129 1019C364.129 1021.76 366.367 1024 369.129 1024V1014ZM401.157 1024C403.919 1024 406.157 1021.76 406.157 1019C406.157 1016.24 403.919 1014 401.157 1014V1024ZM422.51 1014C419.748 1014 417.51 1016.24 417.51 1019C417.51 1021.76 419.748 1024 422.51 1024V1014ZM453.24 1024C456.002 1024 458.24 1021.76 458.24 1019C458.24 1016.24 456.002 1014 453.24 1014V1024ZM472.861 1014C470.1 1014 467.861 1016.24 467.861 1019C467.861 1021.76 470.1 1024 472.861 1024V1014ZM502.293 1024C505.054 1024 507.293 1021.76 507.293 1019C507.293 1016.24 505.054 1014 502.293 1014V1024ZM521.914 1014C519.153 1014 516.914 1016.24 516.914 1019C516.914 1021.76 519.153 1024 521.914 1024V1014ZM551.346 1024C554.107 1024 556.346 1021.76 556.346 1019C556.346 1016.24 554.107 1014 551.346 1014V1024ZM570.967 1014C568.206 1014 565.967 1016.24 565.967 1019C565.967 1021.76 568.206 1024 570.967 1024V1014ZM600.399 1024C603.16 1024 605.399 1021.76 605.399 1019C605.399 1016.24 603.16 1014 600.399 1014V1024ZM620.02 1014C617.258 1014 615.02 1016.24 615.02 1019C615.02 1021.76 617.258 1024 620.02 1024V1014ZM649.452 1024C652.213 1024 654.452 1021.76 654.452 1019C654.452 1016.24 652.213 1014 649.452 1014V1024ZM669.073 1014C666.311 1014 664.073 1016.24 664.073 1019C664.073 1021.76 666.311 1024 669.073 1024V1014ZM698.504 1024C701.266 1024 703.504 1021.76 703.504 1019C703.504 1016.24 701.266 1014 698.504 1014V1024ZM718.126 1014C715.364 1014 713.126 1016.24 713.126 1019C713.126 1021.76 715.364 1024 718.126 1024V1014ZM747.557 1024C750.319 1024 752.557 1021.76 752.557 1019C752.557 1016.24 750.319 1014 747.557 1014V1024ZM767.178 1014C764.417 1014 762.178 1016.24 762.178 1019C762.178 1021.76 764.417 1024 767.178 1024V1014ZM796.61 1024C799.372 1024 801.61 1021.76 801.61 1019C801.61 1016.24 799.372 1014 796.61 1014V1024ZM816.231 1014C813.47 1014 811.231 1016.24 811.231 1019C811.231 1021.76 813.47 1024 816.231 1024V1014ZM845.663 1024C848.424 1024 850.663 1021.76 850.663 1019C850.663 1016.24 848.424 1014 845.663 1014V1024ZM865.284 1014C862.523 1014 860.284 1016.24 860.284 1019C860.284 1021.76 862.523 1024 865.284 1024V1014ZM225 1019V1024H241.014V1019V1014H225V1019ZM262.367 1019V1024H294.395V1019V1014H262.367V1019ZM315.748 1019V1024H347.776V1019V1014H315.748V1019ZM369.129 1019V1024H401.157V1019V1014H369.129V1019ZM422.51 1019V1024H438.524V1019V1014H422.51V1019ZM438.524 1019V1024H453.24V1019V1014H438.524V1019ZM472.861 1019V1024H502.293V1019V1014H472.861V1019ZM521.914 1019V1024H551.346V1019V1014H521.914V1019ZM570.967 1019V1024H600.399V1019V1014H570.967V1019ZM620.02 1019V1024H649.452V1019V1014H620.02V1019ZM669.073 1019V1024H698.504V1019V1014H669.073V1019ZM718.126 1019V1024H747.557V1019V1014H718.126V1019ZM767.178 1019V1024H796.61V1019V1014H767.178V1019ZM816.231 1019V1024H845.663V1019V1014H816.231V1019ZM865.284 1019V1024H880V1019V1014H865.284V1019Z" fill="#041BB0"/>
<path d="M239.67 972.188C239.67 971.3 239.502 970.568 239.166 969.992C238.842 969.404 238.344 968.972 237.672 968.696C237.012 968.408 236.178 968.264 235.17 968.264H233.154V976.418H235.476C236.352 976.418 237.102 976.268 237.726 975.968C238.35 975.668 238.83 975.206 239.166 974.582C239.502 973.958 239.67 973.16 239.67 972.188ZM245.754 972.17C245.754 974.102 245.34 975.698 244.512 976.958C243.684 978.218 242.526 979.16 241.038 979.784C239.55 980.396 237.822 980.702 235.854 980.702H233.154V989H227.25V964.052H235.098C238.482 964.052 241.104 964.724 242.964 966.068C244.824 967.412 245.754 969.446 245.754 972.17ZM266.8 971.63C266.8 972.818 266.578 973.856 266.134 974.744C265.69 975.632 265.09 976.382 264.334 976.994C263.578 977.606 262.732 978.098 261.796 978.47L268.33 989H261.652L256.252 979.46H254.578V989H248.674V964.052H256.522C259.918 964.052 262.48 964.67 264.208 965.906C265.936 967.142 266.8 969.05 266.8 971.63ZM260.716 971.63C260.716 970.43 260.362 969.56 259.654 969.02C258.958 968.468 257.92 968.192 256.54 968.192H254.578V975.41H256.774C258.058 975.41 259.036 975.11 259.708 974.51C260.38 973.91 260.716 972.95 260.716 971.63ZM288.962 976.508C288.962 979.148 288.584 981.452 287.828 983.42C287.072 985.376 285.95 986.9 284.462 987.992C282.986 989.072 281.156 989.612 278.972 989.612C276.8 989.612 274.97 989.084 273.482 988.028C271.994 986.96 270.872 985.448 270.116 983.492C269.36 981.536 268.982 979.208 268.982 976.508C268.982 973.868 269.36 971.57 270.116 969.614C270.872 967.658 271.994 966.14 273.482 965.06C274.97 963.968 276.8 963.422 278.972 963.422C281.156 963.422 282.986 963.95 284.462 965.006C285.95 966.062 287.072 967.568 287.828 969.524C288.584 971.48 288.962 973.808 288.962 976.508ZM282.914 976.508C282.914 973.436 282.608 971.204 281.996 969.812C281.384 968.42 280.376 967.724 278.972 967.724C277.568 967.724 276.56 968.426 275.948 969.83C275.336 971.222 275.03 973.448 275.03 976.508C275.03 979.58 275.342 981.812 275.966 983.204C276.59 984.596 277.592 985.292 278.972 985.292C280.412 985.292 281.426 984.59 282.014 983.186C282.614 981.77 282.914 979.544 282.914 976.508ZM304.32 976.4C304.32 974.72 304.176 973.352 303.888 972.296C303.612 971.24 303.222 970.424 302.718 969.848C302.226 969.272 301.644 968.876 300.972 968.66C300.3 968.444 299.574 968.336 298.794 968.336H297.534V984.734H298.794C299.61 984.734 300.354 984.608 301.026 984.356C301.71 984.092 302.298 983.654 302.79 983.042C303.282 982.418 303.66 981.566 303.924 980.486C304.188 979.406 304.32 978.044 304.32 976.4ZM310.44 976.4C310.44 978.428 310.224 980.168 309.792 981.62C309.36 983.06 308.754 984.26 307.974 985.22C307.206 986.18 306.312 986.936 305.292 987.488C304.272 988.04 303.174 988.43 301.998 988.658C300.822 988.886 299.61 989 298.362 989H291.63V964.052H297.93C299.526 964.052 301.068 964.22 302.556 964.556C304.056 964.88 305.394 965.486 306.57 966.374C307.758 967.25 308.7 968.498 309.396 970.118C310.092 971.726 310.44 973.82 310.44 976.4ZM331.432 964.052V980.648C331.432 982.352 331.084 983.882 330.388 985.238C329.704 986.582 328.672 987.65 327.292 988.442C325.924 989.222 324.208 989.612 322.144 989.612C320.068 989.612 318.34 989.234 316.96 988.478C315.592 987.722 314.566 986.672 313.882 985.328C313.198 983.984 312.856 982.424 312.856 980.648V964.052H318.778V978.452C318.778 980.696 318.982 982.388 319.39 983.528C319.798 984.656 320.716 985.22 322.144 985.22C323.572 985.22 324.49 984.656 324.898 983.528C325.306 982.388 325.51 980.696 325.51 978.452V964.052H331.432ZM345.818 963.422C347.606 963.422 349.124 963.662 350.372 964.142C351.632 964.61 352.784 965.276 353.828 966.14L350.93 969.632C350.246 969.068 349.49 968.624 348.662 968.3C347.834 967.964 346.934 967.796 345.962 967.796C344.918 967.796 343.964 968.096 343.1 968.696C342.236 969.284 341.546 970.22 341.03 971.504C340.514 972.776 340.256 974.432 340.256 976.472C340.256 978.476 340.502 980.114 340.994 981.386C341.498 982.646 342.188 983.576 343.064 984.176C343.94 984.764 344.942 985.058 346.07 985.058C347.318 985.058 348.356 984.824 349.184 984.356C350.012 983.888 350.774 983.378 351.47 982.826L354.152 986.246C353.216 987.17 352.064 987.962 350.696 988.622C349.328 989.282 347.678 989.612 345.746 989.612C343.49 989.612 341.486 989.114 339.734 988.118C337.994 987.11 336.626 985.634 335.63 983.69C334.646 981.734 334.154 979.328 334.154 976.472C334.154 973.688 334.664 971.324 335.684 969.38C336.716 967.436 338.114 965.96 339.878 964.952C341.642 963.932 343.622 963.422 345.818 963.422ZM368.232 968.57V989H362.328V968.57H355.326V964.052H375.522L374.91 968.57H368.232ZM395.002 964.052V968.372H389.854V984.662H395.002V989H378.802V984.662H383.95V968.372H378.802V964.052H395.002ZM418.478 976.508C418.478 979.148 418.1 981.452 417.344 983.42C416.588 985.376 415.466 986.9 413.978 987.992C412.502 989.072 410.672 989.612 408.488 989.612C406.316 989.612 404.486 989.084 402.998 988.028C401.51 986.96 400.388 985.448 399.632 983.492C398.876 981.536 398.498 979.208 398.498 976.508C398.498 973.868 398.876 971.57 399.632 969.614C400.388 967.658 401.51 966.14 402.998 965.06C404.486 963.968 406.316 963.422 408.488 963.422C410.672 963.422 412.502 963.95 413.978 965.006C415.466 966.062 416.588 967.568 417.344 969.524C418.1 971.48 418.478 973.808 418.478 976.508ZM412.43 976.508C412.43 973.436 412.124 971.204 411.512 969.812C410.9 968.42 409.892 967.724 408.488 967.724C407.084 967.724 406.076 968.426 405.464 969.83C404.852 971.222 404.546 973.448 404.546 976.508C404.546 979.58 404.858 981.812 405.482 983.204C406.106 984.596 407.108 985.292 408.488 985.292C409.928 985.292 410.942 984.59 411.53 983.186C412.13 981.77 412.43 979.544 412.43 976.508ZM431.837 989L425.267 968.93C425.351 969.47 425.441 970.124 425.537 970.892C425.645 971.648 425.747 972.494 425.843 973.43C425.939 974.354 426.017 975.338 426.077 976.382C426.137 977.426 426.167 978.494 426.167 979.586V989H421.145V964.052H428.507L434.879 984.014C434.747 983.258 434.609 982.358 434.465 981.314C434.333 980.258 434.219 979.082 434.123 977.786C434.027 976.49 433.979 975.098 433.979 973.61V964.052H439.001V989H431.837ZM472.255 968.264V974.87H481.003V979.1H472.255V989H466.333V964.052H482.731L482.119 968.264H472.255ZM487.379 989V964.052H493.283V984.338H504.101L503.489 989H487.379ZM526.407 976.508C526.407 979.148 526.029 981.452 525.273 983.42C524.517 985.376 523.395 986.9 521.907 987.992C520.431 989.072 518.601 989.612 516.417 989.612C514.245 989.612 512.415 989.084 510.927 988.028C509.439 986.96 508.317 985.448 507.561 983.492C506.805 981.536 506.427 979.208 506.427 976.508C506.427 973.868 506.805 971.57 507.561 969.614C508.317 967.658 509.439 966.14 510.927 965.06C512.415 963.968 514.245 963.422 516.417 963.422C518.601 963.422 520.431 963.95 521.907 965.006C523.395 966.062 524.517 967.568 525.273 969.524C526.029 971.48 526.407 973.808 526.407 976.508ZM520.359 976.508C520.359 973.436 520.053 971.204 519.441 969.812C518.829 968.42 517.821 967.724 516.417 967.724C515.013 967.724 514.005 968.426 513.393 969.83C512.781 971.222 512.475 973.448 512.475 976.508C512.475 979.58 512.787 981.812 513.411 983.204C514.035 984.596 515.037 985.292 516.417 985.292C517.857 985.292 518.871 984.59 519.459 983.186C520.059 981.77 520.359 979.544 520.359 976.508ZM548.911 964.052L545.995 989H539.857L538.039 971.162L536.041 989H529.795L527.095 964.052H532.621L533.467 983.96L535.537 966.932H540.613L542.539 983.96L543.781 964.052H548.911ZM584.937 976.4C584.937 974.72 584.793 973.352 584.505 972.296C584.229 971.24 583.839 970.424 583.335 969.848C582.843 969.272 582.261 968.876 581.589 968.66C580.917 968.444 580.191 968.336 579.411 968.336H578.151V984.734H579.411C580.227 984.734 580.971 984.608 581.643 984.356C582.327 984.092 582.915 983.654 583.407 983.042C583.899 982.418 584.277 981.566 584.541 980.486C584.805 979.406 584.937 978.044 584.937 976.4ZM591.057 976.4C591.057 978.428 590.841 980.168 590.409 981.62C589.977 983.06 589.371 984.26 588.591 985.22C587.823 986.18 586.929 986.936 585.909 987.488C584.889 988.04 583.791 988.43 582.615 988.658C581.439 988.886 580.227 989 578.979 989H572.247V964.052H578.547C580.143 964.052 581.685 964.22 583.173 964.556C584.673 964.88 586.011 965.486 587.187 966.374C588.375 967.25 589.317 968.498 590.013 970.118C590.709 971.726 591.057 973.82 591.057 976.4ZM610.861 964.052V968.372H605.713V984.662H610.861V989H594.661V984.662H599.809V968.372H594.661V964.052H610.861ZM633.761 971.63C633.761 972.818 633.539 973.856 633.095 974.744C632.651 975.632 632.051 976.382 631.295 976.994C630.539 977.606 629.693 978.098 628.757 978.47L635.291 989H628.613L623.213 979.46H621.539V989H615.635V964.052H623.483C626.879 964.052 629.441 964.67 631.169 965.906C632.897 967.142 633.761 969.05 633.761 971.63ZM627.677 971.63C627.677 970.43 627.323 969.56 626.615 969.02C625.919 968.468 624.881 968.192 623.501 968.192H621.539V975.41H623.735C625.019 975.41 625.997 975.11 626.669 974.51C627.341 973.91 627.677 972.95 627.677 971.63ZM644.385 968.264V974.258H653.025V978.398H644.385V984.77H654.807V989H638.481V964.052H654.789L654.195 968.264H644.385ZM669.607 963.422C671.395 963.422 672.913 963.662 674.161 964.142C675.421 964.61 676.573 965.276 677.617 966.14L674.719 969.632C674.035 969.068 673.279 968.624 672.451 968.3C671.623 967.964 670.723 967.796 669.751 967.796C668.707 967.796 667.753 968.096 666.889 968.696C666.025 969.284 665.335 970.22 664.819 971.504C664.303 972.776 664.045 974.432 664.045 976.472C664.045 978.476 664.291 980.114 664.783 981.386C665.287 982.646 665.977 983.576 666.853 984.176C667.729 984.764 668.731 985.058 669.859 985.058C671.107 985.058 672.145 984.824 672.973 984.356C673.801 983.888 674.563 983.378 675.259 982.826L677.941 986.246C677.005 987.17 675.853 987.962 674.485 988.622C673.117 989.282 671.467 989.612 669.535 989.612C667.279 989.612 665.275 989.114 663.523 988.118C661.783 987.11 660.415 985.634 659.419 983.69C658.435 981.734 657.943 979.328 657.943 976.472C657.943 973.688 658.453 971.324 659.473 969.38C660.505 967.436 661.903 965.96 663.667 964.952C665.431 963.932 667.411 963.422 669.607 963.422ZM692.021 968.57V989H686.117V968.57H679.115V964.052H699.311L698.699 968.57H692.021ZM718.791 964.052V968.372H713.643V984.662H718.791V989H702.591V984.662H707.739V968.372H702.591V964.052H718.791ZM742.267 976.508C742.267 979.148 741.889 981.452 741.133 983.42C740.377 985.376 739.255 986.9 737.767 987.992C736.291 989.072 734.461 989.612 732.277 989.612C730.105 989.612 728.275 989.084 726.787 988.028C725.299 986.96 724.177 985.448 723.421 983.492C722.665 981.536 722.287 979.208 722.287 976.508C722.287 973.868 722.665 971.57 723.421 969.614C724.177 967.658 725.299 966.14 726.787 965.06C728.275 963.968 730.105 963.422 732.277 963.422C734.461 963.422 736.291 963.95 737.767 965.006C739.255 966.062 740.377 967.568 741.133 969.524C741.889 971.48 742.267 973.808 742.267 976.508ZM736.219 976.508C736.219 973.436 735.913 971.204 735.301 969.812C734.689 968.42 733.681 967.724 732.277 967.724C730.873 967.724 729.865 968.426 729.253 969.83C728.641 971.222 728.335 973.448 728.335 976.508C728.335 979.58 728.647 981.812 729.271 983.204C729.895 984.596 730.897 985.292 732.277 985.292C733.717 985.292 734.731 984.59 735.319 983.186C735.919 981.77 736.219 979.544 736.219 976.508ZM755.627 989L749.057 968.93C749.141 969.47 749.231 970.124 749.327 970.892C749.435 971.648 749.537 972.494 749.633 973.43C749.729 974.354 749.807 975.338 749.867 976.382C749.927 977.426 749.957 978.494 749.957 979.586V989H744.935V964.052H752.297L758.669 984.014C758.537 983.258 758.399 982.358 758.255 981.314C758.123 980.258 758.009 979.082 757.913 977.786C757.817 976.49 757.769 975.098 757.769 973.61V964.052H762.791V989H755.627Z" fill="#041BB0"/>
<path d="M883.536 1022.54C885.488 1020.58 885.488 1017.42 883.536 1015.46L851.716 983.645C849.763 981.692 846.597 981.692 844.645 983.645C842.692 985.597 842.692 988.763 844.645 990.716L872.929 1019L844.645 1047.28C842.692 1049.24 842.692 1052.4 844.645 1054.36C846.597 1056.31 849.763 1056.31 851.716 1054.36L883.536 1022.54ZM241.014 1024C243.776 1024 246.014 1021.76 246.014 1019C246.014 1016.24 243.776 1014 241.014 1014V1024ZM262.367 1014C259.605 1014 257.367 1016.24 257.367 1019C257.367 1021.76 259.605 1024 262.367 1024V1014ZM294.395 1024C297.157 1024 299.395 1021.76 299.395 1019C299.395 1016.24 297.157 1014 294.395 1014V1024ZM315.748 1014C312.986 1014 310.748 1016.24 310.748 1019C310.748 1021.76 312.986 1024 315.748 1024V1014ZM347.776 1024C350.538 1024 352.776 1021.76 352.776 1019C352.776 1016.24 350.538 1014 347.776 1014V1024ZM369.129 1014C366.367 1014 364.129 1016.24 364.129 1019C364.129 1021.76 366.367 1024 369.129 1024V1014ZM401.157 1024C403.919 1024 406.157 1021.76 406.157 1019C406.157 1016.24 403.919 1014 401.157 1014V1024ZM422.51 1014C419.748 1014 417.51 1016.24 417.51 1019C417.51 1021.76 419.748 1024 422.51 1024V1014ZM453.24 1024C456.002 1024 458.24 1021.76 458.24 1019C458.24 1016.24 456.002 1014 453.24 1014V1024ZM472.861 1014C470.1 1014 467.861 1016.24 467.861 1019C467.861 1021.76 470.1 1024 472.861 1024V1014ZM502.293 1024C505.054 1024 507.293 1021.76 507.293 1019C507.293 1016.24 505.054 1014 502.293 1014V1024ZM521.914 1014C519.153 1014 516.914 1016.24 516.914 1019C516.914 1021.76 519.153 1024 521.914 1024V1014ZM551.346 1024C554.107 1024 556.346 1021.76 556.346 1019C556.346 1016.24 554.107 1014 551.346 1014V1024ZM570.967 1014C568.206 1014 565.967 1016.24 565.967 1019C565.967 1021.76 568.206 1024 570.967 1024V1014ZM600.399 1024C603.16 1024 605.399 1021.76 605.399 1019C605.399 1016.24 603.16 1014 600.399 1014V1024ZM620.02 1014C617.258 1014 615.02 1016.24 615.02 1019C615.02 1021.76 617.258 1024 620.02 1024V1014ZM649.452 1024C652.213 1024 654.452 1021.76 654.452 1019C654.452 1016.24 652.213 1014 649.452 1014V1024ZM669.073 1014C666.311 1014 664.073 1016.24 664.073 1019C664.073 1021.76 666.311 1024 669.073 1024V1014ZM698.504 1024C701.266 1024 703.504 1021.76 703.504 1019C703.504 1016.24 701.266 1014 698.504 1014V1024ZM718.126 1014C715.364 1014 713.126 1016.24 713.126 1019C713.126 1021.76 715.364 1024 718.126 1024V1014ZM747.557 1024C750.319 1024 752.557 1021.76 752.557 1019C752.557 1016.24 750.319 1014 747.557 1014V1024ZM767.178 1014C764.417 1014 762.178 1016.24 762.178 1019C762.178 1021.76 764.417 1024 767.178 1024V1014ZM796.61 1024C799.372 1024 801.61 1021.76 801.61 1019C801.61 1016.24 799.372 1014 796.61 1014V1024ZM816.231 1014C813.47 1014 811.231 1016.24 811.231 1019C811.231 1021.76 813.47 1024 816.231 1024V1014ZM845.663 1024C848.424 1024 850.663 1021.76 850.663 1019C850.663 1016.24 848.424 1014 845.663 1014V1024ZM865.284 1014C862.523 1014 860.284 1016.24 860.284 1019C860.284 1021.76 862.523 1024 865.284 1024V1014ZM225 1019V1024H241.014V1019V1014H225V1019ZM262.367 1019V1024H294.395V1019V1014H262.367V1019ZM315.748 1019V1024H347.776V1019V1014H315.748V1019ZM369.129 1019V1024H401.157V1019V1014H369.129V1019ZM422.51 1019V1024H438.524V1019V1014H422.51V1019ZM438.524 1019V1024H453.24V1019V1014H438.524V1019ZM472.861 1019V1024H502.293V1019V1014H472.861V1019ZM521.914 1019V1024H551.346V1019V1014H521.914V1019ZM570.967 1019V1024H600.399V1019V1014H570.967V1019ZM620.02 1019V1024H649.452V1019V1014H620.02V1019ZM669.073 1019V1024H698.504V1019V1014H669.073V1019ZM718.126 1019V1024H747.557V1019V1014H718.126V1019ZM767.178 1019V1024H796.61V1019V1014H767.178V1019ZM816.231 1019V1024H845.663V1019V1014H816.231V1019ZM865.284 1019V1024H880V1019V1014H865.284V1019Z" fill="#041BB0"/>
<path d="M239.67 972.188C239.67 971.3 239.502 970.568 239.166 969.992C238.842 969.404 238.344 968.972 237.672 968.696C237.012 968.408 236.178 968.264 235.17 968.264H233.154V976.418H235.476C236.352 976.418 237.102 976.268 237.726 975.968C238.35 975.668 238.83 975.206 239.166 974.582C239.502 973.958 239.67 973.16 239.67 972.188ZM245.754 972.17C245.754 974.102 245.34 975.698 244.512 976.958C243.684 978.218 242.526 979.16 241.038 979.784C239.55 980.396 237.822 980.702 235.854 980.702H233.154V989H227.25V964.052H235.098C238.482 964.052 241.104 964.724 242.964 966.068C244.824 967.412 245.754 969.446 245.754 972.17ZM266.8 971.63C266.8 972.818 266.578 973.856 266.134 974.744C265.69 975.632 265.09 976.382 264.334 976.994C263.578 977.606 262.732 978.098 261.796 978.47L268.33 989H261.652L256.252 979.46H254.578V989H248.674V964.052H256.522C259.918 964.052 262.48 964.67 264.208 965.906C265.936 967.142 266.8 969.05 266.8 971.63ZM260.716 971.63C260.716 970.43 260.362 969.56 259.654 969.02C258.958 968.468 257.92 968.192 256.54 968.192H254.578V975.41H256.774C258.058 975.41 259.036 975.11 259.708 974.51C260.38 973.91 260.716 972.95 260.716 971.63ZM288.962 976.508C288.962 979.148 288.584 981.452 287.828 983.42C287.072 985.376 285.95 986.9 284.462 987.992C282.986 989.072 281.156 989.612 278.972 989.612C276.8 989.612 274.97 989.084 273.482 988.028C271.994 986.96 270.872 985.448 270.116 983.492C269.36 981.536 268.982 979.208 268.982 976.508C268.982 973.868 269.36 971.57 270.116 969.614C270.872 967.658 271.994 966.14 273.482 965.06C274.97 963.968 276.8 963.422 278.972 963.422C281.156 963.422 282.986 963.95 284.462 965.006C285.95 966.062 287.072 967.568 287.828 969.524C288.584 971.48 288.962 973.808 288.962 976.508ZM282.914 976.508C282.914 973.436 282.608 971.204 281.996 969.812C281.384 968.42 280.376 967.724 278.972 967.724C277.568 967.724 276.56 968.426 275.948 969.83C275.336 971.222 275.03 973.448 275.03 976.508C275.03 979.58 275.342 981.812 275.966 983.204C276.59 984.596 277.592 985.292 278.972 985.292C280.412 985.292 281.426 984.59 282.014 983.186C282.614 981.77 282.914 979.544 282.914 976.508ZM304.32 976.4C304.32 974.72 304.176 973.352 303.888 972.296C303.612 971.24 303.222 970.424 302.718 969.848C302.226 969.272 301.644 968.876 300.972 968.66C300.3 968.444 299.574 968.336 298.794 968.336H297.534V984.734H298.794C299.61 984.734 300.354 984.608 301.026 984.356C301.71 984.092 302.298 983.654 302.79 983.042C303.282 982.418 303.66 981.566 303.924 980.486C304.188 979.406 304.32 978.044 304.32 976.4ZM310.44 976.4C310.44 978.428 310.224 980.168 309.792 981.62C309.36 983.06 308.754 984.26 307.974 985.22C307.206 986.18 306.312 986.936 305.292 987.488C304.272 988.04 303.174 988.43 301.998 988.658C300.822 988.886 299.61 989 298.362 989H291.63V964.052H297.93C299.526 964.052 301.068 964.22 302.556 964.556C304.056 964.88 305.394 965.486 306.57 966.374C307.758 967.25 308.7 968.498 309.396 970.118C310.092 971.726 310.44 973.82 310.44 976.4ZM331.432 964.052V980.648C331.432 982.352 331.084 983.882 330.388 985.238C329.704 986.582 328.672 987.65 327.292 988.442C325.924 989.222 324.208 989.612 322.144 989.612C320.068 989.612 318.34 989.234 316.96 988.478C315.592 987.722 314.566 986.672 313.882 985.328C313.198 983.984 312.856 982.424 312.856 980.648V964.052H318.778V978.452C318.778 980.696 318.982 982.388 319.39 983.528C319.798 984.656 320.716 985.22 322.144 985.22C323.572 985.22 324.49 984.656 324.898 983.528C325.306 982.388 325.51 980.696 325.51 978.452V964.052H331.432ZM345.818 963.422C347.606 963.422 349.124 963.662 350.372 964.142C351.632 964.61 352.784 965.276 353.828 966.14L350.93 969.632C350.246 969.068 349.49 968.624 348.662 968.3C347.834 967.964 346.934 967.796 345.962 967.796C344.918 967.796 343.964 968.096 343.1 968.696C342.236 969.284 341.546 970.22 341.03 971.504C340.514 972.776 340.256 974.432 340.256 976.472C340.256 978.476 340.502 980.114 340.994 981.386C341.498 982.646 342.188 983.576 343.064 984.176C343.94 984.764 344.942 985.058 346.07 985.058C347.318 985.058 348.356 984.824 349.184 984.356C350.012 983.888 350.774 983.378 351.47 982.826L354.152 986.246C353.216 987.17 352.064 987.962 350.696 988.622C349.328 989.282 347.678 989.612 345.746 989.612C343.49 989.612 341.486 989.114 339.734 988.118C337.994 987.11 336.626 985.634 335.63 983.69C334.646 981.734 334.154 979.328 334.154 976.472C334.154 973.688 334.664 971.324 335.684 969.38C336.716 967.436 338.114 965.96 339.878 964.952C341.642 963.932 343.622 963.422 345.818 963.422ZM368.232 968.57V989H362.328V968.57H355.326V964.052H375.522L374.91 968.57H368.232ZM395.002 964.052V968.372H389.854V984.662H395.002V989H378.802V984.662H383.95V968.372H378.802V964.052H395.002ZM418.478 976.508C418.478 979.148 418.1 981.452 417.344 983.42C416.588 985.376 415.466 986.9 413.978 987.992C412.502 989.072 410.672 989.612 408.488 989.612C406.316 989.612 404.486 989.084 402.998 988.028C401.51 986.96 400.388 985.448 399.632 983.492C398.876 981.536 398.498 979.208 398.498 976.508C398.498 973.868 398.876 971.57 399.632 969.614C400.388 967.658 401.51 966.14 402.998 965.06C404.486 963.968 406.316 963.422 408.488 963.422C410.672 963.422 412.502 963.95 413.978 965.006C415.466 966.062 416.588 967.568 417.344 969.524C418.1 971.48 418.478 973.808 418.478 976.508ZM412.43 976.508C412.43 973.436 412.124 971.204 411.512 969.812C410.9 968.42 409.892 967.724 408.488 967.724C407.084 967.724 406.076 968.426 405.464 969.83C404.852 971.222 404.546 973.448 404.546 976.508C404.546 979.58 404.858 981.812 405.482 983.204C406.106 984.596 407.108 985.292 408.488 985.292C409.928 985.292 410.942 984.59 411.53 983.186C412.13 981.77 412.43 979.544 412.43 976.508ZM431.837 989L425.267 968.93C425.351 969.47 425.441 970.124 425.537 970.892C425.645 971.648 425.747 972.494 425.843 973.43C425.939 974.354 426.017 975.338 426.077 976.382C426.137 977.426 426.167 978.494 426.167 979.586V989H421.145V964.052H428.507L434.879 984.014C434.747 983.258 434.609 982.358 434.465 981.314C434.333 980.258 434.219 979.082 434.123 977.786C434.027 976.49 433.979 975.098 433.979 973.61V964.052H439.001V989H431.837ZM472.255 968.264V974.87H481.003V979.1H472.255V989H466.333V964.052H482.731L482.119 968.264H472.255ZM487.379 989V964.052H493.283V984.338H504.101L503.489 989H487.379ZM526.407 976.508C526.407 979.148 526.029 981.452 525.273 983.42C524.517 985.376 523.395 986.9 521.907 987.992C520.431 989.072 518.601 989.612 516.417 989.612C514.245 989.612 512.415 989.084 510.927 988.028C509.439 986.96 508.317 985.448 507.561 983.492C506.805 981.536 506.427 979.208 506.427 976.508C506.427 973.868 506.805 971.57 507.561 969.614C508.317 967.658 509.439 966.14 510.927 965.06C512.415 963.968 514.245 963.422 516.417 963.422C518.601 963.422 520.431 963.95 521.907 965.006C523.395 966.062 524.517 967.568 525.273 969.524C526.029 971.48 526.407 973.808 526.407 976.508ZM520.359 976.508C520.359 973.436 520.053 971.204 519.441 969.812C518.829 968.42 517.821 967.724 516.417 967.724C515.013 967.724 514.005 968.426 513.393 969.83C512.781 971.222 512.475 973.448 512.475 976.508C512.475 979.58 512.787 981.812 513.411 983.204C514.035 984.596 515.037 985.292 516.417 985.292C517.857 985.292 518.871 984.59 519.459 983.186C520.059 981.77 520.359 979.544 520.359 976.508ZM548.911 964.052L545.995 989H539.857L538.039 971.162L536.041 989H529.795L527.095 964.052H532.621L533.467 983.96L535.537 966.932H540.613L542.539 983.96L543.781 964.052H548.911ZM584.937 976.4C584.937 974.72 584.793 973.352 584.505 972.296C584.229 971.24 583.839 970.424 583.335 969.848C582.843 969.272 582.261 968.876 581.589 968.66C580.917 968.444 580.191 968.336 579.411 968.336H578.151V984.734H579.411C580.227 984.734 580.971 984.608 581.643 984.356C582.327 984.092 582.915 983.654 583.407 983.042C583.899 982.418 584.277 981.566 584.541 980.486C584.805 979.406 584.937 978.044 584.937 976.4ZM591.057 976.4C591.057 978.428 590.841 980.168 590.409 981.62C589.977 983.06 589.371 984.26 588.591 985.22C587.823 986.18 586.929 986.936 585.909 987.488C584.889 988.04 583.791 988.43 582.615 988.658C581.439 988.886 580.227 989 578.979 989H572.247V964.052H578.547C580.143 964.052 581.685 964.22 583.173 964.556C584.673 964.88 586.011 965.486 587.187 966.374C588.375 967.25 589.317 968.498 590.013 970.118C590.709 971.726 591.057 973.82 591.057 976.4ZM610.861 964.052V968.372H605.713V984.662H610.861V989H594.661V984.662H599.809V968.372H594.661V964.052H610.861ZM633.761 971.63C633.761 972.818 633.539 973.856 633.095 974.744C632.651 975.632 632.051 976.382 631.295 976.994C630.539 977.606 629.693 978.098 628.757 978.47L635.291 989H628.613L623.213 979.46H621.539V989H615.635V964.052H623.483C626.879 964.052 629.441 964.67 631.169 965.906C632.897 967.142 633.761 969.05 633.761 971.63ZM627.677 971.63C627.677 970.43 627.323 969.56 626.615 969.02C625.919 968.468 624.881 968.192 623.501 968.192H621.539V975.41H623.735C625.019 975.41 625.997 975.11 626.669 974.51C627.341 973.91 627.677 972.95 627.677 971.63ZM644.385 968.264V974.258H653.025V978.398H644.385V984.77H654.807V989H638.481V964.052H654.789L654.195 968.264H644.385ZM669.607 963.422C671.395 963.422 672.913 963.662 674.161 964.142C675.421 964.61 676.573 965.276 677.617 966.14L674.719 969.632C674.035 969.068 673.279 968.624 672.451 968.3C671.623 967.964 670.723 967.796 669.751 967.796C668.707 967.796 667.753 968.096 666.889 968.696C666.025 969.284 665.335 970.22 664.819 971.504C664.303 972.776 664.045 974.432 664.045 976.472C664.045 978.476 664.291 980.114 664.783 981.386C665.287 982.646 665.977 983.576 666.853 984.176C667.729 984.764 668.731 985.058 669.859 985.058C671.107 985.058 672.145 984.824 672.973 984.356C673.801 983.888 674.563 983.378 675.259 982.826L677.941 986.246C677.005 987.17 675.853 987.962 674.485 988.622C673.117 989.282 671.467 989.612 669.535 989.612C667.279 989.612 665.275 989.114 663.523 988.118C661.783 987.11 660.415 985.634 659.419 983.69C658.435 981.734 657.943 979.328 657.943 976.472C657.943 973.688 658.453 971.324 659.473 969.38C660.505 967.436 661.903 965.96 663.667 964.952C665.431 963.932 667.411 963.422 669.607 963.422ZM692.021 968.57V989H686.117V968.57H679.115V964.052H699.311L698.699 968.57H692.021ZM718.791 964.052V968.372H713.643V984.662H718.791V989H702.591V984.662H707.739V968.372H702.591V964.052H718.791ZM742.267 976.508C742.267 979.148 741.889 981.452 741.133 983.42C740.377 985.376 739.255 986.9 737.767 987.992C736.291 989.072 734.461 989.612 732.277 989.612C730.105 989.612 728.275 989.084 726.787 988.028C725.299 986.96 724.177 985.448 723.421 983.492C722.665 981.536 722.287 979.208 722.287 976.508C722.287 973.868 722.665 971.57 723.421 969.614C724.177 967.658 725.299 966.14 726.787 965.06C728.275 963.968 730.105 963.422 732.277 963.422C734.461 963.422 736.291 963.95 737.767 965.006C739.255 966.062 740.377 967.568 741.133 969.524C741.889 971.48 742.267 973.808 742.267 976.508ZM736.219 976.508C736.219 973.436 735.913 971.204 735.301 969.812C734.689 968.42 733.681 967.724 732.277 967.724C730.873 967.724 729.865 968.426 729.253 969.83C728.641 971.222 728.335 973.448 728.335 976.508C728.335 979.58 728.647 981.812 729.271 983.204C729.895 984.596 730.897 985.292 732.277 985.292C733.717 985.292 734.731 984.59 735.319 983.186C735.919 981.77 736.219 979.544 736.219 976.508ZM755.627 989L749.057 968.93C749.141 969.47 749.231 970.124 749.327 970.892C749.435 971.648 749.537 972.494 749.633 973.43C749.729 974.354 749.807 975.338 749.867 976.382C749.927 977.426 749.957 978.494 749.957 979.586V989H744.935V964.052H752.297L758.669 984.014C758.537 983.258 758.399 982.358 758.255 981.314C758.123 980.258 758.009 979.082 757.913 977.786C757.817 976.49 757.769 975.098 757.769 973.61V964.052H762.791V989H755.627Z" fill="#041BB0"/>
<path d="M100 608L100 1279" stroke="#041BB0" stroke-width="15"/>
<rect width="50" height="50" transform="matrix(0 1 -1 0 275 1060)" fill="#DBDFFF"/>
<rect x="274" y="1061" width="48" height="48" transform="rotate(90 274 1061)" stroke="black" stroke-width="2"/>
<path d="M255.506 1081.08L254.444 1089.06H257.36V1091.4H254.102L253.346 1097.5H250.754L251.564 1091.4H246.326L245.534 1097.5H242.942L243.752 1091.4H240.908V1089.06H244.058L245.156 1081.08H242.24V1078.73H245.462L246.254 1072.71H248.846L247.982 1078.73H253.274L254.066 1072.71H256.658L255.812 1078.73H258.692V1081.08H255.506ZM246.632 1089.06H251.87L252.968 1081.08H247.694L246.632 1089.06Z" fill="black"/>
<path d="M318.314 1091.14C318.314 1092.56 317.96 1093.82 317.252 1094.92C316.544 1096.01 315.518 1096.87 314.174 1097.5C312.83 1098.11 311.192 1098.41 309.26 1098.41C307.448 1098.41 305.804 1098.14 304.328 1097.59C302.864 1097.03 301.61 1096.25 300.566 1095.25L302.42 1093.16C303.284 1093.96 304.274 1094.6 305.39 1095.08C306.506 1095.55 307.814 1095.79 309.314 1095.79C310.322 1095.79 311.264 1095.62 312.14 1095.3C313.016 1094.96 313.724 1094.46 314.264 1093.79C314.804 1093.1 315.074 1092.24 315.074 1091.2C315.074 1090.39 314.918 1089.71 314.606 1089.14C314.294 1088.58 313.742 1088.08 312.95 1087.65C312.158 1087.21 311.054 1086.77 309.638 1086.35C308.006 1085.87 306.59 1085.33 305.39 1084.73C304.202 1084.12 303.278 1083.37 302.618 1082.48C301.97 1081.6 301.646 1080.5 301.646 1079.19C301.646 1077.95 301.988 1076.86 302.672 1075.9C303.356 1074.94 304.298 1074.19 305.498 1073.65C306.71 1073.09 308.102 1072.82 309.674 1072.82C311.39 1072.82 312.878 1073.06 314.138 1073.56C315.41 1074.04 316.562 1074.73 317.594 1075.64L315.758 1077.68C314.87 1076.89 313.916 1076.32 312.896 1075.97C311.876 1075.61 310.838 1075.43 309.782 1075.43C308.882 1075.43 308.054 1075.57 307.298 1075.84C306.554 1076.11 305.954 1076.51 305.498 1077.05C305.054 1077.58 304.832 1078.25 304.832 1079.08C304.832 1079.79 305.024 1080.4 305.408 1080.92C305.792 1081.43 306.44 1081.91 307.352 1082.34C308.264 1082.76 309.506 1083.2 311.078 1083.67C312.362 1084.04 313.55 1084.51 314.642 1085.08C315.746 1085.63 316.634 1086.38 317.306 1087.34C317.978 1088.29 318.314 1089.56 318.314 1091.14ZM339.252 1097.05C338.604 1097.48 337.818 1097.81 336.894 1098.05C335.97 1098.29 335.064 1098.41 334.176 1098.41C332.136 1098.41 330.564 1097.88 329.46 1096.81C328.356 1095.74 327.804 1094.37 327.804 1092.69V1081.39H323.448V1079.05H327.804V1074.74L330.828 1074.38V1079.05H337.38L337.02 1081.39H330.828V1092.65C330.828 1093.71 331.104 1094.51 331.656 1095.07C332.22 1095.62 333.15 1095.89 334.446 1095.89C335.154 1095.89 335.808 1095.81 336.408 1095.64C337.008 1095.47 337.566 1095.26 338.082 1094.99L339.252 1097.05ZM359.362 1093.86C359.362 1094.62 359.488 1095.17 359.74 1095.52C359.992 1095.86 360.382 1096.12 360.91 1096.29L360.172 1098.41C359.356 1098.31 358.642 1098.05 358.03 1097.64C357.418 1097.22 356.974 1096.59 356.698 1095.75C356.014 1096.63 355.162 1097.29 354.142 1097.75C353.122 1098.19 351.994 1098.41 350.758 1098.41C348.862 1098.41 347.368 1097.88 346.276 1096.81C345.184 1095.74 344.638 1094.33 344.638 1092.56C344.638 1090.61 345.4 1089.11 346.924 1088.06C348.448 1087.02 350.65 1086.5 353.53 1086.5H356.32V1084.91C356.32 1083.55 355.918 1082.58 355.114 1082.02C354.322 1081.44 353.218 1081.15 351.802 1081.15C351.178 1081.15 350.446 1081.23 349.606 1081.39C348.766 1081.53 347.854 1081.78 346.87 1082.12L346.078 1079.84C347.242 1079.41 348.334 1079.1 349.354 1078.92C350.374 1078.74 351.346 1078.65 352.27 1078.65C354.634 1078.65 356.404 1079.2 357.58 1080.31C358.768 1081.4 359.362 1082.89 359.362 1084.77V1093.86ZM351.532 1096.11C352.468 1096.11 353.362 1095.88 354.214 1095.41C355.066 1094.93 355.768 1094.27 356.32 1093.43V1088.55H353.584C351.496 1088.55 350.02 1088.91 349.156 1089.63C348.304 1090.35 347.878 1091.32 347.878 1092.53C347.878 1093.7 348.178 1094.6 348.778 1095.21C349.39 1095.81 350.308 1096.11 351.532 1096.11ZM382.424 1097.05C381.776 1097.48 380.99 1097.81 380.066 1098.05C379.142 1098.29 378.236 1098.41 377.348 1098.41C375.308 1098.41 373.736 1097.88 372.632 1096.81C371.528 1095.74 370.976 1094.37 370.976 1092.69V1081.39H366.62V1079.05H370.976V1074.74L374 1074.38V1079.05H380.552L380.192 1081.39H374V1092.65C374 1093.71 374.276 1094.51 374.828 1095.07C375.392 1095.62 376.322 1095.89 377.618 1095.89C378.326 1095.89 378.98 1095.81 379.58 1095.64C380.18 1095.47 380.738 1095.26 381.254 1094.99L382.424 1097.05ZM398.556 1079.05V1095.61H403.902V1098H389.682V1095.61H395.532V1081.44H389.862V1079.05H398.556ZM396.144 1070.17C396.816 1070.17 397.35 1070.38 397.746 1070.78C398.154 1071.19 398.358 1071.69 398.358 1072.28C398.358 1072.89 398.154 1073.41 397.746 1073.83C397.35 1074.23 396.816 1074.44 396.144 1074.44C395.508 1074.44 394.986 1074.23 394.578 1073.83C394.17 1073.41 393.966 1072.89 393.966 1072.28C393.966 1071.69 394.17 1071.19 394.578 1070.78C394.986 1070.38 395.508 1070.17 396.144 1070.17ZM417.766 1078.65C419.554 1078.65 421.048 1079.06 422.248 1079.87C423.46 1080.68 424.366 1081.82 424.966 1083.29C425.578 1084.77 425.884 1086.51 425.884 1088.51C425.884 1090.45 425.572 1092.16 424.948 1093.64C424.324 1095.13 423.406 1096.3 422.194 1097.15C420.994 1097.99 419.506 1098.41 417.73 1098.41C415.954 1098.41 414.46 1098.01 413.248 1097.19C412.036 1096.37 411.118 1095.23 410.494 1093.75C409.882 1092.26 409.576 1090.53 409.576 1088.55C409.576 1086.59 409.888 1084.87 410.512 1083.38C411.136 1081.9 412.054 1080.74 413.266 1079.91C414.49 1079.07 415.99 1078.65 417.766 1078.65ZM417.766 1081.12C416.134 1081.12 414.898 1081.72 414.058 1082.93C413.23 1084.13 412.816 1086.01 412.816 1088.55C412.816 1091.05 413.224 1092.9 414.04 1094.11C414.868 1095.32 416.098 1095.93 417.73 1095.93C419.362 1095.93 420.586 1095.32 421.402 1094.11C422.23 1092.9 422.644 1091.03 422.644 1088.51C422.644 1085.99 422.236 1084.13 421.42 1082.93C420.604 1081.72 419.386 1081.12 417.766 1081.12ZM432.134 1098V1079.05H434.708L434.942 1081.67C435.71 1080.7 436.67 1079.96 437.822 1079.44C438.986 1078.91 440.114 1078.65 441.206 1078.65C443.066 1078.65 444.416 1079.14 445.256 1080.13C446.108 1081.11 446.534 1082.48 446.534 1084.23V1098H443.51V1086.46C443.51 1085.17 443.438 1084.12 443.294 1083.33C443.15 1082.53 442.85 1081.94 442.394 1081.58C441.938 1081.21 441.23 1081.03 440.27 1081.03C439.526 1081.03 438.824 1081.19 438.164 1081.51C437.516 1081.84 436.934 1082.24 436.418 1082.74C435.914 1083.22 435.494 1083.7 435.158 1084.19V1098H432.134ZM485.908 1098L477.178 1076.2C477.19 1076.48 477.214 1076.94 477.25 1077.59C477.298 1078.22 477.346 1078.99 477.394 1079.87C477.454 1080.75 477.502 1081.68 477.538 1082.66C477.574 1083.65 477.592 1084.62 477.592 1085.58V1098H474.694V1073.21H478.924L487.798 1095.1C487.786 1094.75 487.744 1094.12 487.672 1093.19C487.6 1092.26 487.534 1091.13 487.474 1089.81C487.414 1088.49 487.384 1087.09 487.384 1085.62V1073.21H490.281V1098H485.908ZM499.915 1079.05V1092.47C499.915 1093.72 500.173 1094.62 500.689 1095.17C501.205 1095.73 502.009 1096 503.101 1096C504.145 1096 505.129 1095.71 506.053 1095.12C506.989 1094.52 507.715 1093.81 508.231 1093V1079.05H511.255V1098H508.681L508.429 1095.44C507.685 1096.4 506.767 1097.14 505.675 1097.66C504.583 1098.16 503.479 1098.41 502.363 1098.41C500.527 1098.41 499.153 1097.93 498.241 1096.96C497.341 1095.97 496.891 1094.6 496.891 1092.83V1079.05H499.915ZM530.969 1078.65C531.581 1078.65 532.163 1078.78 532.715 1079.05C533.279 1079.31 533.741 1079.82 534.101 1080.58C534.461 1081.33 534.641 1082.44 534.641 1083.89V1098H531.833V1084.37C531.833 1083.19 531.761 1082.33 531.617 1081.8C531.473 1081.27 531.059 1081.01 530.375 1081.01C529.811 1081.01 529.247 1081.19 528.683 1081.55C528.131 1081.9 527.591 1082.47 527.063 1083.28V1098H524.237V1084.37C524.237 1083.19 524.165 1082.33 524.021 1081.8C523.877 1081.27 523.463 1081.01 522.779 1081.01C522.191 1081.01 521.621 1081.19 521.069 1081.55C520.529 1081.9 519.995 1082.47 519.467 1083.28V1098H516.677V1079.05H519.053L519.233 1081.24C519.749 1080.51 520.325 1079.9 520.961 1079.41C521.609 1078.9 522.407 1078.65 523.355 1078.65C524.075 1078.65 524.753 1078.82 525.389 1079.17C526.025 1079.51 526.493 1080.17 526.793 1081.15C527.309 1080.41 527.891 1079.81 528.539 1079.35C529.187 1078.88 529.997 1078.65 530.969 1078.65ZM543.087 1081.51C543.783 1080.6 544.581 1079.9 545.481 1079.41C546.393 1078.9 547.395 1078.65 548.487 1078.65C550.179 1078.65 551.547 1079.06 552.591 1079.87C553.635 1080.69 554.397 1081.84 554.877 1083.33C555.357 1084.81 555.597 1086.53 555.597 1088.51C555.597 1090.42 555.309 1092.13 554.733 1093.63C554.157 1095.11 553.311 1096.28 552.195 1097.14C551.091 1097.99 549.723 1098.41 548.091 1098.41C545.895 1098.41 544.173 1097.62 542.925 1096.04L542.709 1098H540.063V1071.41L543.087 1071.04V1081.51ZM547.371 1095.97C548.955 1095.97 550.173 1095.35 551.025 1094.13C551.877 1092.91 552.303 1091.03 552.303 1088.5C552.303 1086.84 552.135 1085.47 551.799 1084.37C551.463 1083.27 550.959 1082.45 550.287 1081.91C549.627 1081.36 548.811 1081.08 547.839 1081.08C546.783 1081.08 545.853 1081.4 545.049 1082.03C544.257 1082.66 543.603 1083.35 543.087 1084.12V1093.52C543.579 1094.26 544.197 1094.86 544.941 1095.3C545.697 1095.74 546.507 1095.97 547.371 1095.97ZM564.025 1089.59C564.085 1091.06 564.367 1092.26 564.871 1093.19C565.375 1094.12 566.041 1094.8 566.869 1095.25C567.697 1095.68 568.597 1095.89 569.569 1095.89C570.541 1095.89 571.417 1095.75 572.197 1095.46C572.989 1095.17 573.799 1094.75 574.627 1094.18L576.049 1096.18C575.161 1096.88 574.147 1097.42 573.007 1097.82C571.879 1098.22 570.721 1098.41 569.533 1098.41C567.697 1098.41 566.131 1098 564.835 1097.17C563.539 1096.34 562.549 1095.19 561.865 1093.72C561.193 1092.23 560.857 1090.51 560.857 1088.55C560.857 1086.63 561.199 1084.93 561.883 1083.44C562.567 1081.95 563.527 1080.78 564.763 1079.93C565.999 1079.08 567.457 1078.65 569.137 1078.65C570.733 1078.65 572.107 1079.03 573.259 1079.78C574.411 1080.53 575.293 1081.6 575.905 1082.99C576.529 1084.37 576.841 1086.02 576.841 1087.94C576.841 1088.26 576.835 1088.57 576.823 1088.86C576.811 1089.13 576.793 1089.38 576.769 1089.59H564.025ZM569.173 1081.13C567.769 1081.13 566.593 1081.63 565.645 1082.63C564.709 1083.62 564.175 1085.17 564.043 1087.25H573.925C573.889 1085.23 573.445 1083.7 572.593 1082.68C571.741 1081.65 570.601 1081.13 569.173 1081.13ZM583.415 1098V1095.68H586.367V1081.37H583.415V1079.05H588.671L589.229 1083.53C589.961 1081.97 590.849 1080.76 591.893 1079.91C592.937 1079.06 594.317 1078.63 596.033 1078.63C596.561 1078.63 597.029 1078.67 597.437 1078.76C597.857 1078.83 598.283 1078.93 598.715 1079.05L597.833 1081.75C597.437 1081.64 597.077 1081.56 596.753 1081.51C596.429 1081.45 596.057 1081.42 595.637 1081.42C594.185 1081.42 592.937 1081.94 591.893 1082.97C590.849 1084 590.015 1085.56 589.391 1087.65V1095.68H593.243V1098H583.415ZM595.799 1085.45V1081.33L596.105 1079.05H598.715L598.283 1085.45H595.799Z" fill="black"/>
</g>
<defs>
<clipPath id="clip0_94_367">
<rect width="1500" height="1216" fill="white"/>
</clipPath>
</defs>
</svg>
