<svg width="1500" height="1216" viewBox="0 0 1500 1216" fill="none" xmlns="http://www.w3.org/2000/svg">
<rect width="1500" height="1216" fill="white"/>
<path d="M632.988 260.528V272.516H650.268V280.796H632.988V293.54H653.832V302H621.18V252.104H653.796L652.608 260.528H632.988ZM662.696 302V263.768H672.632L673.424 268.196C675.128 266.276 676.928 264.848 678.824 263.912C680.72 262.976 682.88 262.508 685.304 262.508C688.568 262.508 691.136 263.504 693.008 265.496C694.88 267.488 695.816 270.296 695.816 273.92V302H684.44V277.196C684.44 275.636 684.332 274.4 684.116 273.488C683.9 272.552 683.516 271.892 682.964 271.508C682.436 271.1 681.704 270.896 680.768 270.896C679.976 270.896 679.196 271.076 678.428 271.436C677.684 271.772 676.952 272.264 676.232 272.912C675.512 273.56 674.792 274.34 674.072 275.252V302H662.696ZM739.816 257.648L742.48 266C741.136 266.528 739.564 266.912 737.764 267.152C735.964 267.392 733.864 267.512 731.464 267.512C733.864 268.544 735.688 269.828 736.936 271.364C738.208 272.876 738.844 274.868 738.844 277.34C738.844 279.812 738.184 282.02 736.864 283.964C735.544 285.884 733.672 287.396 731.248 288.5C728.824 289.604 725.956 290.156 722.644 290.156C721.828 290.156 721.06 290.12 720.34 290.048C719.62 289.976 718.912 289.868 718.216 289.724C717.808 289.94 717.496 290.252 717.28 290.66C717.064 291.068 716.956 291.488 716.956 291.92C716.956 292.52 717.196 293.06 717.676 293.54C718.18 294.02 719.344 294.26 721.168 294.26H727.432C730.408 294.26 732.976 294.74 735.136 295.7C737.32 296.66 739.012 297.968 740.212 299.624C741.412 301.28 742.012 303.176 742.012 305.312C742.012 309.224 740.296 312.308 736.864 314.564C733.432 316.82 728.332 317.948 721.564 317.948C716.668 317.948 712.876 317.444 710.188 316.436C707.524 315.452 705.664 314.036 704.608 312.188C703.576 310.364 703.06 308.192 703.06 305.672H713.14C713.14 306.776 713.356 307.676 713.788 308.372C714.244 309.092 715.096 309.62 716.344 309.956C717.616 310.292 719.452 310.46 721.852 310.46C724.276 310.46 726.124 310.268 727.396 309.884C728.668 309.5 729.532 308.972 729.988 308.3C730.468 307.652 730.708 306.92 730.708 306.104C730.708 304.976 730.264 304.064 729.376 303.368C728.488 302.672 727.084 302.324 725.164 302.324H719.08C714.952 302.324 711.952 301.568 710.08 300.056C708.208 298.52 707.272 296.732 707.272 294.692C707.272 293.276 707.644 291.932 708.388 290.66C709.156 289.388 710.224 288.32 711.592 287.456C709.144 286.16 707.392 284.636 706.336 282.884C705.28 281.108 704.752 278.984 704.752 276.512C704.752 273.632 705.484 271.16 706.948 269.096C708.412 267.008 710.428 265.4 712.996 264.272C715.588 263.144 718.54 262.58 721.852 262.58C724.708 262.628 727.192 262.436 729.304 262.004C731.416 261.548 733.312 260.936 734.992 260.168C736.672 259.376 738.28 258.536 739.816 257.648ZM722.14 269.96C720.34 269.96 718.912 270.536 717.856 271.688C716.8 272.816 716.272 274.376 716.272 276.368C716.272 278.48 716.812 280.1 717.892 281.228C718.972 282.356 720.388 282.92 722.14 282.92C724.036 282.92 725.476 282.356 726.46 281.228C727.468 280.1 727.972 278.432 727.972 276.224C727.972 274.088 727.48 272.516 726.496 271.508C725.512 270.476 724.06 269.96 722.14 269.96ZM772.404 263.768V294.224H782.124V302H750.192V294.224H761.028V271.544H750.552V263.768H772.404ZM765.528 243.752C767.496 243.752 769.104 244.364 770.352 245.588C771.6 246.812 772.224 248.336 772.224 250.16C772.224 251.984 771.6 253.52 770.352 254.768C769.104 255.992 767.496 256.604 765.528 256.604C763.536 256.604 761.904 255.992 760.632 254.768C759.384 253.52 758.76 251.984 758.76 250.16C758.76 248.336 759.384 246.812 760.632 245.588C761.904 244.364 763.536 243.752 765.528 243.752ZM792.212 302V263.768H802.148L802.94 268.196C804.644 266.276 806.444 264.848 808.34 263.912C810.236 262.976 812.396 262.508 814.82 262.508C818.084 262.508 820.652 263.504 822.524 265.496C824.396 267.488 825.332 270.296 825.332 273.92V302H813.956V277.196C813.956 275.636 813.848 274.4 813.632 273.488C813.416 272.552 813.032 271.892 812.48 271.508C811.952 271.1 811.22 270.896 810.284 270.896C809.492 270.896 808.712 271.076 807.944 271.436C807.2 271.772 806.468 272.264 805.748 272.912C805.028 273.56 804.308 274.34 803.588 275.252V302H792.212ZM845.248 286.196C845.512 288.284 846.052 289.976 846.868 291.272C847.708 292.544 848.776 293.48 850.072 294.08C851.368 294.656 852.82 294.944 854.428 294.944C856.18 294.944 857.872 294.656 859.504 294.08C861.136 293.504 862.708 292.736 864.22 291.776L868.792 297.968C866.992 299.504 864.808 300.764 862.24 301.748C859.696 302.732 856.792 303.224 853.528 303.224C849.16 303.224 845.5 302.36 842.548 300.632C839.596 298.88 837.376 296.48 835.888 293.432C834.4 290.384 833.656 286.88 833.656 282.92C833.656 279.152 834.376 275.732 835.816 272.66C837.256 269.564 839.356 267.104 842.116 265.28C844.9 263.432 848.296 262.508 852.304 262.508C855.952 262.508 859.108 263.288 861.772 264.848C864.46 266.408 866.536 268.652 868 271.58C869.488 274.508 870.232 278.024 870.232 282.128C870.232 282.776 870.208 283.472 870.16 284.216C870.136 284.96 870.088 285.62 870.016 286.196H845.248ZM852.304 270.14C850.264 270.14 848.62 270.872 847.372 272.336C846.124 273.8 845.368 276.14 845.104 279.356H859.144C859.12 276.572 858.58 274.34 857.524 272.66C856.468 270.98 854.728 270.14 852.304 270.14Z" fill="black"/>
<rect x="1268.5" y="390.5" width="435" height="1035" transform="rotate(90 1268.5 390.5)" fill="white"/>
<rect x="1268.5" y="390.5" width="435" height="1035" transform="rotate(90 1268.5 390.5)" stroke="black" stroke-width="15"/>
<rect x="1045" y="511" width="194" height="294" transform="rotate(90 1045 511)" stroke="black" stroke-width="6"/>
<path d="M903.306 557.428V605.56H897.258V563.98L885.882 570.892L883.254 566.572L898.014 557.428H903.306ZM913.674 602.068V607H885.054V602.068H913.674Z" fill="black"/>
<rect x="751" y="511" width="194" height="294" transform="rotate(90 751 511)" stroke="black" stroke-width="6"/>
<path d="M601.818 556.636C604.938 556.636 607.602 557.236 609.81 558.436C612.042 559.636 613.758 561.28 614.958 563.368C616.158 565.456 616.758 567.82 616.758 570.46C616.758 572.74 616.362 574.972 615.57 577.156C614.778 579.316 613.506 581.596 611.754 583.996C610.026 586.372 607.746 589.012 604.914 591.916C602.106 594.82 598.65 598.132 594.546 601.852H617.91L617.154 607H587.67V602.068C591.414 598.492 594.594 595.36 597.21 592.672C599.85 589.984 602.022 587.632 603.726 585.616C605.454 583.576 606.798 581.728 607.758 580.072C608.742 578.416 609.426 576.844 609.81 575.356C610.194 573.844 610.386 572.284 610.386 570.676C610.386 567.892 609.594 565.696 608.01 564.088C606.45 562.48 604.29 561.676 601.53 561.676C599.082 561.676 597.078 562.096 595.518 562.936C593.958 563.776 592.398 565.12 590.838 566.968L586.662 563.728C588.63 561.328 590.814 559.552 593.214 558.4C595.614 557.224 598.482 556.636 601.818 556.636Z" fill="black"/>
<path d="M617.464 1019.54C615.512 1017.58 615.512 1014.42 617.464 1012.46L649.284 980.645C651.237 978.692 654.403 978.692 656.355 980.645C658.308 982.597 658.308 985.763 656.355 987.716L628.071 1016L656.355 1044.28C658.308 1046.24 658.308 1049.4 656.355 1051.36C654.403 1053.31 651.237 1053.31 649.284 1051.36L617.464 1019.54ZM1259.99 1021C1257.22 1021 1254.99 1018.76 1254.99 1016C1254.99 1013.24 1257.22 1011 1259.99 1011V1021ZM1238.63 1011C1241.39 1011 1243.63 1013.24 1243.63 1016C1243.63 1018.76 1241.39 1021 1238.63 1021V1011ZM1206.6 1021C1203.84 1021 1201.6 1018.76 1201.6 1016C1201.6 1013.24 1203.84 1011 1206.6 1011V1021ZM1185.25 1011C1188.01 1011 1190.25 1013.24 1190.25 1016C1190.25 1018.76 1188.01 1021 1185.25 1021V1011ZM1153.22 1021C1150.46 1021 1148.22 1018.76 1148.22 1016C1148.22 1013.24 1150.46 1011 1153.22 1011V1021ZM1131.87 1011C1134.63 1011 1136.87 1013.24 1136.87 1016C1136.87 1018.76 1134.63 1021 1131.87 1021V1011ZM1099.84 1021C1097.08 1021 1094.84 1018.76 1094.84 1016C1094.84 1013.24 1097.08 1011 1099.84 1011V1021ZM1078.49 1011C1081.25 1011 1083.49 1013.24 1083.49 1016C1083.49 1018.76 1081.25 1021 1078.49 1021V1011ZM1047.76 1021C1045 1021 1042.76 1018.76 1042.76 1016C1042.76 1013.24 1045 1011 1047.76 1011V1021ZM1028.14 1011C1030.9 1011 1033.14 1013.24 1033.14 1016C1033.14 1018.76 1030.9 1021 1028.14 1021V1011ZM998.707 1021C995.946 1021 993.707 1018.76 993.707 1016C993.707 1013.24 995.946 1011 998.707 1011V1021ZM979.086 1011C981.847 1011 984.086 1013.24 984.086 1016C984.086 1018.76 981.847 1021 979.086 1021V1011ZM949.654 1021C946.893 1021 944.654 1018.76 944.654 1016C944.654 1013.24 946.893 1011 949.654 1011V1021ZM930.033 1011C932.794 1011 935.033 1013.24 935.033 1016C935.033 1018.76 932.794 1021 930.033 1021V1011ZM900.601 1021C897.84 1021 895.601 1018.76 895.601 1016C895.601 1013.24 897.84 1011 900.601 1011V1021ZM880.98 1011C883.742 1011 885.98 1013.24 885.98 1016C885.98 1018.76 883.742 1021 880.98 1021V1011ZM851.548 1021C848.787 1021 846.548 1018.76 846.548 1016C846.548 1013.24 848.787 1011 851.548 1011V1021ZM831.927 1011C834.689 1011 836.927 1013.24 836.927 1016C836.927 1018.76 834.689 1021 831.927 1021V1011ZM802.496 1021C799.734 1021 797.496 1018.76 797.496 1016C797.496 1013.24 799.734 1011 802.496 1011V1021ZM782.874 1011C785.636 1011 787.874 1013.24 787.874 1016C787.874 1018.76 785.636 1021 782.874 1021V1011ZM753.443 1021C750.681 1021 748.443 1018.76 748.443 1016C748.443 1013.24 750.681 1011 753.443 1011V1021ZM733.822 1011C736.583 1011 738.822 1013.24 738.822 1016C738.822 1018.76 736.583 1021 733.822 1021V1011ZM704.39 1021C701.628 1021 699.39 1018.76 699.39 1016C699.39 1013.24 701.628 1011 704.39 1011V1021ZM684.769 1011C687.53 1011 689.769 1013.24 689.769 1016C689.769 1018.76 687.53 1021 684.769 1021V1011ZM655.337 1021C652.576 1021 650.337 1018.76 650.337 1016C650.337 1013.24 652.576 1011 655.337 1011V1021ZM635.716 1011C638.477 1011 640.716 1013.24 640.716 1016C640.716 1018.76 638.477 1021 635.716 1021V1011ZM1276 1016V1021H1259.99V1016V1011H1276V1016ZM1238.63 1016V1021H1206.6V1016V1011H1238.63V1016ZM1185.25 1016V1021H1153.22V1016V1011H1185.25V1016ZM1131.87 1016V1021H1099.84V1016V1011H1131.87V1016ZM1078.49 1016V1021H1062.48V1016V1011H1078.49V1016ZM1062.48 1016V1021H1047.76V1016V1011H1062.48V1016ZM1028.14 1016V1021H998.707V1016V1011H1028.14V1016ZM979.086 1016V1021H949.654V1016V1011H979.086V1016ZM930.033 1016V1021H900.601V1016V1011H930.033V1016ZM880.98 1016V1021H851.548V1016V1011H880.98V1016ZM831.927 1016V1021H802.496V1016V1011H831.927V1016ZM782.874 1016V1021H753.443V1016V1011H782.874V1016ZM733.822 1016V1021H704.39V1016V1011H733.822V1016ZM684.769 1016V1021H655.337V1016V1011H684.769V1016ZM635.716 1016V1021H621V1016V1011H635.716V1016Z" fill="#041BB0"/>
<path d="M750.67 969.188C750.67 968.3 750.502 967.568 750.166 966.992C749.842 966.404 749.344 965.972 748.672 965.696C748.012 965.408 747.178 965.264 746.17 965.264H744.154V973.418H746.476C747.352 973.418 748.102 973.268 748.726 972.968C749.35 972.668 749.83 972.206 750.166 971.582C750.502 970.958 750.67 970.16 750.67 969.188ZM756.754 969.17C756.754 971.102 756.34 972.698 755.512 973.958C754.684 975.218 753.526 976.16 752.038 976.784C750.55 977.396 748.822 977.702 746.854 977.702H744.154V986H738.25V961.052H746.098C749.482 961.052 752.104 961.724 753.964 963.068C755.824 964.412 756.754 966.446 756.754 969.17ZM777.8 968.63C777.8 969.818 777.578 970.856 777.134 971.744C776.69 972.632 776.09 973.382 775.334 973.994C774.578 974.606 773.732 975.098 772.796 975.47L779.33 986H772.652L767.252 976.46H765.578V986H759.674V961.052H767.522C770.918 961.052 773.48 961.67 775.208 962.906C776.936 964.142 777.8 966.05 777.8 968.63ZM771.716 968.63C771.716 967.43 771.362 966.56 770.654 966.02C769.958 965.468 768.92 965.192 767.54 965.192H765.578V972.41H767.774C769.058 972.41 770.036 972.11 770.708 971.51C771.38 970.91 771.716 969.95 771.716 968.63ZM799.962 973.508C799.962 976.148 799.584 978.452 798.828 980.42C798.072 982.376 796.95 983.9 795.462 984.992C793.986 986.072 792.156 986.612 789.972 986.612C787.8 986.612 785.97 986.084 784.482 985.028C782.994 983.96 781.872 982.448 781.116 980.492C780.36 978.536 779.982 976.208 779.982 973.508C779.982 970.868 780.36 968.57 781.116 966.614C781.872 964.658 782.994 963.14 784.482 962.06C785.97 960.968 787.8 960.422 789.972 960.422C792.156 960.422 793.986 960.95 795.462 962.006C796.95 963.062 798.072 964.568 798.828 966.524C799.584 968.48 799.962 970.808 799.962 973.508ZM793.914 973.508C793.914 970.436 793.608 968.204 792.996 966.812C792.384 965.42 791.376 964.724 789.972 964.724C788.568 964.724 787.56 965.426 786.948 966.83C786.336 968.222 786.03 970.448 786.03 973.508C786.03 976.58 786.342 978.812 786.966 980.204C787.59 981.596 788.592 982.292 789.972 982.292C791.412 982.292 792.426 981.59 793.014 980.186C793.614 978.77 793.914 976.544 793.914 973.508ZM815.32 973.4C815.32 971.72 815.176 970.352 814.888 969.296C814.612 968.24 814.222 967.424 813.718 966.848C813.226 966.272 812.644 965.876 811.972 965.66C811.3 965.444 810.574 965.336 809.794 965.336H808.534V981.734H809.794C810.61 981.734 811.354 981.608 812.026 981.356C812.71 981.092 813.298 980.654 813.79 980.042C814.282 979.418 814.66 978.566 814.924 977.486C815.188 976.406 815.32 975.044 815.32 973.4ZM821.44 973.4C821.44 975.428 821.224 977.168 820.792 978.62C820.36 980.06 819.754 981.26 818.974 982.22C818.206 983.18 817.312 983.936 816.292 984.488C815.272 985.04 814.174 985.43 812.998 985.658C811.822 985.886 810.61 986 809.362 986H802.63V961.052H808.93C810.526 961.052 812.068 961.22 813.556 961.556C815.056 961.88 816.394 962.486 817.57 963.374C818.758 964.25 819.7 965.498 820.396 967.118C821.092 968.726 821.44 970.82 821.44 973.4ZM842.432 961.052V977.648C842.432 979.352 842.084 980.882 841.388 982.238C840.704 983.582 839.672 984.65 838.292 985.442C836.924 986.222 835.208 986.612 833.144 986.612C831.068 986.612 829.34 986.234 827.96 985.478C826.592 984.722 825.566 983.672 824.882 982.328C824.198 980.984 823.856 979.424 823.856 977.648V961.052H829.778V975.452C829.778 977.696 829.982 979.388 830.39 980.528C830.798 981.656 831.716 982.22 833.144 982.22C834.572 982.22 835.49 981.656 835.898 980.528C836.306 979.388 836.51 977.696 836.51 975.452V961.052H842.432ZM856.818 960.422C858.606 960.422 860.124 960.662 861.372 961.142C862.632 961.61 863.784 962.276 864.828 963.14L861.93 966.632C861.246 966.068 860.49 965.624 859.662 965.3C858.834 964.964 857.934 964.796 856.962 964.796C855.918 964.796 854.964 965.096 854.1 965.696C853.236 966.284 852.546 967.22 852.03 968.504C851.514 969.776 851.256 971.432 851.256 973.472C851.256 975.476 851.502 977.114 851.994 978.386C852.498 979.646 853.188 980.576 854.064 981.176C854.94 981.764 855.942 982.058 857.07 982.058C858.318 982.058 859.356 981.824 860.184 981.356C861.012 980.888 861.774 980.378 862.47 979.826L865.152 983.246C864.216 984.17 863.064 984.962 861.696 985.622C860.328 986.282 858.678 986.612 856.746 986.612C854.49 986.612 852.486 986.114 850.734 985.118C848.994 984.11 847.626 982.634 846.63 980.69C845.646 978.734 845.154 976.328 845.154 973.472C845.154 970.688 845.664 968.324 846.684 966.38C847.716 964.436 849.114 962.96 850.878 961.952C852.642 960.932 854.622 960.422 856.818 960.422ZM879.232 965.57V986H873.328V965.57H866.326V961.052H886.522L885.91 965.57H879.232ZM906.002 961.052V965.372H900.854V981.662H906.002V986H889.802V981.662H894.95V965.372H889.802V961.052H906.002ZM929.478 973.508C929.478 976.148 929.1 978.452 928.344 980.42C927.588 982.376 926.466 983.9 924.978 984.992C923.502 986.072 921.672 986.612 919.488 986.612C917.316 986.612 915.486 986.084 913.998 985.028C912.51 983.96 911.388 982.448 910.632 980.492C909.876 978.536 909.498 976.208 909.498 973.508C909.498 970.868 909.876 968.57 910.632 966.614C911.388 964.658 912.51 963.14 913.998 962.06C915.486 960.968 917.316 960.422 919.488 960.422C921.672 960.422 923.502 960.95 924.978 962.006C926.466 963.062 927.588 964.568 928.344 966.524C929.1 968.48 929.478 970.808 929.478 973.508ZM923.43 973.508C923.43 970.436 923.124 968.204 922.512 966.812C921.9 965.42 920.892 964.724 919.488 964.724C918.084 964.724 917.076 965.426 916.464 966.83C915.852 968.222 915.546 970.448 915.546 973.508C915.546 976.58 915.858 978.812 916.482 980.204C917.106 981.596 918.108 982.292 919.488 982.292C920.928 982.292 921.942 981.59 922.53 980.186C923.13 978.77 923.43 976.544 923.43 973.508ZM942.837 986L936.267 965.93C936.351 966.47 936.441 967.124 936.537 967.892C936.645 968.648 936.747 969.494 936.843 970.43C936.939 971.354 937.017 972.338 937.077 973.382C937.137 974.426 937.167 975.494 937.167 976.586V986H932.145V961.052H939.507L945.879 981.014C945.747 980.258 945.609 979.358 945.465 978.314C945.333 977.258 945.219 976.082 945.123 974.786C945.027 973.49 944.979 972.098 944.979 970.61V961.052H950.001V986H942.837ZM983.255 965.264V971.87H992.003V976.1H983.255V986H977.333V961.052H993.731L993.119 965.264H983.255ZM998.379 986V961.052H1004.28V981.338H1015.1L1014.49 986H998.379ZM1037.41 973.508C1037.41 976.148 1037.03 978.452 1036.27 980.42C1035.52 982.376 1034.4 983.9 1032.91 984.992C1031.43 986.072 1029.6 986.612 1027.42 986.612C1025.25 986.612 1023.42 986.084 1021.93 985.028C1020.44 983.96 1019.32 982.448 1018.56 980.492C1017.81 978.536 1017.43 976.208 1017.43 973.508C1017.43 970.868 1017.81 968.57 1018.56 966.614C1019.32 964.658 1020.44 963.14 1021.93 962.06C1023.42 960.968 1025.25 960.422 1027.42 960.422C1029.6 960.422 1031.43 960.95 1032.91 962.006C1034.4 963.062 1035.52 964.568 1036.27 966.524C1037.03 968.48 1037.41 970.808 1037.41 973.508ZM1031.36 973.508C1031.36 970.436 1031.05 968.204 1030.44 966.812C1029.83 965.42 1028.82 964.724 1027.42 964.724C1026.01 964.724 1025.01 965.426 1024.39 966.83C1023.78 968.222 1023.48 970.448 1023.48 973.508C1023.48 976.58 1023.79 978.812 1024.41 980.204C1025.04 981.596 1026.04 982.292 1027.42 982.292C1028.86 982.292 1029.87 981.59 1030.46 980.186C1031.06 978.77 1031.36 976.544 1031.36 973.508ZM1059.91 961.052L1057 986H1050.86L1049.04 968.162L1047.04 986H1040.8L1038.1 961.052H1043.62L1044.47 980.96L1046.54 963.932H1051.61L1053.54 980.96L1054.78 961.052H1059.91ZM1095.94 973.4C1095.94 971.72 1095.79 970.352 1095.51 969.296C1095.23 968.24 1094.84 967.424 1094.34 966.848C1093.84 966.272 1093.26 965.876 1092.59 965.66C1091.92 965.444 1091.19 965.336 1090.41 965.336H1089.15V981.734H1090.41C1091.23 981.734 1091.97 981.608 1092.64 981.356C1093.33 981.092 1093.92 980.654 1094.41 980.042C1094.9 979.418 1095.28 978.566 1095.54 977.486C1095.81 976.406 1095.94 975.044 1095.94 973.4ZM1102.06 973.4C1102.06 975.428 1101.84 977.168 1101.41 978.62C1100.98 980.06 1100.37 981.26 1099.59 982.22C1098.82 983.18 1097.93 983.936 1096.91 984.488C1095.89 985.04 1094.79 985.43 1093.62 985.658C1092.44 985.886 1091.23 986 1089.98 986H1083.25V961.052H1089.55C1091.14 961.052 1092.69 961.22 1094.17 961.556C1095.67 961.88 1097.01 962.486 1098.19 963.374C1099.38 964.25 1100.32 965.498 1101.01 967.118C1101.71 968.726 1102.06 970.82 1102.06 973.4ZM1121.86 961.052V965.372H1116.71V981.662H1121.86V986H1105.66V981.662H1110.81V965.372H1105.66V961.052H1121.86ZM1144.76 968.63C1144.76 969.818 1144.54 970.856 1144.09 971.744C1143.65 972.632 1143.05 973.382 1142.29 973.994C1141.54 974.606 1140.69 975.098 1139.76 975.47L1146.29 986H1139.61L1134.21 976.46H1132.54V986H1126.63V961.052H1134.48C1137.88 961.052 1140.44 961.67 1142.17 962.906C1143.9 964.142 1144.76 966.05 1144.76 968.63ZM1138.68 968.63C1138.68 967.43 1138.32 966.56 1137.61 966.02C1136.92 965.468 1135.88 965.192 1134.5 965.192H1132.54V972.41H1134.73C1136.02 972.41 1137 972.11 1137.67 971.51C1138.34 970.91 1138.68 969.95 1138.68 968.63ZM1155.38 965.264V971.258H1164.02V975.398H1155.38V981.77H1165.81V986H1149.48V961.052H1165.79L1165.19 965.264H1155.38ZM1180.61 960.422C1182.39 960.422 1183.91 960.662 1185.16 961.142C1186.42 961.61 1187.57 962.276 1188.62 963.14L1185.72 966.632C1185.03 966.068 1184.28 965.624 1183.45 965.3C1182.62 964.964 1181.72 964.796 1180.75 964.796C1179.71 964.796 1178.75 965.096 1177.89 965.696C1177.02 966.284 1176.33 967.22 1175.82 968.504C1175.3 969.776 1175.04 971.432 1175.04 973.472C1175.04 975.476 1175.29 977.114 1175.78 978.386C1176.29 979.646 1176.98 980.576 1177.85 981.176C1178.73 981.764 1179.73 982.058 1180.86 982.058C1182.11 982.058 1183.14 981.824 1183.97 981.356C1184.8 980.888 1185.56 980.378 1186.26 979.826L1188.94 983.246C1188 984.17 1186.85 984.962 1185.48 985.622C1184.12 986.282 1182.47 986.612 1180.53 986.612C1178.28 986.612 1176.27 986.114 1174.52 985.118C1172.78 984.11 1171.41 982.634 1170.42 980.69C1169.43 978.734 1168.94 976.328 1168.94 973.472C1168.94 970.688 1169.45 968.324 1170.47 966.38C1171.5 964.436 1172.9 962.96 1174.67 961.952C1176.43 960.932 1178.41 960.422 1180.61 960.422ZM1203.02 965.57V986H1197.12V965.57H1190.11V961.052H1210.31L1209.7 965.57H1203.02ZM1229.79 961.052V965.372H1224.64V981.662H1229.79V986H1213.59V981.662H1218.74V965.372H1213.59V961.052H1229.79ZM1253.27 973.508C1253.27 976.148 1252.89 978.452 1252.13 980.42C1251.38 982.376 1250.25 983.9 1248.77 984.992C1247.29 986.072 1245.46 986.612 1243.28 986.612C1241.1 986.612 1239.27 986.084 1237.79 985.028C1236.3 983.96 1235.18 982.448 1234.42 980.492C1233.66 978.536 1233.29 976.208 1233.29 973.508C1233.29 970.868 1233.66 968.57 1234.42 966.614C1235.18 964.658 1236.3 963.14 1237.79 962.06C1239.27 960.968 1241.1 960.422 1243.28 960.422C1245.46 960.422 1247.29 960.95 1248.77 962.006C1250.25 963.062 1251.38 964.568 1252.13 966.524C1252.89 968.48 1253.27 970.808 1253.27 973.508ZM1247.22 973.508C1247.22 970.436 1246.91 968.204 1246.3 966.812C1245.69 965.42 1244.68 964.724 1243.28 964.724C1241.87 964.724 1240.86 965.426 1240.25 966.83C1239.64 968.222 1239.33 970.448 1239.33 973.508C1239.33 976.58 1239.65 978.812 1240.27 980.204C1240.89 981.596 1241.9 982.292 1243.28 982.292C1244.72 982.292 1245.73 981.59 1246.32 980.186C1246.92 978.77 1247.22 976.544 1247.22 973.508ZM1266.63 986L1260.06 965.93C1260.14 966.47 1260.23 967.124 1260.33 967.892C1260.43 968.648 1260.54 969.494 1260.63 970.43C1260.73 971.354 1260.81 972.338 1260.87 973.382C1260.93 974.426 1260.96 975.494 1260.96 976.586V986H1255.93V961.052H1263.3L1269.67 981.014C1269.54 980.258 1269.4 979.358 1269.25 978.314C1269.12 977.258 1269.01 976.082 1268.91 974.786C1268.82 973.49 1268.77 972.098 1268.77 970.61V961.052H1273.79V986H1266.63Z" fill="#041BB0"/>
<path d="M144.697 144.697C147.626 141.768 152.374 141.768 155.303 144.697L203.033 192.426C205.962 195.355 205.962 200.104 203.033 203.033C200.104 205.962 195.355 205.962 192.426 203.033L150 160.607L107.574 203.033C104.645 205.962 99.8959 205.962 96.967 203.033C94.0381 200.104 94.0381 195.355 96.967 192.426L144.697 144.697ZM150 608V615.5H142.5V608H150ZM150 150H157.5V608H150H142.5V150H150ZM150 608V600.5H450V608V615.5H150V608Z" fill="#041BB0"/>
<rect width="50" height="50" transform="matrix(0 1 -1 0 950 1060)" fill="#DBDFFF"/>
<rect x="949" y="1061" width="48" height="48" transform="rotate(90 949 1061)" stroke="black" stroke-width="2"/>
<path d="M930.506 1081.08L929.444 1089.06H932.36V1091.4H929.102L928.346 1097.5H925.754L926.564 1091.4H921.326L920.534 1097.5H917.942L918.752 1091.4H915.908V1089.06H919.058L920.156 1081.08H917.24V1078.73H920.462L921.254 1072.71H923.846L922.982 1078.73H928.274L929.066 1072.71H931.658L930.812 1078.73H933.692V1081.08H930.506ZM921.632 1089.06H926.87L927.968 1081.08H922.694L921.632 1089.06Z" fill="black"/>
<path d="M993.314 1091.14C993.314 1092.56 992.96 1093.82 992.252 1094.92C991.544 1096.01 990.518 1096.87 989.174 1097.5C987.83 1098.11 986.192 1098.41 984.26 1098.41C982.448 1098.41 980.804 1098.14 979.328 1097.59C977.864 1097.03 976.61 1096.25 975.566 1095.25L977.42 1093.16C978.284 1093.96 979.274 1094.6 980.39 1095.08C981.506 1095.55 982.814 1095.79 984.314 1095.79C985.322 1095.79 986.264 1095.62 987.14 1095.3C988.016 1094.96 988.724 1094.46 989.264 1093.79C989.804 1093.1 990.074 1092.24 990.074 1091.2C990.074 1090.39 989.918 1089.71 989.606 1089.14C989.294 1088.58 988.742 1088.08 987.95 1087.65C987.158 1087.21 986.054 1086.77 984.638 1086.35C983.006 1085.87 981.59 1085.33 980.39 1084.73C979.202 1084.12 978.278 1083.37 977.618 1082.48C976.97 1081.6 976.646 1080.5 976.646 1079.19C976.646 1077.95 976.988 1076.86 977.672 1075.9C978.356 1074.94 979.298 1074.19 980.498 1073.65C981.71 1073.09 983.102 1072.82 984.674 1072.82C986.39 1072.82 987.878 1073.06 989.138 1073.56C990.41 1074.04 991.562 1074.73 992.594 1075.64L990.758 1077.68C989.87 1076.89 988.916 1076.32 987.896 1075.97C986.876 1075.61 985.838 1075.43 984.782 1075.43C983.882 1075.43 983.054 1075.57 982.298 1075.84C981.554 1076.11 980.954 1076.51 980.498 1077.05C980.054 1077.58 979.832 1078.25 979.832 1079.08C979.832 1079.79 980.024 1080.4 980.408 1080.92C980.792 1081.43 981.44 1081.91 982.352 1082.34C983.264 1082.76 984.506 1083.2 986.078 1083.67C987.362 1084.04 988.55 1084.51 989.642 1085.08C990.746 1085.63 991.634 1086.38 992.306 1087.34C992.978 1088.29 993.314 1089.56 993.314 1091.14ZM1014.25 1097.05C1013.6 1097.48 1012.82 1097.81 1011.89 1098.05C1010.97 1098.29 1010.06 1098.41 1009.18 1098.41C1007.14 1098.41 1005.56 1097.88 1004.46 1096.81C1003.36 1095.74 1002.8 1094.37 1002.8 1092.69V1081.39H998.448V1079.05H1002.8V1074.74L1005.83 1074.38V1079.05H1012.38L1012.02 1081.39H1005.83V1092.65C1005.83 1093.71 1006.1 1094.51 1006.66 1095.07C1007.22 1095.62 1008.15 1095.89 1009.45 1095.89C1010.15 1095.89 1010.81 1095.81 1011.41 1095.64C1012.01 1095.47 1012.57 1095.26 1013.08 1094.99L1014.25 1097.05ZM1034.36 1093.86C1034.36 1094.62 1034.49 1095.17 1034.74 1095.52C1034.99 1095.86 1035.38 1096.12 1035.91 1096.29L1035.17 1098.41C1034.36 1098.31 1033.64 1098.05 1033.03 1097.64C1032.42 1097.22 1031.97 1096.59 1031.7 1095.75C1031.01 1096.63 1030.16 1097.29 1029.14 1097.75C1028.12 1098.19 1026.99 1098.41 1025.76 1098.41C1023.86 1098.41 1022.37 1097.88 1021.28 1096.81C1020.18 1095.74 1019.64 1094.33 1019.64 1092.56C1019.64 1090.61 1020.4 1089.11 1021.92 1088.06C1023.45 1087.02 1025.65 1086.5 1028.53 1086.5H1031.32V1084.91C1031.32 1083.55 1030.92 1082.58 1030.11 1082.02C1029.32 1081.44 1028.22 1081.15 1026.8 1081.15C1026.18 1081.15 1025.45 1081.23 1024.61 1081.39C1023.77 1081.53 1022.85 1081.78 1021.87 1082.12L1021.08 1079.84C1022.24 1079.41 1023.33 1079.1 1024.35 1078.92C1025.37 1078.74 1026.35 1078.65 1027.27 1078.65C1029.63 1078.65 1031.4 1079.2 1032.58 1080.31C1033.77 1081.4 1034.36 1082.89 1034.36 1084.77V1093.86ZM1026.53 1096.11C1027.47 1096.11 1028.36 1095.88 1029.21 1095.41C1030.07 1094.93 1030.77 1094.27 1031.32 1093.43V1088.55H1028.58C1026.5 1088.55 1025.02 1088.91 1024.16 1089.63C1023.3 1090.35 1022.88 1091.32 1022.88 1092.53C1022.88 1093.7 1023.18 1094.6 1023.78 1095.21C1024.39 1095.81 1025.31 1096.11 1026.53 1096.11ZM1057.42 1097.05C1056.78 1097.48 1055.99 1097.81 1055.07 1098.05C1054.14 1098.29 1053.24 1098.41 1052.35 1098.41C1050.31 1098.41 1048.74 1097.88 1047.63 1096.81C1046.53 1095.74 1045.98 1094.37 1045.98 1092.69V1081.39H1041.62V1079.05H1045.98V1074.74L1049 1074.38V1079.05H1055.55L1055.19 1081.39H1049V1092.65C1049 1093.71 1049.28 1094.51 1049.83 1095.07C1050.39 1095.62 1051.32 1095.89 1052.62 1095.89C1053.33 1095.89 1053.98 1095.81 1054.58 1095.64C1055.18 1095.47 1055.74 1095.26 1056.25 1094.99L1057.42 1097.05ZM1073.56 1079.05V1095.61H1078.9V1098H1064.68V1095.61H1070.53V1081.44H1064.86V1079.05H1073.56ZM1071.14 1070.17C1071.82 1070.17 1072.35 1070.38 1072.75 1070.78C1073.15 1071.19 1073.36 1071.69 1073.36 1072.28C1073.36 1072.89 1073.15 1073.41 1072.75 1073.83C1072.35 1074.23 1071.82 1074.44 1071.14 1074.44C1070.51 1074.44 1069.99 1074.23 1069.58 1073.83C1069.17 1073.41 1068.97 1072.89 1068.97 1072.28C1068.97 1071.69 1069.17 1071.19 1069.58 1070.78C1069.99 1070.38 1070.51 1070.17 1071.14 1070.17ZM1092.77 1078.65C1094.55 1078.65 1096.05 1079.06 1097.25 1079.87C1098.46 1080.68 1099.37 1081.82 1099.97 1083.29C1100.58 1084.77 1100.88 1086.51 1100.88 1088.51C1100.88 1090.45 1100.57 1092.16 1099.95 1093.64C1099.32 1095.13 1098.41 1096.3 1097.19 1097.15C1095.99 1097.99 1094.51 1098.41 1092.73 1098.41C1090.95 1098.41 1089.46 1098.01 1088.25 1097.19C1087.04 1096.37 1086.12 1095.23 1085.49 1093.75C1084.88 1092.26 1084.58 1090.53 1084.58 1088.55C1084.58 1086.59 1084.89 1084.87 1085.51 1083.38C1086.14 1081.9 1087.05 1080.74 1088.27 1079.91C1089.49 1079.07 1090.99 1078.65 1092.77 1078.65ZM1092.77 1081.12C1091.13 1081.12 1089.9 1081.72 1089.06 1082.93C1088.23 1084.13 1087.82 1086.01 1087.82 1088.55C1087.82 1091.05 1088.22 1092.9 1089.04 1094.11C1089.87 1095.32 1091.1 1095.93 1092.73 1095.93C1094.36 1095.93 1095.59 1095.32 1096.4 1094.11C1097.23 1092.9 1097.64 1091.03 1097.64 1088.51C1097.64 1085.99 1097.24 1084.13 1096.42 1082.93C1095.6 1081.72 1094.39 1081.12 1092.77 1081.12ZM1107.13 1098V1079.05H1109.71L1109.94 1081.67C1110.71 1080.7 1111.67 1079.96 1112.82 1079.44C1113.99 1078.91 1115.11 1078.65 1116.21 1078.65C1118.07 1078.65 1119.42 1079.14 1120.26 1080.13C1121.11 1081.11 1121.53 1082.48 1121.53 1084.23V1098H1118.51V1086.46C1118.51 1085.17 1118.44 1084.12 1118.29 1083.33C1118.15 1082.53 1117.85 1081.94 1117.39 1081.58C1116.94 1081.21 1116.23 1081.03 1115.27 1081.03C1114.53 1081.03 1113.82 1081.19 1113.16 1081.51C1112.52 1081.84 1111.93 1082.24 1111.42 1082.74C1110.91 1083.22 1110.49 1083.7 1110.16 1084.19V1098H1107.13ZM1160.91 1098L1152.18 1076.2C1152.19 1076.48 1152.21 1076.94 1152.25 1077.59C1152.3 1078.22 1152.35 1078.99 1152.39 1079.87C1152.45 1080.75 1152.5 1081.68 1152.54 1082.66C1152.57 1083.65 1152.59 1084.62 1152.59 1085.58V1098H1149.69V1073.21H1153.92L1162.8 1095.1C1162.79 1094.75 1162.74 1094.12 1162.67 1093.19C1162.6 1092.26 1162.53 1091.13 1162.47 1089.81C1162.41 1088.49 1162.38 1087.09 1162.38 1085.62V1073.21H1165.28V1098H1160.91ZM1174.92 1079.05V1092.47C1174.92 1093.72 1175.17 1094.62 1175.69 1095.17C1176.21 1095.73 1177.01 1096 1178.1 1096C1179.15 1096 1180.13 1095.71 1181.05 1095.12C1181.99 1094.52 1182.72 1093.81 1183.23 1093V1079.05H1186.26V1098H1183.68L1183.43 1095.44C1182.69 1096.4 1181.77 1097.14 1180.68 1097.66C1179.58 1098.16 1178.48 1098.41 1177.36 1098.41C1175.53 1098.41 1174.15 1097.93 1173.24 1096.96C1172.34 1095.97 1171.89 1094.6 1171.89 1092.83V1079.05H1174.92ZM1205.97 1078.65C1206.58 1078.65 1207.16 1078.78 1207.72 1079.05C1208.28 1079.31 1208.74 1079.82 1209.1 1080.58C1209.46 1081.33 1209.64 1082.44 1209.64 1083.89V1098H1206.83V1084.37C1206.83 1083.19 1206.76 1082.33 1206.62 1081.8C1206.47 1081.27 1206.06 1081.01 1205.38 1081.01C1204.81 1081.01 1204.25 1081.19 1203.68 1081.55C1203.13 1081.9 1202.59 1082.47 1202.06 1083.28V1098H1199.24V1084.37C1199.24 1083.19 1199.17 1082.33 1199.02 1081.8C1198.88 1081.27 1198.46 1081.01 1197.78 1081.01C1197.19 1081.01 1196.62 1081.19 1196.07 1081.55C1195.53 1081.9 1195 1082.47 1194.47 1083.28V1098H1191.68V1079.05H1194.05L1194.23 1081.24C1194.75 1080.51 1195.33 1079.9 1195.96 1079.41C1196.61 1078.9 1197.41 1078.65 1198.36 1078.65C1199.08 1078.65 1199.75 1078.82 1200.39 1079.17C1201.03 1079.51 1201.49 1080.17 1201.79 1081.15C1202.31 1080.41 1202.89 1079.81 1203.54 1079.35C1204.19 1078.88 1205 1078.65 1205.97 1078.65ZM1218.09 1081.51C1218.78 1080.6 1219.58 1079.9 1220.48 1079.41C1221.39 1078.9 1222.4 1078.65 1223.49 1078.65C1225.18 1078.65 1226.55 1079.06 1227.59 1079.87C1228.64 1080.69 1229.4 1081.84 1229.88 1083.33C1230.36 1084.81 1230.6 1086.53 1230.6 1088.51C1230.6 1090.42 1230.31 1092.13 1229.73 1093.63C1229.16 1095.11 1228.31 1096.28 1227.2 1097.14C1226.09 1097.99 1224.72 1098.41 1223.09 1098.41C1220.9 1098.41 1219.17 1097.62 1217.93 1096.04L1217.71 1098H1215.06V1071.41L1218.09 1071.04V1081.51ZM1222.37 1095.97C1223.96 1095.97 1225.17 1095.35 1226.03 1094.13C1226.88 1092.91 1227.3 1091.03 1227.3 1088.5C1227.3 1086.84 1227.14 1085.47 1226.8 1084.37C1226.46 1083.27 1225.96 1082.45 1225.29 1081.91C1224.63 1081.36 1223.81 1081.08 1222.84 1081.08C1221.78 1081.08 1220.85 1081.4 1220.05 1082.03C1219.26 1082.66 1218.6 1083.35 1218.09 1084.12V1093.52C1218.58 1094.26 1219.2 1094.86 1219.94 1095.3C1220.7 1095.74 1221.51 1095.97 1222.37 1095.97ZM1239.03 1089.59C1239.09 1091.06 1239.37 1092.26 1239.87 1093.19C1240.38 1094.12 1241.04 1094.8 1241.87 1095.25C1242.7 1095.68 1243.6 1095.89 1244.57 1095.89C1245.54 1095.89 1246.42 1095.75 1247.2 1095.46C1247.99 1095.17 1248.8 1094.75 1249.63 1094.18L1251.05 1096.18C1250.16 1096.88 1249.15 1097.42 1248.01 1097.82C1246.88 1098.22 1245.72 1098.41 1244.53 1098.41C1242.7 1098.41 1241.13 1098 1239.84 1097.17C1238.54 1096.34 1237.55 1095.19 1236.87 1093.72C1236.19 1092.23 1235.86 1090.51 1235.86 1088.55C1235.86 1086.63 1236.2 1084.93 1236.88 1083.44C1237.57 1081.95 1238.53 1080.78 1239.76 1079.93C1241 1079.08 1242.46 1078.65 1244.14 1078.65C1245.73 1078.65 1247.11 1079.03 1248.26 1079.78C1249.41 1080.53 1250.29 1081.6 1250.91 1082.99C1251.53 1084.37 1251.84 1086.02 1251.84 1087.94C1251.84 1088.26 1251.84 1088.57 1251.82 1088.86C1251.81 1089.13 1251.79 1089.38 1251.77 1089.59H1239.03ZM1244.17 1081.13C1242.77 1081.13 1241.59 1081.63 1240.65 1082.63C1239.71 1083.62 1239.18 1085.17 1239.04 1087.25H1248.93C1248.89 1085.23 1248.45 1083.7 1247.59 1082.68C1246.74 1081.65 1245.6 1081.13 1244.17 1081.13ZM1258.42 1098V1095.68H1261.37V1081.37H1258.42V1079.05H1263.67L1264.23 1083.53C1264.96 1081.97 1265.85 1080.76 1266.89 1079.91C1267.94 1079.06 1269.32 1078.63 1271.03 1078.63C1271.56 1078.63 1272.03 1078.67 1272.44 1078.76C1272.86 1078.83 1273.28 1078.93 1273.72 1079.05L1272.83 1081.75C1272.44 1081.64 1272.08 1081.56 1271.75 1081.51C1271.43 1081.45 1271.06 1081.42 1270.64 1081.42C1269.19 1081.42 1267.94 1081.94 1266.89 1082.97C1265.85 1084 1265.02 1085.56 1264.39 1087.65V1095.68H1268.24V1098H1258.42ZM1270.8 1085.45V1081.33L1271.11 1079.05H1273.72L1273.28 1085.45H1270.8Z" fill="black"/>
</svg>
