<svg width="1500" height="1216" viewBox="0 0 1500 1216" fill="none" xmlns="http://www.w3.org/2000/svg">
<rect width="1500" height="1216" fill="white"/>
<rect x="183.5" y="130.5" width="1143" height="939" stroke="black" stroke-width="5"/>
<path d="M778.232 958.768C779.209 959.744 780.791 959.744 781.768 958.768L797.678 942.858C798.654 941.882 798.654 940.299 797.678 939.322C796.701 938.346 795.118 938.346 794.142 939.322L780 953.464L765.858 939.322C764.882 938.346 763.299 938.346 762.322 939.322C761.346 940.299 761.346 941.882 762.322 942.858L778.232 958.768ZM780 909V906.5H777.5V909H780ZM780 957H782.5V909H780H777.5V957H780ZM780 909V911.5H854V909V906.5H780V909Z" fill="#041BB0"/>
<path d="M277.609 493.704L277.609 491.204L275.109 491.204L275.109 493.704L277.609 493.704ZM328.517 694.972C329.493 693.996 329.493 692.413 328.517 691.437L312.607 675.527C311.631 674.551 310.048 674.551 309.071 675.527C308.095 676.503 308.095 678.086 309.071 679.062L323.214 693.205L309.071 707.347C308.095 708.323 308.095 709.906 309.071 710.882C310.048 711.859 311.631 711.859 312.607 710.882L328.517 694.972ZM277.61 908.5H275.11L275.11 911H277.61V908.5ZM277.609 493.704L277.609 496.204L630.178 496.204V493.704V491.204L277.609 491.204L277.609 493.704ZM326.749 693.205V690.705L277.61 690.705L277.61 693.205L277.61 695.705L326.749 695.705V693.205ZM277.61 693.205H280.11L280.109 493.704L277.609 493.704L275.109 493.704L275.11 693.205H277.61ZM277.61 693.205H275.11L275.11 908.5H277.61H280.11L280.11 693.205H277.61ZM277.61 908.5V911H334V908.5V906H277.61V908.5Z" fill="#041BB0"/>
<rect x="677.5" y="234.5" width="145" height="345" transform="rotate(90 677.5 234.5)" fill="white"/>
<rect x="677.5" y="234.5" width="145" height="345" transform="rotate(90 677.5 234.5)" stroke="black" stroke-width="5"/>
<path d="M470.644 269.38V283H466.708V269.38H462.04V266.368H475.504L475.096 269.38H470.644ZM477.691 283V280.456H479.371V272.776H477.691V270.256H482.263L482.959 273.124C483.415 272.028 483.995 271.212 484.699 270.676C485.411 270.14 486.279 269.872 487.303 269.872C487.735 269.872 488.119 269.908 488.455 269.98C488.791 270.044 489.107 270.136 489.403 270.256L488.251 273.388C488.019 273.324 487.787 273.276 487.555 273.244C487.323 273.212 487.067 273.196 486.787 273.196C485.955 273.196 485.223 273.536 484.591 274.216C483.967 274.896 483.491 275.76 483.163 276.808V280.456H485.683V283H477.691ZM486.319 275.584V271.864L486.883 270.256H489.403L488.695 275.584H486.319ZM499.749 270.256V280.408H502.989V283H492.345V280.408H495.957V272.848H492.465V270.256H499.749ZM497.457 263.584C498.113 263.584 498.649 263.788 499.065 264.196C499.481 264.604 499.689 265.112 499.689 265.72C499.689 266.328 499.481 266.84 499.065 267.256C498.649 267.664 498.113 267.868 497.457 267.868C496.793 267.868 496.249 267.664 495.825 267.256C495.409 266.84 495.201 266.328 495.201 265.72C495.201 265.112 495.409 264.604 495.825 264.196C496.249 263.788 496.793 263.584 497.457 263.584ZM515.772 269.836C516.38 269.836 516.88 269.964 517.272 270.22C517.664 270.476 517.956 270.88 518.148 271.432C518.34 271.976 518.436 272.688 518.436 273.568V283H515.184V274C515.184 273.552 515.14 273.236 515.052 273.052C514.972 272.868 514.804 272.776 514.548 272.776C514.348 272.776 514.14 272.836 513.924 272.956C513.716 273.068 513.484 273.284 513.228 273.604V283H510.564V274C510.564 273.552 510.52 273.236 510.432 273.052C510.352 272.868 510.184 272.776 509.928 272.776C509.728 272.776 509.52 272.836 509.304 272.956C509.096 273.068 508.864 273.284 508.608 273.604V283H505.308V270.256H508.092L508.344 271.492C508.744 270.948 509.148 270.536 509.556 270.256C509.964 269.976 510.448 269.836 511.008 269.836C511.488 269.836 511.896 269.96 512.232 270.208C512.576 270.448 512.82 270.828 512.964 271.348C513.348 270.9 513.772 270.536 514.236 270.256C514.7 269.976 515.212 269.836 515.772 269.836ZM543.569 266.368V282.52H539.873V270.1L536.453 272.236L534.845 269.632L540.209 266.368H543.569ZM546.677 280.132V283H535.865V280.132H546.677Z" fill="black"/>
<path d="M830.768 308.768C831.744 307.791 831.744 306.209 830.768 305.232L814.858 289.322C813.882 288.346 812.299 288.346 811.322 289.322C810.346 290.299 810.346 291.882 811.322 292.858L825.464 307L811.322 321.142C810.346 322.118 810.346 323.701 811.322 324.678C812.299 325.654 813.882 325.654 814.858 324.678L830.768 308.768ZM679 307V309.5H727.899V307V304.5H679V307ZM727.899 307V309.5H829V307V304.5H727.899V307Z" fill="#041BB0"/>
<path d="M832.768 711.768C833.744 710.791 833.744 709.209 832.768 708.232L816.858 692.322C815.882 691.346 814.299 691.346 813.322 692.322C812.346 693.299 812.346 694.882 813.322 695.858L827.464 710L813.322 724.142C812.346 725.118 812.346 726.701 813.322 727.678C814.299 728.654 815.882 728.654 816.858 727.678L832.768 711.768ZM679 710V712.5H831V710V707.5H679V710Z" fill="#041BB0"/>
<path d="M330.768 312.768C331.744 311.791 331.744 310.209 330.768 309.232L314.858 293.322C313.882 292.346 312.299 292.346 311.322 293.322C310.346 294.299 310.346 295.882 311.322 296.858L325.464 311L311.322 325.142C310.346 326.118 310.346 327.701 311.322 328.678C312.299 329.654 313.882 329.654 314.858 328.678L330.768 312.768ZM281 311H278.5V313.5H281V311ZM329 311V308.5H281V311V313.5H329V311ZM281 311H283.5V237H281H278.5V311H281Z" fill="#041BB0"/>
<rect x="772.5" y="285.5" width="45" height="45" transform="rotate(90 772.5 285.5)" fill="#21C18F" stroke="white" stroke-width="5"/>
<path d="M1230 306H1232.5V303.5H1230V306ZM1177.23 480.232C1176.26 481.209 1176.26 482.791 1177.23 483.768L1193.14 499.678C1194.12 500.654 1195.7 500.654 1196.68 499.678C1197.65 498.701 1197.65 497.118 1196.68 496.142L1182.54 482L1196.68 467.858C1197.65 466.882 1197.65 465.299 1196.68 464.322C1195.7 463.346 1194.12 463.346 1193.14 464.322L1177.23 480.232ZM1230 482V484.5H1232.5V482H1230ZM1179 306V308.5H1230V306V303.5H1179V306ZM1230 306H1227.5V482H1230H1232.5V306H1230ZM1230 482V479.5H1179V482V484.5H1230V482Z" fill="#041BB0"/>
<path d="M1234 708H1236.5V705.5H1234V708ZM1179.23 904.232C1178.26 905.209 1178.26 906.791 1179.23 907.768L1195.14 923.678C1196.12 924.654 1197.7 924.654 1198.68 923.678C1199.65 922.701 1199.65 921.118 1198.68 920.142L1184.54 906L1198.68 891.858C1199.65 890.882 1199.65 889.299 1198.68 888.322C1197.7 887.346 1196.12 887.346 1195.14 888.322L1179.23 904.232ZM1234 906V908.5H1236.5V906H1234ZM1181 708V710.5H1234V708V705.5H1181V708ZM1234 708H1231.5V906H1234H1236.5V708H1234ZM1234 906V903.5H1181V906V908.5H1234V906Z" fill="#041BB0"/>
<rect x="1255.5" y="795.5" width="45" height="45" transform="rotate(90 1255.5 795.5)" fill="#21C18F" stroke="white" stroke-width="5"/>
<rect x="300.5" y="529.5" width="45" height="45" transform="rotate(90 300.5 529.5)" fill="#21C18F" stroke="white" stroke-width="5"/>
<rect x="299.5" y="797.5" width="45" height="45" transform="rotate(90 299.5 797.5)" fill="#21C18F" stroke="white" stroke-width="5"/>
<rect x="777.5" y="685.5" width="45" height="45" transform="rotate(90 777.5 685.5)" fill="#21C18F" stroke="white" stroke-width="5"/>
<rect x="1252.5" y="371.5" width="45" height="45" transform="rotate(90 1252.5 371.5)" fill="#21C18F" stroke="white" stroke-width="5"/>
<path d="M769.48 1002.9C769.48 1005.24 769.144 1007.29 768.472 1009.04C767.8 1010.78 766.803 1012.13 765.48 1013.1C764.168 1014.06 762.541 1014.54 760.6 1014.54C758.669 1014.54 757.043 1014.07 755.72 1013.14C754.397 1012.19 753.4 1010.84 752.728 1009.1C752.056 1007.37 751.72 1005.3 751.72 1002.9C751.72 1000.55 752.056 998.507 752.728 996.768C753.4 995.029 754.397 993.68 755.72 992.72C757.043 991.749 758.669 991.264 760.6 991.264C762.541 991.264 764.168 991.733 765.48 992.672C766.803 993.611 767.8 994.949 768.472 996.688C769.144 998.427 769.48 1000.5 769.48 1002.9ZM764.104 1002.9C764.104 1000.17 763.832 998.181 763.288 996.944C762.744 995.707 761.848 995.088 760.6 995.088C759.352 995.088 758.456 995.712 757.912 996.96C757.368 998.197 757.096 1000.18 757.096 1002.9C757.096 1005.63 757.373 1007.61 757.928 1008.85C758.483 1010.09 759.373 1010.7 760.6 1010.7C761.88 1010.7 762.781 1010.08 763.304 1008.83C763.837 1007.57 764.104 1005.59 764.104 1002.9ZM788.044 991.824V1006.58C788.044 1008.09 787.734 1009.45 787.116 1010.66C786.508 1011.85 785.59 1012.8 784.364 1013.5C783.148 1014.2 781.622 1014.54 779.788 1014.54C777.942 1014.54 776.406 1014.21 775.18 1013.54C773.964 1012.86 773.052 1011.93 772.444 1010.74C771.836 1009.54 771.532 1008.15 771.532 1006.58V991.824H776.796V1004.62C776.796 1006.62 776.977 1008.12 777.34 1009.14C777.702 1010.14 778.518 1010.64 779.788 1010.64C781.057 1010.64 781.873 1010.14 782.236 1009.14C782.598 1008.12 782.78 1006.62 782.78 1004.62V991.824H788.044ZM801.567 995.84V1014H796.319V995.84H790.095V991.824H808.047L807.503 995.84H801.567Z" fill="black"/>
<path d="M279.8 186.824V190.664H275.224V205.144H279.8V209H265.4V205.144H269.976V190.664H265.4V186.824H279.8ZM293.356 209L287.516 191.16C287.59 191.64 287.67 192.221 287.756 192.904C287.852 193.576 287.942 194.328 288.028 195.16C288.113 195.981 288.182 196.856 288.236 197.784C288.289 198.712 288.316 199.661 288.316 200.632V209H283.852V186.824H290.396L296.06 204.568C295.942 203.896 295.82 203.096 295.692 202.168C295.574 201.229 295.473 200.184 295.388 199.032C295.302 197.88 295.26 196.643 295.26 195.32V186.824H299.724V209H293.356Z" fill="black"/>
<rect x="1178.5" y="434.5" width="145" height="595" transform="rotate(90 1178.5 434.5)" fill="white"/>
<rect x="1178.5" y="434.5" width="145" height="595" transform="rotate(90 1178.5 434.5)" stroke="black" stroke-width="5"/>
<path d="M824.592 465.948C825.784 465.948 826.796 466.108 827.628 466.428C828.468 466.74 829.236 467.184 829.932 467.76L828 470.088C827.544 469.712 827.04 469.416 826.488 469.2C825.936 468.976 825.336 468.864 824.688 468.864C823.992 468.864 823.356 469.064 822.78 469.464C822.204 469.856 821.744 470.48 821.4 471.336C821.056 472.184 820.884 473.288 820.884 474.648C820.884 475.984 821.048 477.076 821.376 477.924C821.712 478.764 822.172 479.384 822.756 479.784C823.34 480.176 824.008 480.372 824.76 480.372C825.592 480.372 826.284 480.216 826.836 479.904C827.388 479.592 827.896 479.252 828.36 478.884L830.148 481.164C829.524 481.78 828.756 482.308 827.844 482.748C826.932 483.188 825.832 483.408 824.544 483.408C823.04 483.408 821.704 483.076 820.536 482.412C819.376 481.74 818.464 480.756 817.8 479.46C817.144 478.156 816.816 476.552 816.816 474.648C816.816 472.792 817.156 471.216 817.836 469.92C818.524 468.624 819.456 467.64 820.632 466.968C821.808 466.288 823.128 465.948 824.592 465.948ZM835.863 464.82V471.516C836.399 470.948 836.979 470.528 837.603 470.256C838.235 469.976 838.903 469.836 839.607 469.836C840.743 469.836 841.611 470.168 842.211 470.832C842.811 471.496 843.111 472.432 843.111 473.64V483H839.319V474.696C839.319 473.928 839.231 473.392 839.055 473.088C838.887 472.784 838.567 472.632 838.095 472.632C837.831 472.632 837.571 472.696 837.315 472.824C837.067 472.944 836.823 473.12 836.583 473.352C836.343 473.584 836.103 473.86 835.863 474.18V483H832.071V465.192L835.863 464.82ZM857.189 479.328C857.189 479.808 857.253 480.156 857.381 480.372C857.517 480.588 857.733 480.752 858.029 480.864L857.249 483.36C856.497 483.288 855.861 483.124 855.341 482.868C854.829 482.604 854.425 482.208 854.129 481.68C853.641 482.264 853.017 482.7 852.257 482.988C851.497 483.268 850.721 483.408 849.929 483.408C848.617 483.408 847.569 483.036 846.785 482.292C846.009 481.54 845.621 480.576 845.621 479.4C845.621 478.016 846.161 476.948 847.241 476.196C848.329 475.444 849.857 475.068 851.825 475.068H853.541V474.588C853.541 473.924 853.325 473.432 852.893 473.112C852.469 472.792 851.845 472.632 851.021 472.632C850.613 472.632 850.089 472.692 849.449 472.812C848.809 472.924 848.169 473.088 847.529 473.304L846.653 470.784C847.477 470.472 848.333 470.236 849.221 470.076C850.117 469.916 850.917 469.836 851.621 469.836C853.517 469.836 854.917 470.224 855.821 471C856.733 471.768 857.189 472.88 857.189 474.336V479.328ZM851.237 480.696C851.645 480.696 852.073 480.576 852.521 480.336C852.969 480.088 853.309 479.74 853.541 479.292V477.228H852.605C851.549 477.228 850.773 477.392 850.277 477.72C849.781 478.04 849.533 478.512 849.533 479.136C849.533 479.624 849.681 480.008 849.977 480.288C850.281 480.56 850.701 480.696 851.237 480.696ZM865.964 480.696C866.596 480.696 867.104 480.596 867.488 480.396C867.88 480.196 868.076 479.896 868.076 479.496C868.076 479.224 868 478.996 867.848 478.812C867.696 478.628 867.404 478.452 866.972 478.284C866.54 478.116 865.9 477.916 865.052 477.684C864.276 477.476 863.588 477.212 862.988 476.892C862.396 476.572 861.932 476.16 861.596 475.656C861.268 475.152 861.104 474.524 861.104 473.772C861.104 473.012 861.316 472.336 861.74 471.744C862.164 471.152 862.788 470.688 863.612 470.352C864.436 470.008 865.444 469.836 866.636 469.836C867.772 469.836 868.76 469.984 869.6 470.28C870.448 470.568 871.18 470.936 871.796 471.384L870.284 473.616C869.756 473.288 869.188 473.028 868.58 472.836C867.972 472.636 867.36 472.536 866.744 472.536C866.128 472.536 865.668 472.62 865.364 472.788C865.068 472.948 864.92 473.192 864.92 473.52C864.92 473.736 864.996 473.924 865.148 474.084C865.308 474.236 865.604 474.396 866.036 474.564C866.468 474.724 867.1 474.924 867.932 475.164C868.756 475.396 869.472 475.664 870.08 475.968C870.696 476.272 871.172 476.68 871.508 477.192C871.844 477.696 872.012 478.364 872.012 479.196C872.012 480.124 871.736 480.904 871.184 481.536C870.632 482.16 869.9 482.628 868.988 482.94C868.076 483.252 867.076 483.408 865.988 483.408C864.756 483.408 863.668 483.232 862.724 482.88C861.78 482.528 860.976 482.064 860.312 481.488L862.22 479.352C862.716 479.736 863.276 480.056 863.9 480.312C864.532 480.568 865.22 480.696 865.964 480.696ZM880.355 480.696C880.987 480.696 881.495 480.596 881.879 480.396C882.271 480.196 882.467 479.896 882.467 479.496C882.467 479.224 882.391 478.996 882.239 478.812C882.087 478.628 881.795 478.452 881.363 478.284C880.931 478.116 880.291 477.916 879.443 477.684C878.667 477.476 877.979 477.212 877.379 476.892C876.787 476.572 876.323 476.16 875.987 475.656C875.659 475.152 875.495 474.524 875.495 473.772C875.495 473.012 875.707 472.336 876.131 471.744C876.555 471.152 877.179 470.688 878.003 470.352C878.827 470.008 879.835 469.836 881.027 469.836C882.163 469.836 883.151 469.984 883.991 470.28C884.839 470.568 885.571 470.936 886.187 471.384L884.675 473.616C884.147 473.288 883.579 473.028 882.971 472.836C882.363 472.636 881.751 472.536 881.135 472.536C880.519 472.536 880.059 472.62 879.755 472.788C879.459 472.948 879.311 473.192 879.311 473.52C879.311 473.736 879.387 473.924 879.539 474.084C879.699 474.236 879.995 474.396 880.427 474.564C880.859 474.724 881.491 474.924 882.323 475.164C883.147 475.396 883.863 475.664 884.471 475.968C885.087 476.272 885.563 476.68 885.898 477.192C886.235 477.696 886.403 478.364 886.403 479.196C886.403 480.124 886.127 480.904 885.575 481.536C885.023 482.16 884.291 482.628 883.379 482.94C882.467 483.252 881.467 483.408 880.379 483.408C879.147 483.408 878.059 483.232 877.115 482.88C876.171 482.528 875.367 482.064 874.703 481.488L876.611 479.352C877.107 479.736 877.667 480.056 878.291 480.312C878.923 480.568 879.611 480.696 880.355 480.696ZM897.421 470.256V480.408H900.661V483H890.017V480.408H893.629V472.848H890.137V470.256H897.421ZM895.129 463.584C895.785 463.584 896.321 463.788 896.737 464.196C897.153 464.604 897.361 465.112 897.361 465.72C897.361 466.328 897.153 466.84 896.737 467.256C896.321 467.664 895.785 467.868 895.129 467.868C894.465 467.868 893.921 467.664 893.497 467.256C893.081 466.84 892.873 466.328 892.873 465.72C892.873 465.112 893.081 464.604 893.497 464.196C893.921 463.788 894.465 463.584 895.129 463.584ZM909.136 480.696C909.768 480.696 910.276 480.596 910.66 480.396C911.052 480.196 911.248 479.896 911.248 479.496C911.248 479.224 911.172 478.996 911.02 478.812C910.868 478.628 910.576 478.452 910.144 478.284C909.712 478.116 909.072 477.916 908.224 477.684C907.448 477.476 906.76 477.212 906.16 476.892C905.568 476.572 905.104 476.16 904.768 475.656C904.44 475.152 904.276 474.524 904.276 473.772C904.276 473.012 904.488 472.336 904.912 471.744C905.336 471.152 905.96 470.688 906.784 470.352C907.608 470.008 908.616 469.836 909.808 469.836C910.944 469.836 911.932 469.984 912.772 470.28C913.62 470.568 914.352 470.936 914.968 471.384L913.456 473.616C912.928 473.288 912.36 473.028 911.752 472.836C911.144 472.636 910.532 472.536 909.916 472.536C909.3 472.536 908.84 472.62 908.536 472.788C908.24 472.948 908.092 473.192 908.092 473.52C908.092 473.736 908.168 473.924 908.32 474.084C908.48 474.236 908.776 474.396 909.208 474.564C909.64 474.724 910.272 474.924 911.104 475.164C911.928 475.396 912.644 475.664 913.252 475.968C913.868 476.272 914.344 476.68 914.68 477.192C915.016 477.696 915.184 478.364 915.184 479.196C915.184 480.124 914.908 480.904 914.356 481.536C913.804 482.16 913.072 482.628 912.16 482.94C911.248 483.252 910.248 483.408 909.16 483.408C907.928 483.408 906.84 483.232 905.896 482.88C904.952 482.528 904.148 482.064 903.484 481.488L905.392 479.352C905.888 479.736 906.448 480.056 907.072 480.312C907.704 480.568 908.392 480.696 909.136 480.696ZM941.241 466.368V482.52H937.545V470.1L934.125 472.236L932.517 469.632L937.881 466.368H941.241ZM944.349 480.132V483H933.537V480.132H944.349Z" fill="black"/>
<rect x="678.5" y="634.5" width="145" height="345" transform="rotate(90 678.5 634.5)" fill="white"/>
<rect x="678.5" y="634.5" width="145" height="345" transform="rotate(90 678.5 634.5)" stroke="black" stroke-width="5"/>
<path d="M449.592 665.948C450.784 665.948 451.796 666.108 452.628 666.428C453.468 666.74 454.236 667.184 454.932 667.76L453 670.088C452.544 669.712 452.04 669.416 451.488 669.2C450.936 668.976 450.336 668.864 449.688 668.864C448.992 668.864 448.356 669.064 447.78 669.464C447.204 669.856 446.744 670.48 446.4 671.336C446.056 672.184 445.884 673.288 445.884 674.648C445.884 675.984 446.048 677.076 446.376 677.924C446.712 678.764 447.172 679.384 447.756 679.784C448.34 680.176 449.008 680.372 449.76 680.372C450.592 680.372 451.284 680.216 451.836 679.904C452.388 679.592 452.896 679.252 453.36 678.884L455.148 681.164C454.524 681.78 453.756 682.308 452.844 682.748C451.932 683.188 450.832 683.408 449.544 683.408C448.04 683.408 446.704 683.076 445.536 682.412C444.376 681.74 443.464 680.756 442.8 679.46C442.144 678.156 441.816 676.552 441.816 674.648C441.816 672.792 442.156 671.216 442.836 669.92C443.524 668.624 444.456 667.64 445.632 666.968C446.808 666.288 448.128 665.948 449.592 665.948ZM460.863 664.82V671.516C461.399 670.948 461.979 670.528 462.603 670.256C463.235 669.976 463.903 669.836 464.607 669.836C465.743 669.836 466.611 670.168 467.211 670.832C467.811 671.496 468.111 672.432 468.111 673.64V683H464.319V674.696C464.319 673.928 464.231 673.392 464.055 673.088C463.887 672.784 463.567 672.632 463.095 672.632C462.831 672.632 462.571 672.696 462.315 672.824C462.067 672.944 461.823 673.12 461.583 673.352C461.343 673.584 461.103 673.86 460.863 674.18V683H457.071V665.192L460.863 664.82ZM482.189 679.328C482.189 679.808 482.253 680.156 482.381 680.372C482.517 680.588 482.733 680.752 483.029 680.864L482.249 683.36C481.497 683.288 480.861 683.124 480.341 682.868C479.829 682.604 479.425 682.208 479.129 681.68C478.641 682.264 478.017 682.7 477.257 682.988C476.497 683.268 475.721 683.408 474.929 683.408C473.617 683.408 472.569 683.036 471.785 682.292C471.009 681.54 470.621 680.576 470.621 679.4C470.621 678.016 471.161 676.948 472.241 676.196C473.329 675.444 474.857 675.068 476.825 675.068H478.541V674.588C478.541 673.924 478.325 673.432 477.893 673.112C477.469 672.792 476.845 672.632 476.021 672.632C475.613 672.632 475.089 672.692 474.449 672.812C473.809 672.924 473.169 673.088 472.529 673.304L471.653 670.784C472.477 670.472 473.333 670.236 474.221 670.076C475.117 669.916 475.917 669.836 476.621 669.836C478.517 669.836 479.917 670.224 480.821 671C481.733 671.768 482.189 672.88 482.189 674.336V679.328ZM476.237 680.696C476.645 680.696 477.073 680.576 477.521 680.336C477.969 680.088 478.309 679.74 478.541 679.292V677.228H477.605C476.549 677.228 475.773 677.392 475.277 677.72C474.781 678.04 474.533 678.512 474.533 679.136C474.533 679.624 474.681 680.008 474.977 680.288C475.281 680.56 475.701 680.696 476.237 680.696ZM490.964 680.696C491.596 680.696 492.104 680.596 492.488 680.396C492.88 680.196 493.076 679.896 493.076 679.496C493.076 679.224 493 678.996 492.848 678.812C492.696 678.628 492.404 678.452 491.972 678.284C491.54 678.116 490.9 677.916 490.052 677.684C489.276 677.476 488.588 677.212 487.988 676.892C487.396 676.572 486.932 676.16 486.596 675.656C486.268 675.152 486.104 674.524 486.104 673.772C486.104 673.012 486.316 672.336 486.74 671.744C487.164 671.152 487.788 670.688 488.612 670.352C489.436 670.008 490.444 669.836 491.636 669.836C492.772 669.836 493.76 669.984 494.6 670.28C495.448 670.568 496.18 670.936 496.796 671.384L495.284 673.616C494.756 673.288 494.188 673.028 493.58 672.836C492.972 672.636 492.36 672.536 491.744 672.536C491.128 672.536 490.668 672.62 490.364 672.788C490.068 672.948 489.92 673.192 489.92 673.52C489.92 673.736 489.996 673.924 490.148 674.084C490.308 674.236 490.604 674.396 491.036 674.564C491.468 674.724 492.1 674.924 492.932 675.164C493.756 675.396 494.472 675.664 495.08 675.968C495.696 676.272 496.172 676.68 496.508 677.192C496.844 677.696 497.012 678.364 497.012 679.196C497.012 680.124 496.736 680.904 496.184 681.536C495.632 682.16 494.9 682.628 493.988 682.94C493.076 683.252 492.076 683.408 490.988 683.408C489.756 683.408 488.668 683.232 487.724 682.88C486.78 682.528 485.976 682.064 485.312 681.488L487.22 679.352C487.716 679.736 488.276 680.056 488.9 680.312C489.532 680.568 490.22 680.696 490.964 680.696ZM505.355 680.696C505.987 680.696 506.495 680.596 506.879 680.396C507.271 680.196 507.467 679.896 507.467 679.496C507.467 679.224 507.391 678.996 507.239 678.812C507.087 678.628 506.795 678.452 506.363 678.284C505.931 678.116 505.291 677.916 504.443 677.684C503.667 677.476 502.979 677.212 502.379 676.892C501.787 676.572 501.323 676.16 500.987 675.656C500.659 675.152 500.495 674.524 500.495 673.772C500.495 673.012 500.707 672.336 501.131 671.744C501.555 671.152 502.179 670.688 503.003 670.352C503.827 670.008 504.835 669.836 506.027 669.836C507.163 669.836 508.151 669.984 508.991 670.28C509.839 670.568 510.571 670.936 511.187 671.384L509.675 673.616C509.147 673.288 508.579 673.028 507.971 672.836C507.363 672.636 506.751 672.536 506.135 672.536C505.519 672.536 505.059 672.62 504.755 672.788C504.459 672.948 504.311 673.192 504.311 673.52C504.311 673.736 504.387 673.924 504.539 674.084C504.699 674.236 504.995 674.396 505.427 674.564C505.859 674.724 506.491 674.924 507.323 675.164C508.147 675.396 508.863 675.664 509.471 675.968C510.087 676.272 510.563 676.68 510.898 677.192C511.235 677.696 511.403 678.364 511.403 679.196C511.403 680.124 511.127 680.904 510.575 681.536C510.023 682.16 509.291 682.628 508.379 682.94C507.467 683.252 506.467 683.408 505.379 683.408C504.147 683.408 503.059 683.232 502.115 682.88C501.171 682.528 500.367 682.064 499.703 681.488L501.611 679.352C502.107 679.736 502.667 680.056 503.291 680.312C503.923 680.568 504.611 680.696 505.355 680.696ZM522.421 670.256V680.408H525.661V683H515.017V680.408H518.629V672.848H515.137V670.256H522.421ZM520.129 663.584C520.785 663.584 521.321 663.788 521.737 664.196C522.153 664.604 522.361 665.112 522.361 665.72C522.361 666.328 522.153 666.84 521.737 667.256C521.321 667.664 520.785 667.868 520.129 667.868C519.465 667.868 518.921 667.664 518.497 667.256C518.081 666.84 517.873 666.328 517.873 665.72C517.873 665.112 518.081 664.604 518.497 664.196C518.921 663.788 519.465 663.584 520.129 663.584ZM534.136 680.696C534.768 680.696 535.276 680.596 535.66 680.396C536.052 680.196 536.248 679.896 536.248 679.496C536.248 679.224 536.172 678.996 536.02 678.812C535.868 678.628 535.576 678.452 535.144 678.284C534.712 678.116 534.072 677.916 533.224 677.684C532.448 677.476 531.76 677.212 531.16 676.892C530.568 676.572 530.104 676.16 529.768 675.656C529.44 675.152 529.276 674.524 529.276 673.772C529.276 673.012 529.488 672.336 529.912 671.744C530.336 671.152 530.96 670.688 531.784 670.352C532.608 670.008 533.616 669.836 534.808 669.836C535.944 669.836 536.932 669.984 537.772 670.28C538.62 670.568 539.352 670.936 539.968 671.384L538.456 673.616C537.928 673.288 537.36 673.028 536.752 672.836C536.144 672.636 535.532 672.536 534.916 672.536C534.3 672.536 533.84 672.62 533.536 672.788C533.24 672.948 533.092 673.192 533.092 673.52C533.092 673.736 533.168 673.924 533.32 674.084C533.48 674.236 533.776 674.396 534.208 674.564C534.64 674.724 535.272 674.924 536.104 675.164C536.928 675.396 537.644 675.664 538.252 675.968C538.868 676.272 539.344 676.68 539.68 677.192C540.016 677.696 540.184 678.364 540.184 679.196C540.184 680.124 539.908 680.904 539.356 681.536C538.804 682.16 538.072 682.628 537.16 682.94C536.248 683.252 535.248 683.408 534.16 683.408C532.928 683.408 531.84 683.232 530.896 682.88C529.952 682.528 529.148 682.064 528.484 681.488L530.392 679.352C530.888 679.736 531.448 680.056 532.072 680.312C532.704 680.568 533.392 680.696 534.136 680.696ZM562.749 665.948C564.013 665.948 565.069 666.168 565.917 666.608C566.773 667.048 567.413 667.632 567.837 668.36C568.269 669.08 568.485 669.864 568.485 670.712C568.485 671.384 568.369 672.044 568.137 672.692C567.913 673.332 567.541 674.012 567.021 674.732C566.501 675.444 565.809 676.236 564.945 677.108C564.089 677.98 563.029 678.98 561.765 680.108H568.869L568.461 683H557.409V680.312C558.505 679.256 559.457 678.32 560.265 677.504C561.073 676.688 561.753 675.964 562.305 675.332C562.865 674.7 563.313 674.136 563.649 673.64C563.993 673.144 564.241 672.688 564.393 672.272C564.545 671.848 564.621 671.44 564.621 671.048C564.621 670.376 564.425 669.844 564.033 669.452C563.649 669.06 563.101 668.864 562.389 668.864C561.757 668.864 561.209 668.996 560.745 669.26C560.281 669.524 559.833 669.952 559.401 670.544L557.073 668.792C557.697 667.928 558.465 667.24 559.377 666.728C560.289 666.208 561.413 665.948 562.749 665.948Z" fill="black"/>
<rect x="1178.5" y="234.5" width="145" height="345" transform="rotate(90 1178.5 234.5)" fill="white"/>
<rect x="1178.5" y="234.5" width="145" height="345" transform="rotate(90 1178.5 234.5)" stroke="black" stroke-width="5"/>
<path d="M971.644 269.38V283H967.708V269.38H963.04V266.368H976.504L976.096 269.38H971.644ZM978.691 283V280.456H980.371V272.776H978.691V270.256H983.263L983.959 273.124C984.415 272.028 984.995 271.212 985.699 270.676C986.411 270.14 987.279 269.872 988.303 269.872C988.735 269.872 989.119 269.908 989.455 269.98C989.791 270.044 990.107 270.136 990.403 270.256L989.251 273.388C989.019 273.324 988.787 273.276 988.555 273.244C988.323 273.212 988.067 273.196 987.787 273.196C986.955 273.196 986.223 273.536 985.591 274.216C984.967 274.896 984.491 275.76 984.163 276.808V280.456H986.683V283H978.691ZM987.319 275.584V271.864L987.883 270.256H990.403L989.695 275.584H987.319ZM1000.75 270.256V280.408H1003.99V283H993.345V280.408H996.957V272.848H993.465V270.256H1000.75ZM998.457 263.584C999.113 263.584 999.649 263.788 1000.07 264.196C1000.48 264.604 1000.69 265.112 1000.69 265.72C1000.69 266.328 1000.48 266.84 1000.07 267.256C999.649 267.664 999.113 267.868 998.457 267.868C997.793 267.868 997.249 267.664 996.825 267.256C996.409 266.84 996.201 266.328 996.201 265.72C996.201 265.112 996.409 264.604 996.825 264.196C997.249 263.788 997.793 263.584 998.457 263.584ZM1016.77 269.836C1017.38 269.836 1017.88 269.964 1018.27 270.22C1018.66 270.476 1018.96 270.88 1019.15 271.432C1019.34 271.976 1019.44 272.688 1019.44 273.568V283H1016.18V274C1016.18 273.552 1016.14 273.236 1016.05 273.052C1015.97 272.868 1015.8 272.776 1015.55 272.776C1015.35 272.776 1015.14 272.836 1014.92 272.956C1014.72 273.068 1014.48 273.284 1014.23 273.604V283H1011.56V274C1011.56 273.552 1011.52 273.236 1011.43 273.052C1011.35 272.868 1011.18 272.776 1010.93 272.776C1010.73 272.776 1010.52 272.836 1010.3 272.956C1010.1 273.068 1009.86 273.284 1009.61 273.604V283H1006.31V270.256H1009.09L1009.34 271.492C1009.74 270.948 1010.15 270.536 1010.56 270.256C1010.96 269.976 1011.45 269.836 1012.01 269.836C1012.49 269.836 1012.9 269.96 1013.23 270.208C1013.58 270.448 1013.82 270.828 1013.96 271.348C1014.35 270.9 1014.77 270.536 1015.24 270.256C1015.7 269.976 1016.21 269.836 1016.77 269.836ZM1041.08 265.948C1042.34 265.948 1043.4 266.168 1044.25 266.608C1045.1 267.048 1045.74 267.632 1046.17 268.36C1046.6 269.08 1046.81 269.864 1046.81 270.712C1046.81 271.384 1046.7 272.044 1046.47 272.692C1046.24 273.332 1045.87 274.012 1045.35 274.732C1044.83 275.444 1044.14 276.236 1043.27 277.108C1042.42 277.98 1041.36 278.98 1040.09 280.108H1047.2L1046.79 283H1035.74V280.312C1036.83 279.256 1037.79 278.32 1038.59 277.504C1039.4 276.688 1040.08 275.964 1040.63 275.332C1041.19 274.7 1041.64 274.136 1041.98 273.64C1042.32 273.144 1042.57 272.688 1042.72 272.272C1042.87 271.848 1042.95 271.44 1042.95 271.048C1042.95 270.376 1042.75 269.844 1042.36 269.452C1041.98 269.06 1041.43 268.864 1040.72 268.864C1040.09 268.864 1039.54 268.996 1039.07 269.26C1038.61 269.524 1038.16 269.952 1037.73 270.544L1035.4 268.792C1036.03 267.928 1036.79 267.24 1037.71 266.728C1038.62 266.208 1039.74 265.948 1041.08 265.948Z" fill="black"/>
<rect x="677.5" y="834.5" width="145" height="345" transform="rotate(90 677.5 834.5)" fill="white"/>
<rect x="677.5" y="834.5" width="145" height="345" transform="rotate(90 677.5 834.5)" stroke="black" stroke-width="5"/>
<path d="M467.668 869.176V873.172H473.428V875.932H467.668V880.18H474.616V883H463.732V866.368H474.604L474.208 869.176H467.668ZM477.571 883V870.256H480.883L481.147 871.732C481.715 871.092 482.315 870.616 482.947 870.304C483.579 869.992 484.299 869.836 485.107 869.836C486.195 869.836 487.051 870.168 487.675 870.832C488.299 871.496 488.611 872.432 488.611 873.64V883H484.819V874.732C484.819 874.212 484.783 873.8 484.711 873.496C484.639 873.184 484.511 872.964 484.327 872.836C484.151 872.7 483.907 872.632 483.595 872.632C483.331 872.632 483.071 872.692 482.815 872.812C482.567 872.924 482.323 873.088 482.083 873.304C481.843 873.52 481.603 873.78 481.363 874.084V883H477.571ZM503.277 868.216L504.165 871C503.717 871.176 503.193 871.304 502.593 871.384C501.993 871.464 501.293 871.504 500.493 871.504C501.293 871.848 501.901 872.276 502.317 872.788C502.741 873.292 502.953 873.956 502.953 874.78C502.953 875.604 502.733 876.34 502.293 876.988C501.853 877.628 501.229 878.132 500.421 878.5C499.613 878.868 498.657 879.052 497.553 879.052C497.281 879.052 497.025 879.04 496.785 879.016C496.545 878.992 496.309 878.956 496.077 878.908C495.941 878.98 495.837 879.084 495.765 879.22C495.693 879.356 495.657 879.496 495.657 879.64C495.657 879.84 495.737 880.02 495.897 880.18C496.065 880.34 496.453 880.42 497.061 880.42H499.149C500.141 880.42 500.997 880.58 501.717 880.9C502.445 881.22 503.009 881.656 503.409 882.208C503.809 882.76 504.009 883.392 504.009 884.104C504.009 885.408 503.437 886.436 502.293 887.188C501.149 887.94 499.449 888.316 497.193 888.316C495.561 888.316 494.297 888.148 493.401 887.812C492.513 887.484 491.893 887.012 491.541 886.396C491.197 885.788 491.025 885.064 491.025 884.224H494.385C494.385 884.592 494.457 884.892 494.601 885.124C494.753 885.364 495.037 885.54 495.453 885.652C495.877 885.764 496.489 885.82 497.289 885.82C498.097 885.82 498.713 885.756 499.137 885.628C499.561 885.5 499.849 885.324 500.001 885.1C500.161 884.884 500.241 884.64 500.241 884.368C500.241 883.992 500.093 883.688 499.797 883.456C499.501 883.224 499.033 883.108 498.393 883.108H496.365C494.989 883.108 493.989 882.856 493.365 882.352C492.741 881.84 492.429 881.244 492.429 880.564C492.429 880.092 492.553 879.644 492.801 879.22C493.057 878.796 493.413 878.44 493.869 878.152C493.053 877.72 492.469 877.212 492.117 876.628C491.765 876.036 491.589 875.328 491.589 874.504C491.589 873.544 491.833 872.72 492.321 872.032C492.809 871.336 493.481 870.8 494.337 870.424C495.201 870.048 496.185 869.86 497.289 869.86C498.241 869.876 499.069 869.812 499.773 869.668C500.477 869.516 501.109 869.312 501.669 869.056C502.229 868.792 502.765 868.512 503.277 868.216ZM497.385 872.32C496.785 872.32 496.309 872.512 495.957 872.896C495.605 873.272 495.429 873.792 495.429 874.456C495.429 875.16 495.609 875.7 495.969 876.076C496.329 876.452 496.801 876.64 497.385 876.64C498.017 876.64 498.497 876.452 498.825 876.076C499.161 875.7 499.329 875.144 499.329 874.408C499.329 873.696 499.165 873.172 498.837 872.836C498.509 872.492 498.025 872.32 497.385 872.32ZM514.14 870.256V880.408H517.38V883H506.736V880.408H510.348V872.848H506.856V870.256H514.14ZM511.848 863.584C512.504 863.584 513.04 863.788 513.456 864.196C513.872 864.604 514.08 865.112 514.08 865.72C514.08 866.328 513.872 866.84 513.456 867.256C513.04 867.664 512.504 867.868 511.848 867.868C511.184 867.868 510.64 867.664 510.216 867.256C509.8 866.84 509.592 866.328 509.592 865.72C509.592 865.112 509.8 864.604 510.216 864.196C510.64 863.788 511.184 863.584 511.848 863.584ZM520.743 883V870.256H524.055L524.319 871.732C524.887 871.092 525.487 870.616 526.118 870.304C526.751 869.992 527.471 869.836 528.279 869.836C529.367 869.836 530.223 870.168 530.847 870.832C531.471 871.496 531.783 872.432 531.783 873.64V883H527.991V874.732C527.991 874.212 527.955 873.8 527.883 873.496C527.811 873.184 527.683 872.964 527.499 872.836C527.323 872.7 527.079 872.632 526.767 872.632C526.503 872.632 526.243 872.692 525.987 872.812C525.739 872.924 525.495 873.088 525.255 873.304C525.015 873.52 524.775 873.78 524.535 874.084V883H520.743ZM538.421 877.732C538.509 878.428 538.689 878.992 538.961 879.424C539.241 879.848 539.597 880.16 540.029 880.36C540.461 880.552 540.945 880.648 541.481 880.648C542.065 880.648 542.629 880.552 543.173 880.36C543.717 880.168 544.241 879.912 544.745 879.592L546.269 881.656C545.669 882.168 544.941 882.588 544.085 882.916C543.237 883.244 542.269 883.408 541.181 883.408C539.725 883.408 538.505 883.12 537.521 882.544C536.537 881.96 535.797 881.16 535.301 880.144C534.805 879.128 534.557 877.96 534.557 876.64C534.557 875.384 534.797 874.244 535.277 873.22C535.757 872.188 536.457 871.368 537.377 870.76C538.305 870.144 539.437 869.836 540.773 869.836C541.989 869.836 543.041 870.096 543.929 870.616C544.825 871.136 545.517 871.884 546.005 872.86C546.501 873.836 546.749 875.008 546.749 876.376C546.749 876.592 546.741 876.824 546.725 877.072C546.717 877.32 546.701 877.54 546.677 877.732H538.421ZM540.773 872.38C540.093 872.38 539.545 872.624 539.129 873.112C538.713 873.6 538.461 874.38 538.373 875.452H543.053C543.045 874.524 542.865 873.78 542.513 873.22C542.161 872.66 541.581 872.38 540.773 872.38Z" fill="black"/>
<rect x="1178.5" y="634.5" width="145" height="345" transform="rotate(90 1178.5 634.5)" fill="white"/>
<rect x="1178.5" y="634.5" width="145" height="345" transform="rotate(90 1178.5 634.5)" stroke="black" stroke-width="5"/>
<path d="M976.54 669.176V673.58H982.372V676.4H976.54V683H972.592V666.368H983.524L983.116 669.176H976.54ZM993.859 670.256V680.408H997.099V683H986.455V680.408H990.067V672.848H986.575V670.256H993.859ZM991.567 663.584C992.223 663.584 992.759 663.788 993.175 664.196C993.591 664.604 993.799 665.112 993.799 665.72C993.799 666.328 993.591 666.84 993.175 667.256C992.759 667.664 992.223 667.868 991.567 667.868C990.903 667.868 990.359 667.664 989.935 667.256C989.519 666.84 989.311 666.328 989.311 665.72C989.311 665.112 989.519 664.604 989.935 664.196C990.359 663.788 990.903 663.584 991.567 663.584ZM1000.46 683V670.256H1003.77L1004.04 671.732C1004.61 671.092 1005.21 670.616 1005.84 670.304C1006.47 669.992 1007.19 669.836 1008 669.836C1009.09 669.836 1009.94 670.168 1010.57 670.832C1011.19 671.496 1011.5 672.432 1011.5 673.64V683H1007.71V674.732C1007.71 674.212 1007.67 673.8 1007.6 673.496C1007.53 673.184 1007.4 672.964 1007.22 672.836C1007.04 672.7 1006.8 672.632 1006.49 672.632C1006.22 672.632 1005.96 672.692 1005.71 672.812C1005.46 672.924 1005.21 673.088 1004.97 673.304C1004.73 673.52 1004.49 673.78 1004.25 674.084V683H1000.46ZM1025.58 679.328C1025.58 679.808 1025.64 680.156 1025.77 680.372C1025.91 680.588 1026.12 680.752 1026.42 680.864L1025.64 683.36C1024.89 683.288 1024.25 683.124 1023.73 682.868C1023.22 682.604 1022.82 682.208 1022.52 681.68C1022.03 682.264 1021.41 682.7 1020.65 682.988C1019.89 683.268 1019.11 683.408 1018.32 683.408C1017.01 683.408 1015.96 683.036 1015.18 682.292C1014.4 681.54 1014.01 680.576 1014.01 679.4C1014.01 678.016 1014.55 676.948 1015.63 676.196C1016.72 675.444 1018.25 675.068 1020.22 675.068H1021.93V674.588C1021.93 673.924 1021.72 673.432 1021.28 673.112C1020.86 672.792 1020.24 672.632 1019.41 672.632C1019 672.632 1018.48 672.692 1017.84 672.812C1017.2 672.924 1016.56 673.088 1015.92 673.304L1015.04 670.784C1015.87 670.472 1016.72 670.236 1017.61 670.076C1018.51 669.916 1019.31 669.836 1020.01 669.836C1021.91 669.836 1023.31 670.224 1024.21 671C1025.12 671.768 1025.58 672.88 1025.58 674.336V679.328ZM1019.63 680.696C1020.04 680.696 1020.46 680.576 1020.91 680.336C1021.36 680.088 1021.7 679.74 1021.93 679.292V677.228H1021C1019.94 677.228 1019.16 677.392 1018.67 677.72C1018.17 678.04 1017.92 678.512 1017.92 679.136C1017.92 679.624 1018.07 680.008 1018.37 680.288C1018.67 680.56 1019.09 680.696 1019.63 680.696ZM1035.89 665.192V678.992C1035.89 679.504 1036.03 679.872 1036.32 680.096C1036.62 680.312 1037.02 680.42 1037.53 680.42C1037.86 680.42 1038.18 680.384 1038.48 680.312C1038.79 680.232 1039.07 680.14 1039.33 680.036L1040.25 682.568C1039.81 682.792 1039.29 682.988 1038.69 683.156C1038.08 683.324 1037.37 683.408 1036.56 683.408C1035.03 683.408 1033.9 682.968 1033.18 682.088C1032.46 681.2 1032.1 680.012 1032.1 678.524V667.784H1028.34V665.192H1035.89Z" fill="black"/>
<rect x="1180.5" y="832.5" width="145" height="345" transform="rotate(90 1180.5 832.5)" fill="white"/>
<rect x="1180.5" y="832.5" width="145" height="345" transform="rotate(90 1180.5 832.5)" stroke="black" stroke-width="5"/>
<path d="M970.1 864.368V867.248H966.668V878.108H970.1V881H959.3V878.108H962.732V867.248H959.3V864.368H970.1ZM973.571 881V868.256H976.883L977.147 869.732C977.715 869.092 978.315 868.616 978.947 868.304C979.579 867.992 980.299 867.836 981.107 867.836C982.195 867.836 983.051 868.168 983.675 868.832C984.299 869.496 984.611 870.432 984.611 871.64V881H980.819V872.732C980.819 872.212 980.783 871.8 980.711 871.496C980.639 871.184 980.511 870.964 980.327 870.836C980.151 870.7 979.907 870.632 979.595 870.632C979.331 870.632 979.071 870.692 978.815 870.812C978.567 870.924 978.323 871.088 978.083 871.304C977.843 871.52 977.603 871.78 977.363 872.084V881H973.571ZM993.073 878.696C993.705 878.696 994.213 878.596 994.597 878.396C994.989 878.196 995.185 877.896 995.185 877.496C995.185 877.224 995.109 876.996 994.957 876.812C994.805 876.628 994.513 876.452 994.081 876.284C993.649 876.116 993.009 875.916 992.161 875.684C991.385 875.476 990.697 875.212 990.097 874.892C989.505 874.572 989.041 874.16 988.705 873.656C988.377 873.152 988.213 872.524 988.213 871.772C988.213 871.012 988.425 870.336 988.849 869.744C989.273 869.152 989.897 868.688 990.721 868.352C991.545 868.008 992.553 867.836 993.745 867.836C994.881 867.836 995.869 867.984 996.709 868.28C997.557 868.568 998.289 868.936 998.905 869.384L997.393 871.616C996.865 871.288 996.297 871.028 995.689 870.836C995.081 870.636 994.469 870.536 993.853 870.536C993.237 870.536 992.777 870.62 992.473 870.788C992.177 870.948 992.029 871.192 992.029 871.52C992.029 871.736 992.105 871.924 992.257 872.084C992.417 872.236 992.713 872.396 993.145 872.564C993.577 872.724 994.209 872.924 995.041 873.164C995.865 873.396 996.581 873.664 997.189 873.968C997.805 874.272 998.281 874.68 998.617 875.192C998.953 875.696 999.121 876.364 999.121 877.196C999.121 878.124 998.845 878.904 998.293 879.536C997.741 880.16 997.009 880.628 996.097 880.94C995.185 881.252 994.185 881.408 993.097 881.408C991.865 881.408 990.777 881.232 989.833 880.88C988.889 880.528 988.085 880.064 987.421 879.488L989.329 877.352C989.825 877.736 990.385 878.056 991.009 878.312C991.641 878.568 992.329 878.696 993.073 878.696ZM1009.41 867.836C1010.52 867.836 1011.42 868.112 1012.1 868.664C1012.78 869.216 1013.27 869.996 1013.58 871.004C1013.9 872.012 1014.06 873.208 1014.06 874.592C1014.06 875.904 1013.87 877.076 1013.49 878.108C1013.1 879.132 1012.55 879.94 1011.82 880.532C1011.09 881.116 1010.21 881.408 1009.17 881.408C1007.93 881.408 1006.92 880.964 1006.14 880.076V885.92L1002.35 886.316V868.256H1005.71L1005.88 869.684C1006.4 869.02 1006.97 868.548 1007.58 868.268C1008.2 867.98 1008.81 867.836 1009.41 867.836ZM1008.23 870.632C1007.79 870.632 1007.4 870.764 1007.07 871.028C1006.73 871.292 1006.42 871.652 1006.14 872.108V877.484C1006.41 877.876 1006.68 878.164 1006.97 878.348C1007.27 878.532 1007.62 878.624 1008.02 878.624C1008.69 878.624 1009.21 878.32 1009.59 877.712C1009.96 877.096 1010.15 876.072 1010.15 874.64C1010.15 873.584 1010.08 872.768 1009.92 872.192C1009.77 871.608 1009.55 871.204 1009.26 870.98C1008.98 870.748 1008.63 870.632 1008.23 870.632ZM1020.03 875.732C1020.12 876.428 1020.3 876.992 1020.57 877.424C1020.85 877.848 1021.21 878.16 1021.64 878.36C1022.07 878.552 1022.55 878.648 1023.09 878.648C1023.67 878.648 1024.24 878.552 1024.78 878.36C1025.33 878.168 1025.85 877.912 1026.35 877.592L1027.88 879.656C1027.28 880.168 1026.55 880.588 1025.69 880.916C1024.85 881.244 1023.88 881.408 1022.79 881.408C1021.33 881.408 1020.11 881.12 1019.13 880.544C1018.15 879.96 1017.41 879.16 1016.91 878.144C1016.41 877.128 1016.17 875.96 1016.17 874.64C1016.17 873.384 1016.41 872.244 1016.89 871.22C1017.37 870.188 1018.07 869.368 1018.99 868.76C1019.91 868.144 1021.05 867.836 1022.38 867.836C1023.6 867.836 1024.65 868.096 1025.54 868.616C1026.43 869.136 1027.13 869.884 1027.61 870.86C1028.11 871.836 1028.36 873.008 1028.36 874.376C1028.36 874.592 1028.35 874.824 1028.33 875.072C1028.33 875.32 1028.31 875.54 1028.29 875.732H1020.03ZM1022.38 870.38C1021.7 870.38 1021.15 870.624 1020.74 871.112C1020.32 871.6 1020.07 872.38 1019.98 873.452H1024.66C1024.65 872.524 1024.47 871.78 1024.12 871.22C1023.77 870.66 1023.19 870.38 1022.38 870.38ZM1037.89 878.42C1038.41 878.42 1038.9 878.32 1039.35 878.12C1039.82 877.912 1040.28 877.648 1040.73 877.328L1042.43 879.728C1041.87 880.208 1041.18 880.608 1040.37 880.928C1039.57 881.248 1038.68 881.408 1037.69 881.408C1036.32 881.408 1035.14 881.128 1034.16 880.568C1033.17 880 1032.42 879.216 1031.89 878.216C1031.36 877.208 1031.1 876.04 1031.1 874.712C1031.1 873.384 1031.37 872.204 1031.9 871.172C1032.45 870.132 1033.21 869.316 1034.21 868.724C1035.21 868.132 1036.39 867.836 1037.76 867.836C1038.73 867.836 1039.59 867.972 1040.34 868.244C1041.1 868.508 1041.79 868.904 1042.43 869.432L1040.78 871.712C1040.35 871.408 1039.89 871.172 1039.41 871.004C1038.93 870.836 1038.43 870.752 1037.91 870.752C1037.06 870.752 1036.37 871.056 1035.84 871.664C1035.32 872.264 1035.06 873.28 1035.06 874.712C1035.06 875.648 1035.18 876.388 1035.43 876.932C1035.68 877.468 1036.01 877.852 1036.44 878.084C1036.87 878.308 1037.35 878.42 1037.89 878.42ZM1057 880.256C1056.5 880.576 1055.9 880.848 1055.2 881.072C1054.49 881.296 1053.7 881.408 1052.82 881.408C1051.16 881.408 1049.92 880.984 1049.11 880.136C1048.3 879.28 1047.9 878.12 1047.9 876.656V870.872H1045.22V868.256H1047.9V865.496L1051.69 865.04V868.256H1055.8L1055.42 870.872H1051.69V876.656C1051.69 877.288 1051.84 877.74 1052.12 878.012C1052.41 878.284 1052.87 878.42 1053.5 878.42C1053.95 878.42 1054.36 878.368 1054.73 878.264C1055.1 878.152 1055.44 878.012 1055.74 877.844L1057 880.256Z" fill="black"/>
<rect x="1027" y="1099" width="50" height="50" transform="rotate(90 1027 1099)" fill="#21C18F"/>
<path d="M1050.96 1114.13C1050.96 1113.44 1050.82 1112.9 1050.55 1112.53C1050.28 1112.15 1049.93 1111.89 1049.48 1111.74C1049.03 1111.59 1048.54 1111.52 1048.01 1111.52H1045.66V1116.57H1047.93C1048.27 1116.57 1048.62 1116.54 1048.97 1116.47C1049.32 1116.4 1049.65 1116.28 1049.95 1116.11C1050.26 1115.94 1050.5 1115.69 1050.68 1115.38C1050.87 1115.06 1050.96 1114.64 1050.96 1114.13ZM1050.41 1107.79C1050.41 1107.01 1050.17 1106.46 1049.68 1106.13C1049.2 1105.8 1048.54 1105.63 1047.71 1105.63H1045.66V1110.09H1047.88C1048.69 1110.09 1049.32 1109.91 1049.75 1109.55C1050.19 1109.18 1050.41 1108.6 1050.41 1107.79ZM1052.79 1114.07C1052.79 1114.82 1052.64 1115.44 1052.34 1115.95C1052.05 1116.46 1051.65 1116.86 1051.15 1117.16C1050.66 1117.46 1050.1 1117.68 1049.49 1117.81C1048.88 1117.94 1048.26 1118 1047.63 1118H1043.93V1104.23H1047.32C1047.93 1104.23 1048.52 1104.29 1049.09 1104.4C1049.67 1104.51 1050.19 1104.69 1050.65 1104.96C1051.12 1105.22 1051.49 1105.57 1051.77 1106.02C1052.05 1106.47 1052.19 1107.03 1052.19 1107.7C1052.19 1108.29 1052.07 1108.8 1051.82 1109.21C1051.58 1109.62 1051.26 1109.94 1050.87 1110.19C1050.48 1110.44 1050.07 1110.61 1049.63 1110.71C1050.14 1110.79 1050.64 1110.95 1051.12 1111.18C1051.61 1111.41 1052.01 1111.75 1052.32 1112.22C1052.63 1112.68 1052.79 1113.3 1052.79 1114.07ZM1057.68 1107.47V1114.93C1057.68 1115.62 1057.83 1116.12 1058.11 1116.43C1058.4 1116.74 1058.85 1116.89 1059.45 1116.89C1060.03 1116.89 1060.58 1116.73 1061.09 1116.4C1061.61 1116.07 1062.02 1115.67 1062.3 1115.22V1107.47H1063.98V1118H1062.55L1062.41 1116.58C1062 1117.11 1061.49 1117.52 1060.88 1117.81C1060.28 1118.09 1059.66 1118.23 1059.04 1118.23C1058.02 1118.23 1057.26 1117.96 1056.75 1117.42C1056.25 1116.87 1056 1116.11 1056 1115.13V1107.47H1057.68ZM1074.21 1103.02C1074.78 1103.02 1075.29 1103.07 1075.75 1103.17C1076.21 1103.27 1076.65 1103.41 1077.06 1103.59L1076.52 1104.84C1076.18 1104.69 1075.82 1104.58 1075.44 1104.51C1075.06 1104.44 1074.67 1104.4 1074.26 1104.4C1073.53 1104.4 1072.98 1104.54 1072.6 1104.83C1072.24 1105.12 1072.05 1105.56 1072.05 1106.15V1108.29H1075.62L1075.44 1109.61H1072.05V1118H1070.37V1109.61H1067.86V1108.29H1070.37V1106.19C1070.37 1105.54 1070.54 1104.97 1070.87 1104.5C1071.21 1104.03 1071.67 1103.66 1072.25 1103.41C1072.83 1103.15 1073.49 1103.02 1074.21 1103.02ZM1086.21 1103.02C1086.77 1103.02 1087.29 1103.07 1087.75 1103.17C1088.21 1103.27 1088.64 1103.41 1089.06 1103.59L1088.52 1104.84C1088.18 1104.69 1087.82 1104.58 1087.44 1104.51C1087.06 1104.44 1086.66 1104.4 1086.26 1104.4C1085.52 1104.4 1084.97 1104.54 1084.6 1104.83C1084.23 1105.12 1084.05 1105.56 1084.05 1106.15V1108.29H1087.62L1087.44 1109.61H1084.05V1118H1082.37V1109.61H1079.86V1108.29H1082.37V1106.19C1082.37 1105.54 1082.53 1104.97 1082.87 1104.5C1083.21 1104.03 1083.67 1103.66 1084.25 1103.41C1084.83 1103.15 1085.48 1103.02 1086.21 1103.02ZM1093.3 1113.33C1093.33 1114.14 1093.49 1114.81 1093.77 1115.33C1094.05 1115.84 1094.42 1116.22 1094.88 1116.47C1095.34 1116.71 1095.84 1116.83 1096.38 1116.83C1096.92 1116.83 1097.41 1116.75 1097.84 1116.59C1098.28 1116.43 1098.73 1116.19 1099.19 1115.88L1099.98 1116.99C1099.49 1117.38 1098.92 1117.68 1098.29 1117.9C1097.66 1118.12 1097.02 1118.23 1096.36 1118.23C1095.34 1118.23 1094.47 1118 1093.75 1117.54C1093.03 1117.08 1092.48 1116.44 1092.1 1115.62C1091.73 1114.79 1091.54 1113.84 1091.54 1112.75C1091.54 1111.68 1091.73 1110.74 1092.11 1109.91C1092.49 1109.08 1093.02 1108.43 1093.71 1107.96C1094.4 1107.49 1095.21 1107.25 1096.14 1107.25C1097.03 1107.25 1097.79 1107.46 1098.43 1107.88C1099.07 1108.29 1099.56 1108.89 1099.9 1109.66C1100.25 1110.43 1100.42 1111.34 1100.42 1112.41C1100.42 1112.59 1100.42 1112.76 1100.41 1112.92C1100.4 1113.07 1100.39 1113.21 1100.38 1113.33H1093.3ZM1096.16 1108.63C1095.38 1108.63 1094.73 1108.91 1094.2 1109.46C1093.68 1110.01 1093.38 1110.87 1093.31 1112.03H1098.8C1098.78 1110.9 1098.53 1110.06 1098.06 1109.49C1097.59 1108.92 1096.95 1108.63 1096.16 1108.63ZM1104.07 1118V1116.71H1105.71V1108.76H1104.07V1107.47H1106.99L1107.3 1109.96C1107.71 1109.09 1108.2 1108.42 1108.78 1107.95C1109.36 1107.48 1110.13 1107.24 1111.08 1107.24C1111.37 1107.24 1111.63 1107.26 1111.86 1107.31C1112.09 1107.35 1112.33 1107.4 1112.57 1107.47L1112.08 1108.97C1111.86 1108.91 1111.66 1108.87 1111.48 1108.84C1111.3 1108.81 1111.09 1108.79 1110.86 1108.79C1110.05 1108.79 1109.36 1109.08 1108.78 1109.65C1108.2 1110.22 1107.74 1111.09 1107.39 1112.25V1116.71H1109.53V1118H1104.07ZM1110.95 1111.03V1108.74L1111.12 1107.47H1112.57L1112.33 1111.03H1110.95ZM1052.73 1140.19C1052.73 1140.98 1052.53 1141.68 1052.14 1142.29C1051.75 1142.9 1051.18 1143.37 1050.43 1143.72C1049.68 1144.06 1048.77 1144.23 1047.7 1144.23C1046.69 1144.23 1045.78 1144.08 1044.96 1143.77C1044.15 1143.46 1043.45 1143.03 1042.87 1142.47L1043.9 1141.31C1044.38 1141.76 1044.93 1142.11 1045.55 1142.38C1046.17 1142.64 1046.9 1142.77 1047.73 1142.77C1048.29 1142.77 1048.81 1142.68 1049.3 1142.5C1049.79 1142.31 1050.18 1142.03 1050.48 1141.66C1050.78 1141.28 1050.93 1140.8 1050.93 1140.22C1050.93 1139.77 1050.84 1139.39 1050.67 1139.08C1050.5 1138.77 1050.19 1138.49 1049.75 1138.25C1049.31 1138 1048.7 1137.76 1047.91 1137.53C1047 1137.26 1046.22 1136.96 1045.55 1136.63C1044.89 1136.29 1044.38 1135.87 1044.01 1135.38C1043.65 1134.89 1043.47 1134.28 1043.47 1133.55C1043.47 1132.86 1043.66 1132.25 1044.04 1131.72C1044.42 1131.19 1044.94 1130.77 1045.61 1130.47C1046.28 1130.16 1047.06 1130.01 1047.93 1130.01C1048.88 1130.01 1049.71 1130.15 1050.41 1130.42C1051.12 1130.69 1051.76 1131.07 1052.33 1131.58L1051.31 1132.71C1050.82 1132.27 1050.29 1131.95 1049.72 1131.76C1049.15 1131.56 1048.58 1131.46 1047.99 1131.46C1047.49 1131.46 1047.03 1131.54 1046.61 1131.69C1046.2 1131.84 1045.86 1132.06 1045.61 1132.36C1045.36 1132.65 1045.24 1133.03 1045.24 1133.49C1045.24 1133.88 1045.35 1134.22 1045.56 1134.51C1045.77 1134.8 1046.13 1135.06 1046.64 1135.3C1047.15 1135.53 1047.84 1135.78 1048.71 1136.04C1049.42 1136.25 1050.08 1136.51 1050.69 1136.82C1051.3 1137.13 1051.8 1137.55 1052.17 1138.08C1052.54 1138.61 1052.73 1139.31 1052.73 1140.19ZM1064.36 1143.47C1064 1143.71 1063.57 1143.9 1063.05 1144.03C1062.54 1144.16 1062.04 1144.23 1061.54 1144.23C1060.41 1144.23 1059.54 1143.93 1058.92 1143.34C1058.31 1142.75 1058 1141.98 1058 1141.05V1134.77H1055.58V1133.47H1058V1131.08L1059.68 1130.88V1133.47H1063.32L1063.12 1134.77H1059.68V1141.03C1059.68 1141.62 1059.84 1142.06 1060.14 1142.37C1060.46 1142.68 1060.97 1142.83 1061.69 1142.83C1062.09 1142.83 1062.45 1142.78 1062.78 1142.69C1063.12 1142.6 1063.43 1142.48 1063.71 1142.33L1064.36 1143.47ZM1072 1133.25C1073 1133.25 1073.83 1133.48 1074.49 1133.93C1075.17 1134.38 1075.67 1135.01 1076 1135.83C1076.34 1136.65 1076.51 1137.62 1076.51 1138.73C1076.51 1139.8 1076.34 1140.75 1075.99 1141.58C1075.65 1142.41 1075.14 1143.06 1074.46 1143.53C1073.8 1144 1072.97 1144.23 1071.98 1144.23C1071 1144.23 1070.17 1144 1069.49 1143.55C1068.82 1143.1 1068.31 1142.46 1067.96 1141.64C1067.62 1140.81 1067.45 1139.85 1067.45 1138.75C1067.45 1137.66 1067.63 1136.71 1067.97 1135.88C1068.32 1135.05 1068.83 1134.41 1069.5 1133.95C1070.18 1133.48 1071.02 1133.25 1072 1133.25ZM1072 1134.62C1071.1 1134.62 1070.41 1134.96 1069.94 1135.63C1069.48 1136.3 1069.25 1137.34 1069.25 1138.75C1069.25 1140.14 1069.48 1141.17 1069.93 1141.84C1070.39 1142.51 1071.08 1142.85 1071.98 1142.85C1072.89 1142.85 1073.57 1142.51 1074.02 1141.84C1074.48 1141.17 1074.71 1140.13 1074.71 1138.73C1074.71 1137.33 1074.49 1136.3 1074.03 1135.63C1073.58 1134.96 1072.9 1134.62 1072 1134.62ZM1084.7 1133.25C1085.63 1133.25 1086.37 1133.48 1086.93 1133.93C1087.49 1134.38 1087.89 1135.02 1088.14 1135.85C1088.38 1136.67 1088.51 1137.63 1088.51 1138.73C1088.51 1139.79 1088.36 1140.74 1088.06 1141.57C1087.76 1142.4 1087.32 1143.05 1086.72 1143.52C1086.12 1143.99 1085.36 1144.23 1084.45 1144.23C1083.29 1144.23 1082.37 1143.82 1081.67 1143.01V1148.03L1079.99 1148.24V1133.47H1081.42L1081.56 1134.94C1081.94 1134.4 1082.4 1133.98 1082.94 1133.69C1083.48 1133.4 1084.06 1133.25 1084.7 1133.25ZM1084.3 1134.6C1083.72 1134.6 1083.2 1134.78 1082.76 1135.13C1082.32 1135.48 1081.95 1135.86 1081.67 1136.29V1141.51C1081.94 1141.92 1082.28 1142.24 1082.7 1142.48C1083.12 1142.71 1083.58 1142.83 1084.08 1142.83C1084.95 1142.83 1085.61 1142.5 1086.05 1141.83C1086.49 1141.16 1086.71 1140.13 1086.71 1138.72C1086.71 1137.8 1086.62 1137.04 1086.45 1136.43C1086.27 1135.82 1086.01 1135.36 1085.66 1135.06C1085.3 1134.75 1084.85 1134.6 1084.3 1134.6Z" fill="black"/>
<path d="M1190.77 1125.77C1191.74 1124.79 1191.74 1123.21 1190.77 1122.23L1174.86 1106.32C1173.88 1105.35 1172.3 1105.35 1171.32 1106.32C1170.35 1107.3 1170.35 1108.88 1171.32 1109.86L1185.46 1124L1171.32 1138.14C1170.35 1139.12 1170.35 1140.7 1171.32 1141.68C1172.3 1142.65 1173.88 1142.65 1174.86 1141.68L1190.77 1125.77ZM1139 1124V1126.5H1189V1124V1121.5H1139V1124Z" fill="#041BB0"/>
<path d="M1213.28 1108.48C1213.28 1107.77 1213.14 1107.2 1212.86 1106.79C1212.58 1106.37 1212.2 1106.07 1211.71 1105.89C1211.22 1105.7 1210.67 1105.61 1210.04 1105.61H1208.05V1111.49H1209.97C1210.62 1111.49 1211.19 1111.4 1211.68 1111.23C1212.17 1111.05 1212.56 1110.74 1212.85 1110.31C1213.14 1109.87 1213.28 1109.26 1213.28 1108.48ZM1215.14 1108.46C1215.14 1109.53 1214.91 1110.39 1214.45 1111.04C1214 1111.69 1213.37 1112.16 1212.57 1112.45C1211.77 1112.74 1210.85 1112.89 1209.81 1112.89H1208.05V1118H1206.31V1104.23H1209.83C1211.47 1104.23 1212.76 1104.58 1213.71 1105.27C1214.66 1105.96 1215.14 1107.02 1215.14 1108.46ZM1218.1 1118V1116.71H1219.74V1108.76H1218.1V1107.47H1221.02L1221.33 1109.96C1221.74 1109.09 1222.23 1108.42 1222.81 1107.95C1223.39 1107.48 1224.16 1107.24 1225.11 1107.24C1225.41 1107.24 1225.67 1107.26 1225.89 1107.31C1226.13 1107.35 1226.36 1107.4 1226.6 1107.47L1226.11 1108.97C1225.89 1108.91 1225.69 1108.87 1225.51 1108.84C1225.33 1108.81 1225.13 1108.79 1224.89 1108.79C1224.09 1108.79 1223.39 1109.08 1222.81 1109.65C1222.23 1110.22 1221.77 1111.09 1221.42 1112.25V1116.71H1223.56V1118H1218.1ZM1224.98 1111.03V1108.74L1225.15 1107.47H1226.6L1226.36 1111.03H1224.98ZM1234 1107.25C1235 1107.25 1235.83 1107.48 1236.49 1107.93C1237.17 1108.38 1237.67 1109.01 1238 1109.83C1238.34 1110.65 1238.51 1111.62 1238.51 1112.73C1238.51 1113.8 1238.34 1114.75 1237.99 1115.58C1237.65 1116.41 1237.14 1117.06 1236.46 1117.53C1235.8 1118 1234.97 1118.23 1233.98 1118.23C1233 1118.23 1232.17 1118 1231.49 1117.55C1230.82 1117.1 1230.31 1116.46 1229.96 1115.64C1229.62 1114.81 1229.45 1113.85 1229.45 1112.75C1229.45 1111.66 1229.63 1110.71 1229.97 1109.88C1230.32 1109.05 1230.83 1108.41 1231.5 1107.95C1232.18 1107.48 1233.02 1107.25 1234 1107.25ZM1234 1108.62C1233.1 1108.62 1232.41 1108.96 1231.94 1109.63C1231.48 1110.3 1231.25 1111.34 1231.25 1112.75C1231.25 1114.14 1231.48 1115.17 1231.93 1115.84C1232.39 1116.51 1233.08 1116.85 1233.98 1116.85C1234.89 1116.85 1235.57 1116.51 1236.02 1115.84C1236.48 1115.17 1236.71 1114.13 1236.71 1112.73C1236.71 1111.33 1236.49 1110.3 1236.03 1109.63C1235.58 1108.96 1234.9 1108.62 1234 1108.62ZM1248.29 1103.02L1249.97 1103.23V1118H1248.5L1248.34 1116.61C1247.94 1117.17 1247.49 1117.58 1246.98 1117.84C1246.47 1118.1 1245.93 1118.23 1245.35 1118.23C1244.43 1118.23 1243.68 1118 1243.09 1117.54C1242.49 1117.08 1242.05 1116.44 1241.77 1115.62C1241.48 1114.79 1241.34 1113.84 1241.34 1112.75C1241.34 1111.7 1241.5 1110.76 1241.83 1109.93C1242.15 1109.1 1242.62 1108.44 1243.24 1107.97C1243.86 1107.49 1244.6 1107.25 1245.47 1107.25C1246.07 1107.25 1246.61 1107.36 1247.07 1107.57C1247.53 1107.78 1247.93 1108.08 1248.29 1108.49V1103.02ZM1245.91 1108.6C1245.03 1108.6 1244.35 1108.94 1243.88 1109.63C1243.4 1110.32 1243.17 1111.36 1243.17 1112.75C1243.17 1113.66 1243.26 1114.42 1243.46 1115.03C1243.65 1115.64 1243.93 1116.1 1244.31 1116.41C1244.69 1116.72 1245.15 1116.87 1245.7 1116.87C1246.3 1116.87 1246.81 1116.7 1247.23 1116.36C1247.65 1116.02 1248.01 1115.64 1248.29 1115.21V1109.95C1248 1109.52 1247.65 1109.19 1247.25 1108.96C1246.84 1108.72 1246.39 1108.6 1245.91 1108.6ZM1255.66 1107.47V1114.93C1255.66 1115.62 1255.8 1116.12 1256.09 1116.43C1256.38 1116.74 1256.82 1116.89 1257.43 1116.89C1258.01 1116.89 1258.56 1116.73 1259.07 1116.4C1259.59 1116.07 1259.99 1115.67 1260.28 1115.22V1107.47H1261.96V1118H1260.53L1260.39 1116.58C1259.98 1117.11 1259.47 1117.52 1258.86 1117.81C1258.25 1118.09 1257.64 1118.23 1257.02 1118.23C1256 1118.23 1255.24 1117.96 1254.73 1117.42C1254.23 1116.87 1253.98 1116.11 1253.98 1115.13V1107.47H1255.66ZM1270.73 1116.78C1271.26 1116.78 1271.75 1116.69 1272.2 1116.52C1272.66 1116.35 1273.08 1116.13 1273.47 1115.86L1274.29 1116.96C1273.83 1117.35 1273.28 1117.66 1272.63 1117.89C1271.98 1118.12 1271.35 1118.23 1270.73 1118.23C1269.68 1118.23 1268.79 1118.01 1268.05 1117.56C1267.32 1117.11 1266.76 1116.47 1266.37 1115.66C1265.98 1114.84 1265.79 1113.88 1265.79 1112.78C1265.79 1111.73 1265.98 1110.78 1266.37 1109.95C1266.76 1109.11 1267.33 1108.45 1268.06 1107.97C1268.8 1107.49 1269.7 1107.25 1270.75 1107.25C1271.42 1107.25 1272.05 1107.35 1272.64 1107.56C1273.23 1107.76 1273.78 1108.06 1274.27 1108.47L1273.45 1109.59C1273 1109.28 1272.55 1109.04 1272.1 1108.89C1271.65 1108.73 1271.2 1108.65 1270.73 1108.65C1269.82 1108.65 1269.08 1108.99 1268.49 1109.67C1267.9 1110.35 1267.61 1111.39 1267.61 1112.78C1267.61 1113.71 1267.74 1114.48 1268.01 1115.07C1268.28 1115.66 1268.65 1116.09 1269.12 1116.37C1269.59 1116.64 1270.13 1116.78 1270.73 1116.78ZM1286.32 1117.47C1285.96 1117.71 1285.53 1117.9 1285.01 1118.03C1284.5 1118.16 1284 1118.23 1283.5 1118.23C1282.37 1118.23 1281.5 1117.93 1280.88 1117.34C1280.27 1116.75 1279.96 1115.98 1279.96 1115.05V1108.77H1277.54V1107.47H1279.96V1105.08L1281.64 1104.88V1107.47H1285.28L1285.08 1108.77H1281.64V1115.03C1281.64 1115.62 1281.8 1116.06 1282.1 1116.37C1282.42 1116.68 1282.93 1116.83 1283.65 1116.83C1284.05 1116.83 1284.41 1116.78 1284.74 1116.69C1285.08 1116.6 1285.39 1116.48 1285.67 1116.33L1286.32 1117.47ZM1295.29 1107.47V1116.67H1298.26V1118H1290.36V1116.67H1293.61V1108.8H1290.46V1107.47H1295.29ZM1293.95 1102.54C1294.32 1102.54 1294.62 1102.65 1294.84 1102.88C1295.06 1103.11 1295.18 1103.38 1295.18 1103.71C1295.18 1104.05 1295.06 1104.34 1294.84 1104.57C1294.62 1104.8 1294.32 1104.91 1293.95 1104.91C1293.59 1104.91 1293.3 1104.8 1293.08 1104.57C1292.85 1104.34 1292.74 1104.05 1292.74 1103.71C1292.74 1103.38 1292.85 1103.11 1293.08 1102.88C1293.3 1102.65 1293.59 1102.54 1293.95 1102.54ZM1305.96 1107.25C1306.95 1107.25 1307.78 1107.48 1308.45 1107.93C1309.12 1108.38 1309.62 1109.01 1309.96 1109.83C1310.3 1110.65 1310.47 1111.62 1310.47 1112.73C1310.47 1113.8 1310.29 1114.75 1309.95 1115.58C1309.6 1116.41 1309.09 1117.06 1308.42 1117.53C1307.75 1118 1306.92 1118.23 1305.94 1118.23C1304.95 1118.23 1304.12 1118 1303.45 1117.55C1302.77 1117.1 1302.26 1116.46 1301.92 1115.64C1301.58 1114.81 1301.41 1113.85 1301.41 1112.75C1301.41 1111.66 1301.58 1110.71 1301.93 1109.88C1302.27 1109.05 1302.78 1108.41 1303.46 1107.95C1304.14 1107.48 1304.97 1107.25 1305.96 1107.25ZM1305.96 1108.62C1305.05 1108.62 1304.36 1108.96 1303.9 1109.63C1303.44 1110.3 1303.21 1111.34 1303.21 1112.75C1303.21 1114.14 1303.43 1115.17 1303.89 1115.84C1304.35 1116.51 1305.03 1116.85 1305.94 1116.85C1306.84 1116.85 1307.52 1116.51 1307.98 1115.84C1308.44 1115.17 1308.67 1114.13 1308.67 1112.73C1308.67 1111.33 1308.44 1110.3 1307.99 1109.63C1307.53 1108.96 1306.86 1108.62 1305.96 1108.62ZM1313.94 1118V1107.47H1315.37L1315.5 1108.93C1315.93 1108.39 1316.46 1107.98 1317.1 1107.69C1317.75 1107.4 1318.37 1107.25 1318.98 1107.25C1320.01 1107.25 1320.76 1107.52 1321.23 1108.07C1321.7 1108.62 1321.94 1109.38 1321.94 1110.35V1118H1320.26V1111.59C1320.26 1110.87 1320.22 1110.29 1320.14 1109.85C1320.06 1109.4 1319.89 1109.08 1319.64 1108.88C1319.39 1108.67 1318.99 1108.57 1318.46 1108.57C1318.05 1108.57 1317.66 1108.66 1317.29 1108.84C1316.93 1109.02 1316.61 1109.25 1316.32 1109.52C1316.04 1109.79 1315.81 1110.06 1315.62 1110.33V1118H1313.94ZM1206.71 1144V1130.23H1208.45V1142.45H1214.73L1214.53 1144H1206.71ZM1223.33 1133.47V1142.67H1226.3V1144H1218.4V1142.67H1221.65V1134.8H1218.5V1133.47H1223.33ZM1221.99 1128.54C1222.37 1128.54 1222.66 1128.65 1222.88 1128.88C1223.11 1129.11 1223.22 1129.38 1223.22 1129.71C1223.22 1130.05 1223.11 1130.34 1222.88 1130.57C1222.66 1130.8 1222.37 1130.91 1221.99 1130.91C1221.64 1130.91 1221.35 1130.8 1221.12 1130.57C1220.9 1130.34 1220.78 1130.05 1220.78 1129.71C1220.78 1129.38 1220.9 1129.11 1221.12 1128.88C1221.35 1128.65 1221.64 1128.54 1221.99 1128.54ZM1229.99 1144V1133.47H1231.42L1231.55 1134.93C1231.98 1134.39 1232.51 1133.98 1233.15 1133.69C1233.8 1133.4 1234.43 1133.25 1235.03 1133.25C1236.07 1133.25 1236.82 1133.52 1237.28 1134.07C1237.76 1134.62 1237.99 1135.38 1237.99 1136.35V1144H1236.31V1137.59C1236.31 1136.87 1236.27 1136.29 1236.19 1135.85C1236.11 1135.4 1235.95 1135.08 1235.69 1134.88C1235.44 1134.67 1235.05 1134.57 1234.51 1134.57C1234.1 1134.57 1233.71 1134.66 1233.34 1134.84C1232.98 1135.02 1232.66 1135.25 1232.37 1135.52C1232.09 1135.79 1231.86 1136.06 1231.67 1136.33V1144H1229.99ZM1243.31 1139.33C1243.34 1140.14 1243.5 1140.81 1243.78 1141.33C1244.06 1141.84 1244.43 1142.22 1244.89 1142.47C1245.35 1142.71 1245.85 1142.83 1246.39 1142.83C1246.93 1142.83 1247.41 1142.75 1247.85 1142.59C1248.29 1142.43 1248.74 1142.19 1249.2 1141.88L1249.99 1142.99C1249.49 1143.38 1248.93 1143.68 1248.3 1143.9C1247.67 1144.12 1247.03 1144.23 1246.37 1144.23C1245.35 1144.23 1244.48 1144 1243.76 1143.54C1243.04 1143.08 1242.49 1142.44 1242.11 1141.62C1241.73 1140.79 1241.55 1139.84 1241.55 1138.75C1241.55 1137.68 1241.74 1136.74 1242.12 1135.91C1242.5 1135.08 1243.03 1134.43 1243.72 1133.96C1244.4 1133.49 1245.21 1133.25 1246.15 1133.25C1247.03 1133.25 1247.8 1133.46 1248.44 1133.88C1249.08 1134.29 1249.57 1134.89 1249.91 1135.66C1250.25 1136.43 1250.43 1137.34 1250.43 1138.41C1250.43 1138.59 1250.42 1138.76 1250.42 1138.92C1250.41 1139.07 1250.4 1139.21 1250.39 1139.33H1243.31ZM1246.17 1134.63C1245.39 1134.63 1244.73 1134.91 1244.21 1135.46C1243.69 1136.01 1243.39 1136.87 1243.32 1138.03H1248.81C1248.79 1136.9 1248.54 1136.06 1248.07 1135.49C1247.59 1134.92 1246.96 1134.63 1246.17 1134.63ZM1272.19 1129.02C1272.76 1129.02 1273.27 1129.07 1273.73 1129.17C1274.19 1129.27 1274.63 1129.41 1275.04 1129.59L1274.5 1130.84C1274.16 1130.69 1273.8 1130.58 1273.42 1130.51C1273.04 1130.44 1272.65 1130.4 1272.24 1130.4C1271.51 1130.4 1270.95 1130.54 1270.58 1130.83C1270.21 1131.12 1270.03 1131.56 1270.03 1132.15V1134.29H1273.6L1273.42 1135.61H1270.03V1144H1268.35V1135.61H1265.84V1134.29H1268.35V1132.19C1268.35 1131.54 1268.52 1130.97 1268.85 1130.5C1269.19 1130.03 1269.65 1129.66 1270.23 1129.41C1270.81 1129.15 1271.46 1129.02 1272.19 1129.02ZM1282.06 1129.23V1141.4C1282.06 1141.92 1282.22 1142.29 1282.54 1142.51C1282.87 1142.72 1283.29 1142.83 1283.8 1142.83C1284.12 1142.83 1284.43 1142.8 1284.71 1142.73C1285 1142.66 1285.29 1142.57 1285.57 1142.46L1286.02 1143.69C1285.74 1143.83 1285.38 1143.95 1284.95 1144.06C1284.53 1144.17 1284.06 1144.23 1283.52 1144.23C1282.59 1144.23 1281.83 1143.97 1281.25 1143.46C1280.67 1142.94 1280.38 1142.22 1280.38 1141.31V1130.56H1277.15V1129.23H1282.06ZM1293.97 1133.25C1294.96 1133.25 1295.79 1133.48 1296.46 1133.93C1297.13 1134.38 1297.63 1135.01 1297.97 1135.83C1298.31 1136.65 1298.48 1137.62 1298.48 1138.73C1298.48 1139.8 1298.3 1140.75 1297.96 1141.58C1297.61 1142.41 1297.1 1143.06 1296.43 1143.53C1295.76 1144 1294.93 1144.23 1293.95 1144.23C1292.96 1144.23 1292.13 1144 1291.46 1143.55C1290.78 1143.1 1290.27 1142.46 1289.93 1141.64C1289.59 1140.81 1289.42 1139.85 1289.42 1138.75C1289.42 1137.66 1289.59 1136.71 1289.94 1135.88C1290.28 1135.05 1290.79 1134.41 1291.47 1133.95C1292.15 1133.48 1292.98 1133.25 1293.97 1133.25ZM1293.97 1134.62C1293.06 1134.62 1292.37 1134.96 1291.91 1135.63C1291.45 1136.3 1291.22 1137.34 1291.22 1138.75C1291.22 1140.14 1291.44 1141.17 1291.9 1141.84C1292.36 1142.51 1293.04 1142.85 1293.95 1142.85C1294.85 1142.85 1295.53 1142.51 1295.99 1141.84C1296.45 1141.17 1296.68 1140.13 1296.68 1138.73C1296.68 1137.33 1296.45 1136.3 1296 1135.63C1295.54 1134.96 1294.87 1134.62 1293.97 1134.62ZM1309.75 1144H1307.37L1306.01 1136.27L1304.53 1144H1302.21L1300.29 1133.47H1302.01L1303.35 1142.96L1305.03 1134.81H1307.02L1308.61 1142.96L1309.95 1133.47H1311.59L1309.75 1144Z" fill="black"/>
</svg>
